<?xml version="1.0" encoding="UTF-8"?>
<svg id="Layer_1" xmlns="http://www.w3.org/2000/svg" version="1.1" viewBox="0 0 117 159">
  <!-- Generator: Adobe Illustrator 29.6.1, SVG Export Plug-In . SVG Version: 2.1.1 Build 9)  -->
  <defs>
    <style>
      .st0 {
        fill: #fff;
      }

      .st1 {
        opacity: .4;
      }
    </style>
  </defs>
  <g class="st1">
    <path class="st0" d="M51.2,128.2c2,.3,4,.7,6.1,1.5,2,.7,3.7,1.5,4.9,2.5.4,1,.7,2.5.7,4.5,0,2.1,0,3.8-.2,5.2-.2,1.4-.5,3.1-1.1,5-.6,1.9-1.2,3.4-1.9,4.3-1.4.6-3.2,1-5.3,1.2-2.1.2-4.2.2-6.2-.1-4.7-.6-8.4-1.9-11.2-4-.4-1-.6-2.6-.6-4.6,0-2,0-3.7.2-5.1.2-1.4.6-3.1,1.1-5.1.6-2,1.2-3.4,1.8-4.2,3.2-1.3,7.1-1.6,11.8-1ZM45.5,109.1c1.1-14,2.1-28,3-41.9.9-13.9,2.3-27.9,4-41.8l2.4-18.9c1.9-.3,4.4-.4,7.3-.2,2.9.2,5.8.6,8.7,1.2,2.9.6,5.2,1.3,7,2.1l-2.4,19c-1.8,13.8-3.9,27.5-6.5,41.3-2.6,13.8-5.2,27.5-7.7,41.3-1.3.3-2.7.4-4.1.3-1.4,0-2.7-.1-3.9-.3-1.2-.2-2.5-.4-3.9-.7-1.4-.3-2.8-.8-4-1.4Z"/>
  </g>
</svg>