<?xml version="1.0" encoding="utf-8"?>
<!-- Generator: Adobe Illustrator 27.8.1, SVG Export Plug-In . SVG Version: 6.00 Build 0)  -->
<svg version="1.1" id="thinking" xmlns="http://www.w3.org/2000/svg" xmlns:xlink="http://www.w3.org/1999/xlink" x="0px" y="0px"
	 viewBox="0 0 32 32" style="enable-background:new 0 0 32 32;" xml:space="preserve">
<style type="text/css">
	.st0{fill:#FFFFFF;}
</style>
<path class="st0" d="M6.6,31.5c-0.1,0-0.3,0-0.4-0.1c-0.4-0.2-0.7-0.6-0.7-1v-5H4.1c-2,0-3.5-1.6-3.5-3.5v-17c0-2,1.6-3.5,3.5-3.5
	h23.1c2,0,3.5,1.6,3.5,3.5v17c0,2-1.6,3.5-3.5,3.5H13.1l-5.8,5.8C7.1,31.4,6.8,31.5,6.6,31.5z M4.1,3.5c-0.7,0-1.3,0.6-1.3,1.3v17
	c0,0.7,0.6,1.3,1.3,1.3h2.4c0.6,0,1.1,0.5,1.1,1.1v3.4l4.2-4.2c0.2-0.2,0.5-0.3,0.8-0.3h14.6c0.7,0,1.3-0.6,1.3-1.3v-17
	c0-0.7-0.6-1.3-1.3-1.3H4.1z"/>
<path class="st0" d="M14.5,20.5c-0.9,0-1.7-0.7-1.7-1.9V17c0-0.6-0.2-1.1-0.6-1.3c-1.6-1.1-2.5-3-2.4-4.9c0.1-3.2,2.7-5.8,5.9-5.8
	c1.7,0,3.2,0.6,4.3,1.7c1.1,1.1,1.8,2.6,1.8,4.2c0,1.9-0.9,3.6-2.4,4.8c-0.4,0.3-0.6,0.8-0.6,1.4v1.8c0,0.9-0.8,1.7-1.7,1.7H14.5z
	 M15.6,7.1c-2,0-3.7,1.7-3.7,3.6c0,1.2,0.5,2.3,1.5,3.1c1,0.7,1.5,1.9,1.5,3.1v1.3l1.4,0V17c0-1.3,0.6-2.4,1.5-3.1
	c1-0.7,1.5-1.8,1.5-3c0-1-0.4-1.9-1.1-2.6C17.6,7.5,16.7,7.1,15.6,7.1l0-0.5L15.6,7.1z"/>
<path class="st0" d="M17.5,17.6h-3.6c-0.3,0-0.6-0.3-0.6-0.6c0-0.3,0.3-0.6,0.6-0.6h3.6c0.3,0,0.6,0.3,0.6,0.6
	C18.1,17.3,17.8,17.6,17.5,17.6z"/>
<g>
</g>
<g>
</g>
<g>
</g>
<g>
</g>
<g>
</g>
<g>
</g>
<g>
</g>
<g>
</g>
<g>
</g>
<g>
</g>
<g>
</g>
<g>
</g>
<g>
</g>
<g>
</g>
<g>
</g>
</svg>
