<?xml version="1.0" encoding="UTF-8"?>
<svg xmlns="http://www.w3.org/2000/svg" xmlns:xlink="http://www.w3.org/1999/xlink" version="1.1" viewBox="0 0 1280 720">
  <!-- Generator: Adobe Illustrator 29.7.1, SVG Export Plug-In . SVG Version: 2.1.1 Build 8)  -->
  <defs>
    <style>
      .st0 {
        fill: #fff;
      }

      .st0, .st1 {
        fill-rule: evenodd;
      }

      .st2 {
        fill: #dae5df;
      }

      .st1 {
        fill: url(#Degradado_sin_nombre_13);
      }

      .st3 {
        fill: url(#Degradado_sin_nombre_14);
        opacity: .2;
      }
    </style>
    <radialGradient id="Degradado_sin_nombre_14" data-name="Degradado sin nombre 14" cx="872.7" cy="973.8" fx="872.7" fy="973.8" r="61.4" gradientTransform="translate(-1519.8 525.4) scale(2.5 .1)" gradientUnits="userSpaceOnUse">
      <stop offset="0" stop-color="#000"/>
      <stop offset="1" stop-color="#dae5df"/>
    </radialGradient>
    <linearGradient id="Degradado_sin_nombre_13" data-name="Degradado sin nombre 13" x1="624.3" y1="94.3" x2="624.3" y2="527.3" gradientUnits="userSpaceOnUse">
      <stop offset="0" stop-color="#4ac14b"/>
      <stop offset="1" stop-color="#06853a"/>
    </linearGradient>
  </defs>
  <g id="BACKGROUND">
    <rect class="st2" x="-15.3" y="-18.7" width="1304.7" height="755.2"/>
  </g>
  <g id="OBJECTS">
    <ellipse class="st3" cx="618.4" cy="651.1" rx="211.6" ry="11.3"/>
    <g>
      <path class="st1" d="M624.3,94.3c-120.3,0-218.2,97.1-218.2,216.5s15.4,91.2,41.6,127l-27.2,80.4,83.8-26.6c34.4,22.6,75.7,35.8,120.1,35.8,120.3,0,218.2-97.1,218.2-216.5s-97.9-216.5-218.2-216.5h0Z"/>
      <path class="st0" d="M870.3,308.9c0,135.5-110.7,245.3-247.3,245.3s-84.1-11.1-119.5-30.5l-136.9,43.5,44.6-131.6c-22.5-37-35.5-80.3-35.5-126.7,0-135.5,110.7-245.4,247.3-245.4s247.3,109.9,247.3,245.4h0ZM623,102.6c-114.7,0-207.9,92.5-207.9,206.3s14.7,86.9,39.6,120.9l-26,76.6,79.9-25.4c32.8,21.5,72.1,34.1,114.4,34.1,114.6,0,207.9-92.5,207.9-206.3s-93.3-206.3-207.9-206.3h0ZM747.9,365.4c-1.5-2.5-5.6-4-11.6-7-6.1-3-35.9-17.6-41.4-19.6-5.5-2-9.6-3-13.6,3-4,6-15.7,19.6-19.2,23.6-3.5,4-7.1,4.5-13.1,1.5-6.1-3-25.6-9.4-48.8-29.8-18-16-30.2-35.6-33.7-41.7-3.5-6-.3-9.3,2.7-12.3,2.7-2.7,6.1-7,9.1-10.5,3-3.5,4-6,6.1-10.1,2-4,1-7.5-.5-10.5-1.5-3-13.6-32.6-18.7-44.7-5-12-10.1-11.6-13.6-11.6s-10.1,1-10.1,1c0,0-12.2,1.5-17.7,7.5-5.5,6-21.2,20.6-21.2,50.1s21.7,58.2,24.7,62.2c3,4,41.9,66.7,103.5,90.8,61.6,24.1,61.6,16,72.7,15,11.1-1,35.9-14.5,40.9-28.6,5.1-14,5.1-26.1,3.6-28.6h0ZM747.9,365.4"/>
    </g>
  </g>
</svg>