<?xml version="1.0" encoding="UTF-8"?>
<svg id="Layer_2" data-name="Layer 2" xmlns="http://www.w3.org/2000/svg" viewBox="0 0 100 100">
  <defs>
    <style>
      .cls-1 {
        fill: none;
      }

      .cls-2 {
        fill: #e54b2c;
        stroke: #e54b2c;
        stroke-miterlimit: 10;
        stroke-width: .5px;
      }
    </style>
  </defs>
  <g id="Layer_1-2" data-name="Layer 1">
    <rect class="cls-1" width="100" height="100"/>
    <g>
      <g>
        <g>
          <path class="cls-2" d="M41.07,48.3h-24.73c-.76,0-1.37-.61-1.37-1.37v-6.88c0-4.09,3.33-7.42,7.42-7.42h12.64c4.09,0,7.42,3.33,7.42,7.42v6.88c0,.76-.61,1.37-1.37,1.37ZM17.7,45.56h21.99v-5.51c0-2.58-2.1-4.68-4.68-4.68h-12.64c-2.58,0-4.68,2.1-4.68,4.68v5.51Z"/>
          <path class="cls-2" d="M28.7,35.37c-5.65,0-10.25-4.58-10.25-10.2s4.6-10.2,10.25-10.2,10.25,4.58,10.25,10.2-4.6,10.2-10.25,10.2ZM28.7,17.7c-4.14,0-7.51,3.35-7.51,7.46s3.37,7.46,7.51,7.46,7.51-3.35,7.51-7.46-3.37-7.46-7.51-7.46Z"/>
        </g>
        <path class="cls-2" d="M54.77,48.3c-.23,0-.45-.06-.66-.17-.37-.2-.63-.57-.69-.98l-.28-1.73h-2.77c-2.88,0-5.21-2.34-5.21-5.21v-20.02c0-2.88,2.34-5.21,5.21-5.21h20.91c2.87,0,5.21,2.34,5.21,5.21v20.02c0,2.88-2.34,5.21-5.21,5.21h-9.57l-6.4,2.77c-.17.08-.36.11-.54.11ZM50.37,17.7c-1.37,0-2.48,1.11-2.48,2.48v20.02c0,1.37,1.11,2.48,2.48,2.48h3.94c.67,0,1.24.49,1.35,1.15l.18,1.14,5.04-2.18c.17-.07.36-.11.54-.11h9.85c1.37,0,2.48-1.11,2.48-2.48v-20.02c0-1.37-1.11-2.48-2.48-2.48h-20.91Z"/>
      </g>
      <g>
        <path class="cls-2" d="M60.82,34.16c-.76,0-1.37-.61-1.37-1.37v-2.86c0-.76.61-1.37,1.37-1.37.64,0,1.23-.26,1.68-.72.44-.47.67-1.08.64-1.73-.06-1.21-1.06-2.17-2.26-2.2-1.17-.02-2.18.83-2.34,2-.01.11-.02.22-.02.33,0,.76-.61,1.37-1.37,1.37s-1.37-.61-1.37-1.37c0-.23.02-.47.05-.7.35-2.54,2.55-4.4,5.11-4.36,2.63.05,4.81,2.16,4.94,4.79.07,1.4-.42,2.74-1.38,3.75-.63.66-1.43,1.14-2.29,1.38v1.68c0,.76-.61,1.37-1.37,1.37Z"/>
        <path class="cls-2" d="M60.82,39.11c-.09,0-.18,0-.27-.03-.09-.02-.17-.04-.26-.08-.08-.03-.16-.08-.24-.13-.08-.05-.14-.11-.21-.17-.26-.25-.4-.61-.4-.97,0-.09,0-.18.03-.27.02-.09.04-.17.08-.26.03-.08.08-.16.13-.24.05-.08.11-.15.17-.21.06-.06.13-.12.21-.17.07-.05.15-.09.24-.13.08-.03.17-.06.26-.08.18-.04.36-.04.54,0,.09.02.17.04.26.08.08.03.16.08.24.13.08.05.15.11.21.17s.12.13.17.21c.05.07.09.15.13.24.03.08.06.17.08.26.02.09.03.18.03.27,0,.36-.15.71-.4.97-.25.25-.61.4-.97.4Z"/>
      </g>
      <g>
        <g>
          <path class="cls-2" d="M83.66,85.03h-24.73c-.76,0-1.37-.61-1.37-1.37v-5.51c0-4.09,3.33-7.42,7.42-7.42h12.64c4.09,0,7.42,3.33,7.42,7.42v5.51c0,.76-.61,1.37-1.37,1.37ZM60.3,82.3h21.99v-4.14c0-2.58-2.1-4.68-4.68-4.68h-12.64c-2.58,0-4.68,2.1-4.68,4.68v4.14Z"/>
          <path class="cls-2" d="M71.3,73.47c-5.65,0-10.25-4.58-10.25-10.2s4.6-10.2,10.25-10.2,10.25,4.58,10.25,10.2-4.6,10.2-10.25,10.2ZM71.3,55.81c-4.14,0-7.51,3.35-7.51,7.46s3.37,7.46,7.51,7.46,7.51-3.35,7.51-7.46-3.37-7.46-7.51-7.46Z"/>
        </g>
        <path class="cls-2" d="M45.23,81.76c-.26,0-.51-.07-.74-.22l-6.32-4.03h-18c-2.88,0-5.21-2.34-5.21-5.21v-14.01c0-2.88,2.34-5.21,5.21-5.21h29.45c2.88,0,5.21,2.34,5.21,5.21v14.01c0,2.88-2.34,5.21-5.21,5.21h-2.71l-.33,3.03c-.05.47-.34.88-.77,1.09-.19.09-.39.13-.59.13ZM20.18,55.81c-1.37,0-2.48,1.11-2.48,2.48v14.01c0,1.37,1.11,2.48,2.48,2.48h18.4c.26,0,.52.07.74.22l4.8,3.06.22-2.06c.08-.69.66-1.22,1.36-1.22h3.94c1.37,0,2.48-1.11,2.48-2.48v-14.01c0-1.37-1.11-2.48-2.48-2.48h-29.45Z"/>
      </g>
      <g>
        <g>
          <path class="cls-2" d="M32.41,63.21h-6.88c-.76,0-1.37-.61-1.37-1.37s.61-1.37,1.37-1.37h6.88c.76,0,1.37.61,1.37,1.37s-.61,1.37-1.37,1.37Z"/>
          <path class="cls-2" d="M44.28,63.21c-.09,0-.18,0-.27-.03-.09-.02-.17-.04-.26-.08-.08-.03-.16-.08-.24-.13-.08-.05-.15-.11-.21-.17-.25-.25-.4-.61-.4-.97,0-.09,0-.18.03-.27.02-.09.04-.17.08-.26.03-.08.08-.16.13-.24.05-.08.11-.14.17-.21.06-.06.13-.12.21-.17.07-.05.15-.09.24-.13.08-.03.17-.06.26-.08.44-.09.92.06,1.23.37.06.06.12.13.17.21.05.07.09.15.13.24.03.08.06.17.08.26.02.09.03.18.03.27,0,.36-.15.71-.4.97-.06.06-.13.12-.21.17-.07.05-.15.09-.24.13-.08.03-.17.06-.26.08-.09.02-.18.03-.27.03Z"/>
          <path class="cls-2" d="M38.58,63.21c-.09,0-.18,0-.27-.03-.09-.02-.17-.04-.26-.08-.08-.03-.16-.08-.24-.13-.08-.05-.14-.11-.21-.17-.06-.06-.12-.13-.17-.21-.05-.08-.09-.15-.13-.24s-.06-.17-.08-.26-.03-.18-.03-.27c0-.36.15-.71.4-.97.06-.06.13-.12.21-.17.07-.05.15-.09.24-.13.08-.03.17-.06.26-.08.18-.04.36-.04.53,0,.09.02.17.04.26.08.08.03.16.08.24.13.08.05.15.11.21.17.25.26.4.61.4.97,0,.09,0,.18-.03.27s-.04.17-.08.26-.08.16-.13.24c-.05.08-.11.14-.17.21s-.13.12-.21.17c-.07.05-.15.09-.24.13-.08.03-.17.06-.26.08-.09.02-.18.03-.27.03Z"/>
        </g>
        <g>
          <path class="cls-2" d="M44.28,69.64h-12.35c-.76,0-1.37-.61-1.37-1.37s.61-1.37,1.37-1.37h12.35c.76,0,1.37.61,1.37,1.37s-.61,1.37-1.37,1.37Z"/>
          <path class="cls-2" d="M27.28,69.64h-1.75c-.76,0-1.37-.61-1.37-1.37s.61-1.37,1.37-1.37h1.75c.76,0,1.37.61,1.37,1.37s-.61,1.37-1.37,1.37Z"/>
        </g>
      </g>
    </g>
  </g>
</svg>