<?xml version="1.0" encoding="UTF-8"?>
<svg id="Layer_2" data-name="Layer 2" xmlns="http://www.w3.org/2000/svg" viewBox="0 0 100 100">
  <defs>
    <style>
      .cls-1 {
        fill: none;
      }

      .cls-2 {
        fill: #e54b2c;
      }
    </style>
  </defs>
  <g id="Layer_1-2" data-name="Layer 1">
    <rect class="cls-1" width="100" height="100"/>
    <g id="Camada_1-2" data-name="Camada 1-2">
      <g>
        <path class="cls-2" d="M44.76,43.75c3.19,0,5.77-2.59,5.77-5.77s-2.59-5.77-5.77-5.77-5.77,2.59-5.77,5.77,2.59,5.77,5.77,5.77ZM44.76,35c1.64,0,2.98,1.34,2.98,2.98s-1.34,2.98-2.98,2.98-2.98-1.34-2.98-2.98,1.34-2.98,2.98-2.98Z"/>
        <path class="cls-2" d="M86.79,54.39l-2.4-2.4c-1.62-1.62-4.24-1.62-5.86,0l-2.52,2.52v-26.31c0-3.94-3.21-7.16-7.16-7.16H29.42c-3.94,0-7.16,3.21-7.16,7.16v39.42c0,3.94,3.21,7.16,7.16,7.16h27.08c-.03.07-.07.14-.09.22l-2.53,6.57c-.37.96-.2,2.08.53,2.81s1.76.94,2.71.58l6.67-2.57c.95-.36,1.81-.92,2.52-1.64l20.49-20.49c1.62-1.62,1.62-4.24,0-5.86h0ZM25.06,28.2c0-2.41,1.96-4.36,4.36-4.36h39.42c2.41,0,4.36,1.96,4.36,4.36v22.17l-7.05-7.05c-2.1-2.1-5.53-2.1-7.63,0l-14.52,14.52-4.52-4.52c-1.24-1.24-2.87-1.91-4.62-1.91s-3.38.68-4.62,1.91l-5.2,5.2v-30.33h.01ZM29.42,71.98c-2.41,0-4.36-1.96-4.36-4.36v-5.13l7.18-7.18c.7-.7,1.64-1.09,2.64-1.09s1.93.39,2.64,1.09l4.52,4.52,12.16,12.16h-24.77ZM45.97,59.82l14.52-14.52c.49-.49,1.14-.76,1.83-.76s1.34.27,1.83.76l9.03,9.03v2.98l-14.67,14.67h-.4l-12.16-12.16ZM57.23,73.44s-.06.07-.08.11c.02-.04.05-.07.08-.11ZM56.65,82.11l2.03-5.27,3.24,3.24-5.27,2.03ZM64.43,78.64l-4.31-4.31,16.99-16.99,4.31,4.31-16.99,16.99ZM84.8,58.27l-1.4,1.4-4.31-4.31,1.4-1.4c.53-.53,1.38-.53,1.9,0l2.4,2.4c.53.53.53,1.38,0,1.9h0Z"/>
      </g>
    </g>
  </g>
</svg>