<?xml version="1.0" encoding="UTF-8"?>
<svg id="Layer_2" data-name="Layer 2" xmlns="http://www.w3.org/2000/svg" viewBox="0 0 100 100">
  <defs>
    <style>
      .cls-1 {
        fill: none;
      }

      .cls-2 {
        fill: #e54b2c;
        stroke: #e54b2c;
        stroke-miterlimit: 10;
        stroke-width: .5px;
      }
    </style>
  </defs>
  <g id="Layer_1-2" data-name="Layer 1">
    <rect class="cls-1" width="100" height="100"/>
    <g id="g1381">
      <g id="g1387">
        <g id="path1389">
          <path class="cls-2" d="M61.36,53.01c-4.6,0-9.09-1.34-12.64-3.77-3.55-2.43-6.01-5.83-6.91-9.58-.04-.17-.04-.35,0-.52.91-3.74,3.36-7.15,6.91-9.58,3.55-2.43,8.04-3.77,12.64-3.77s9.09,1.34,12.64,3.77c3.55,2.43,6,5.83,6.91,9.58.04.17.04.35,0,.52-.91,3.74-3.36,7.15-6.91,9.58-3.55,2.43-8.04,3.77-12.64,3.77ZM44.02,39.4c1.76,6.62,9,11.4,17.34,11.4s15.58-4.78,17.34-11.4c-1.76-6.62-9-11.4-17.34-11.4s-15.58,4.78-17.34,11.4Z"/>
        </g>
      </g>
      <g id="g1391">
        <g id="path1393">
          <path class="cls-2" d="M78.26,36.69c-.29,0-.58-.11-.8-.34-.42-.44-.41-1.14.03-1.56l3.09-2.98c.44-.42,1.14-.41,1.56.03.42.44.41,1.14-.03,1.56l-3.09,2.98c-.21.21-.49.31-.77.31ZM44.45,36.69c-.28,0-.55-.1-.77-.31l-3.09-2.98c-.44-.42-.45-1.12-.03-1.56.42-.44,1.12-.45,1.56-.03l3.09,2.98c.44.42.45,1.12.03,1.56-.22.22-.51.34-.8.34ZM48.02,32.58c-.36,0-.71-.18-.93-.5l-2.3-3.53c-.33-.51-.19-1.2.32-1.53.51-.33,1.2-.19,1.53.32l2.3,3.53c.33.51.19,1.2-.32,1.53-.19.12-.4.18-.6.18ZM74.69,32.58c-.21,0-.42-.06-.6-.18-.51-.33-.66-1.02-.32-1.53l2.3-3.53c.33-.51,1.02-.66,1.53-.32.51.33.66,1.02.32,1.53l-2.3,3.53c-.21.33-.57.5-.93.5ZM69.82,29.66c-.13,0-.25-.02-.38-.07-.57-.21-.87-.84-.66-1.42l1.42-3.91c.21-.57.84-.87,1.42-.66.57.21.87.84.66,1.42l-1.42,3.91c-.16.45-.59.73-1.04.73ZM52.89,29.66c-.45,0-.88-.28-1.04-.73l-1.42-3.91c-.21-.57.09-1.21.66-1.42.57-.21,1.21.09,1.42.66l1.42,3.91c.21.57-.09,1.21-.66,1.42-.12.05-.25.07-.38.07ZM64.33,28.2s-.09,0-.13,0c-.61-.07-1.04-.62-.97-1.23l.5-4.14c.07-.61.62-1.04,1.23-.97.61.07,1.04.62.97,1.23l-.5,4.14c-.07.56-.54.97-1.1.97ZM58.38,28.2c-.55,0-1.03-.41-1.1-.97l-.5-4.14c-.07-.61.36-1.16.97-1.23.61-.07,1.16.36,1.23.97l.5,4.14c.07.61-.36,1.16-.97,1.23-.04,0-.09,0-.13,0Z"/>
        </g>
      </g>
      <g id="g1395">
        <g id="path1397">
          <path class="cls-2" d="M61.36,48.45c-3.93,0-7.39-2.51-8.61-6.24-.19-.58.13-1.21.71-1.4.58-.19,1.21.13,1.4.71.92,2.82,3.54,4.71,6.51,4.71,3.77,0,6.84-3.07,6.84-6.84s-3.07-6.84-6.84-6.84c-2.97,0-5.58,1.89-6.51,4.71-.19.58-.82.9-1.4.71-.58-.19-.9-.81-.71-1.4,1.22-3.73,4.68-6.24,8.61-6.24,4.99,0,9.06,4.06,9.06,9.06s-4.06,9.06-9.06,9.06Z"/>
        </g>
      </g>
      <g id="g1399">
        <g id="path1401">
          <path class="cls-2" d="M61.36,43.48c-2.25,0-4.08-1.83-4.08-4.08s1.83-4.08,4.08-4.08,4.08,1.83,4.08,4.08-1.83,4.08-4.08,4.08ZM61.36,37.53c-1.03,0-1.87.84-1.87,1.87s.84,1.87,1.87,1.87,1.87-.84,1.87-1.87-.84-1.87-1.87-1.87Z"/>
        </g>
      </g>
      <g id="g1403">
        <g id="path1405">
          <path class="cls-2" d="M61.36,63.9c-7.07,0-13.72-2.75-18.72-7.75-5-5-7.75-11.64-7.75-18.72s2.75-13.72,7.75-18.72c5-5,11.65-7.75,18.72-7.75s13.72,2.75,18.72,7.75c4.32,4.32,7.02,10.04,7.62,16.11.06.61-.38,1.15-.99,1.21-.61.06-1.15-.38-1.21-.99-.55-5.56-3.03-10.8-6.99-14.76-4.58-4.58-10.67-7.11-17.15-7.11s-12.57,2.52-17.15,7.11c-4.58,4.58-7.11,10.67-7.11,17.15s2.52,12.57,7.11,17.15c4.58,4.58,10.67,7.11,17.15,7.11s12.57-2.52,17.15-7.11c3.96-3.96,6.44-9.2,6.99-14.76.06-.61.6-1.05,1.21-.99.61.06,1.05.6.99,1.21-.6,6.07-3.31,11.79-7.62,16.1-5,5-11.65,7.75-18.72,7.75Z"/>
        </g>
      </g>
      <g id="g1407">
        <g id="path1409">
          <path class="cls-2" d="M37.76,66.55h0c-.29,0-.57-.12-.78-.32l-4.42-4.42c-.43-.43-.43-1.13,0-1.56l7.87-7.87c.43-.43,1.13-.43,1.56,0l4.42,4.42c.21.21.32.49.32.78,0,.29-.12.57-.32.78l-7.87,7.87c-.21.21-.49.32-.78.32ZM34.91,61.02l2.86,2.86,6.31-6.31-2.86-2.86-6.3,6.31Z"/>
        </g>
      </g>
      <g id="g1411">
        <g id="path1413">
          <path class="cls-2" d="M20.43,86.49c-.95,0-1.9-.36-2.62-1.09l-4.42-4.42c-1.45-1.45-1.45-3.8,0-5.25l15.49-15.49c.7-.7,1.63-1.09,2.62-1.09h0c.99,0,1.93.39,2.63,1.09l4.42,4.42h0c1.45,1.45,1.45,3.8,0,5.25l-15.49,15.49c-.72.72-1.67,1.09-2.62,1.09ZM31.5,61.37h0c-.4,0-.78.16-1.06.44l-15.49,15.49c-.59.59-.59,1.54,0,2.12l4.42,4.42c.58.58,1.54.58,2.12,0l15.49-15.49c.58-.58.58-1.54,0-2.12l-4.42-4.42c-.28-.28-.66-.44-1.06-.44Z"/>
        </g>
      </g>
      <g id="g1415">
        <g id="path1417">
          <path class="cls-2" d="M26.88,81.12c-.28,0-.57-.11-.78-.32l-8.1-8.11c-.43-.43-.43-1.13,0-1.56.43-.43,1.13-.43,1.56,0l8.1,8.11c.43.43.43,1.13,0,1.56-.22.22-.5.32-.78.32ZM33.15,74.84c-.28,0-.57-.11-.78-.32l-8.11-8.1c-.43-.43-.43-1.13,0-1.56.43-.43,1.13-.43,1.56,0l8.11,8.1c.43.43.43,1.13,0,1.56-.22.22-.5.32-.78.32Z"/>
        </g>
      </g>
    </g>
  </g>
</svg>