<?xml version="1.0" encoding="utf-8"?>
<!-- Generator: Adobe Illustrator 27.8.1, SVG Export Plug-In . SVG Version: 6.00 Build 0)  -->
<svg version="1.1" id="thinking" xmlns="http://www.w3.org/2000/svg" xmlns:xlink="http://www.w3.org/1999/xlink" x="0px" y="0px"
	 viewBox="0 0 32 32" style="enable-background:new 0 0 32 32;" xml:space="preserve">
<style type="text/css">
	.st0{fill:#FFFFFF;}
</style>
<g>
	<path class="st0" d="M14.1,23.7c-2.2,0-4.1-1.2-5-3.1c-4.9-0.2-8.7-4.2-8.7-9c0-5,4-9,9-9c1.3,0,2.7,0.3,3.9,0.9
		C15.3,1.2,18.1,0,21,0c5.8,0,10.6,4.8,10.6,10.6c0,5.8-4.8,10.6-10.6,10.6c-0.7,0-1.4-0.1-2.1-0.2C17.9,22.6,16.1,23.7,14.1,23.7z
		 M9.8,18.2c0.5,0,1.1,0.3,1.2,0.8c0.4,1.4,1.6,2.3,3.1,2.3c1.4,0,2.6-0.9,3-2.2c0.2-0.5,0.6-0.8,1.1-0.8c0.1,0,0.2,0,0.3,0.1
		c0.8,0.2,1.6,0.4,2.4,0.4c4.6,0,8.3-3.7,8.3-8.3S25.6,2.3,21,2.3c-2.6,0-5,1.2-6.6,3.2C14.3,5.8,13.9,6,13.5,6
		c-0.2,0-0.4-0.1-0.6-0.2c-1.1-0.7-2.3-1-3.5-1c-3.7,0-6.7,3-6.7,6.7s3,6.7,6.7,6.7C9.5,18.2,9.6,18.2,9.8,18.2
		C9.7,18.2,9.8,18.2,9.8,18.2L9.8,18.2z"/>
</g>
<g id="ball2">
	<path class="st0" d="M8.6,29.5c-1.5,0-2.8-1.2-2.8-2.8s1.2-2.8,2.8-2.8c1.5,0,2.8,1.2,2.8,2.8S10.2,29.5,8.6,29.5z M8.6,25.7
		c-0.5,0-1,0.4-1,1c0,0.5,0.4,1,1,1c0.5,0,1-0.4,1-1C9.6,26.2,9.2,25.7,8.6,25.7z"/>
</g>
<g id="ball1">
	<path class="st0" d="M3,32c-1.2,0-2.2-1-2.2-2.2c0-1.2,1-2.2,2.2-2.2c1.2,0,2.2,1,2.2,2.2C5.1,31,4.2,32,3,32z M3,29.5
		c-0.2,0-0.4,0.2-0.4,0.4c0,0.2,0.2,0.4,0.4,0.4c0.2,0,0.4-0.2,0.4-0.4C3.3,29.6,3.2,29.5,3,29.5z"/>
</g>
<g>
</g>
<g>
</g>
<g>
</g>
<g>
</g>
<g>
</g>
<g>
</g>
<g>
</g>
<g>
</g>
<g>
</g>
<g>
</g>
<g>
</g>
<g>
</g>
<g>
</g>
<g>
</g>
<g>
</g>
</svg>
