<?xml version="1.0" encoding="UTF-8"?>
<svg id="Layer_2" data-name="Layer 2" xmlns="http://www.w3.org/2000/svg" viewBox="0 0 100 100">
  <defs>
    <style>
      .cls-1 {
        fill: none;
      }

      .cls-2 {
        fill: #e54b2c;
        stroke: #e54b2c;
        stroke-miterlimit: 10;
        stroke-width: .5px;
      }
    </style>
  </defs>
  <g id="Layer_1-2" data-name="Layer 1">
    <rect class="cls-1" width="100" height="100"/>
    <g>
      <path class="cls-2" d="M82,29.32l-15.84,4.9c-15.53-4.69-15.84-5.11-16.47-4.9l-4.69,1.46c.83-1.98,1.36-3.86,1.36-5.32,0-6.88-5.63-12.51-12.51-12.51s-12.51,5.63-12.51,12.51c0,1.46.52,3.34,1.36,5.32l-4.69-1.46c-.31-.1-.63,0-.94.1-.31.31-.42.52-.42.83v43.36c0,.42.31.83.73.94l16.16,5.11h.63l15.84-5,15.84,5h.63l16.16-5c.42-.1.73-.52.73-.94V30.36c0-.31-.1-.63-.42-.83-.21-.21-.63-.31-.94-.21h0ZM65.12,58.09l-5.21,4.48c-.52-.31-1.25-.52-1.88-.52-.73,0-1.46.21-1.98.63l-5.11-4.17v-26.79l14.18,4.38v22ZM58.13,64.03c.83,0,1.56.73,1.56,1.56s-.73,1.56-1.56,1.56-1.56-.73-1.56-1.56.73-1.56,1.56-1.56ZM48.96,31.71v25.12l-3.86-3.13c.21-.42.31-.83.31-1.36,0-1.98-1.56-3.54-3.54-3.54s-3.54,1.56-3.54,3.54c0,.42.1.83.21,1.25l-3.75,2.81v-9.17c1.04-1.46,5.94-8.03,8.96-13.97l5.21-1.56ZM40.41,52.35c0-.83.73-1.56,1.56-1.56s1.56.73,1.56,1.56-.73,1.56-1.56,1.56-1.56-.73-1.56-1.56ZM33.84,14.93c5.84,0,10.53,4.69,10.53,10.53,0,4.59-6.98,15.01-10.53,19.81-3.54-4.8-10.53-15.22-10.53-19.81,0-5.73,4.69-10.53,10.53-10.53h0ZM18.62,31.71l5.11,1.56c3.02,6.05,7.92,12.51,8.96,13.97v10.74l-5,3.75c-.63-.42-1.25-.73-2.08-.73-1.98,0-3.54,1.56-3.54,3.54s1.56,3.54,3.54,3.54,3.54-1.56,3.54-3.54c0-.42-.1-.83-.21-1.25l3.75-2.81v16.78l-14.07-4.38V31.71ZM27.28,64.65c0,.83-.73,1.56-1.56,1.56s-1.56-.73-1.56-1.56.73-1.56,1.56-1.56,1.56.73,1.56,1.56ZM34.88,59.02l5-3.75c.63.42,1.25.73,2.08.73.73,0,1.46-.21,1.98-.63l5.11,4.17v13.45l-14.18,4.38v-18.35ZM51.04,61.11l3.86,3.13c-.21.42-.31.83-.31,1.36,0,1.98,1.56,3.54,3.54,3.54s3.54-1.56,3.54-3.54c0-.52-.1-1.04-.31-1.46l3.86-3.34v16.57l-14.18-4.48v-11.78ZM81.38,72.89l-14.18,4.38v-18.24l5.21-4.48c.52.31,1.25.52,1.88.52,1.98,0,3.54-1.56,3.54-3.54s-1.56-3.54-3.54-3.54-3.54,1.56-3.54,3.54c0,.52.1,1.04.31,1.46l-3.86,3.34v-20.22l14.18-4.38v41.18ZM72.72,51.52c0-.83.73-1.56,1.56-1.56s1.56.73,1.56,1.56-.73,1.56-1.56,1.56-1.56-.73-1.56-1.56Z"/>
      <path class="cls-2" d="M39.58,25.46c0-3.13-2.61-5.73-5.73-5.73s-5.73,2.61-5.73,5.73,2.61,5.73,5.73,5.73,5.73-2.5,5.73-5.73ZM33.84,29.21c-2.08,0-3.75-1.67-3.75-3.75s1.67-3.75,3.75-3.75,3.65,1.77,3.65,3.75c0,2.08-1.67,3.75-3.65,3.75Z"/>
    </g>
  </g>
</svg>