<?xml version="1.0" encoding="UTF-8"?>
<svg id="Camada_1" xmlns="http://www.w3.org/2000/svg" xmlns:xlink="http://www.w3.org/1999/xlink" version="1.1" viewBox="0 0 1280 720">
  <!-- Generator: Adobe Illustrator 29.7.1, SVG Export Plug-In . SVG Version: 2.1.1 Build 8)  -->
  <defs>
    <style>
      .st0, .st1, .st2, .st3, .st4 {
        fill-rule: evenodd;
      }

      .st0, .st5, .st2, .st3 {
        fill: #fff;
      }

      .st6 {
        fill: url(#Gradiente_sem_nome_14);
      }

      .st6, .st7, .st8, .st9 {
        opacity: .2;
      }

      .st2, .st10 {
        opacity: .3;
      }

      .st3 {
        opacity: .4;
      }

      .st11, .st4 {
        fill: #2b42b2;
      }

      .st7 {
        fill: url(#Gradiente_sem_nome_143);
      }

      .st8 {
        fill: url(#Gradiente_sem_nome_142);
      }

      .st9 {
        fill: url(#Gradiente_sem_nome_141);
      }
    </style>
    <radialGradient id="Gradiente_sem_nome_14" data-name="Gradiente sem nome 14" cx="-661.7" cy="360.6" fx="-661.7" fy="360.6" r="519.2" gradientUnits="userSpaceOnUse">
      <stop offset="0" stop-color="#fff"/>
      <stop offset="1" stop-color="#3a67fb"/>
    </radialGradient>
    <radialGradient id="Gradiente_sem_nome_141" data-name="Gradiente sem nome 14" cx="638.3" fx="638.3" xlink:href="#Gradiente_sem_nome_14"/>
    <radialGradient id="Gradiente_sem_nome_142" data-name="Gradiente sem nome 14" cx="1938.3" fx="1938.3" xlink:href="#Gradiente_sem_nome_14"/>
    <radialGradient id="Gradiente_sem_nome_143" data-name="Gradiente sem nome 14" cx="3238.3" fx="3238.3" xlink:href="#Gradiente_sem_nome_14"/>
  </defs>
  <rect class="st6" x="-1300.9" y="-.9" width="1278.3" height="723.1"/>
  <path class="st2" d="M-93.6,251.8l12.3-13-12-11.4-12.3,13,12,11.4ZM-142.2,259.3l19-20.1,5.8,5.5h0s25.9,24.6,25.9,24.6l-3.6,3.8h0s0,0,0,0l-65.7,69.3-31.6-30,16.5-17.4c.2-.2.4-.3.5-.6l32.8-34.5c.2-.2.4-.3.5-.6h0ZM-169,350.9l.2-.9-31.3-29.7-55.5,58.6,31.6,30,22.7-23.9c.2-.2.3-.4.5-.6l31.8-33.6h0ZM-511,401.8l-.2-.2h0c0,0,.2.2.2.2ZM-223.1,93.9l-2.7,15.2,64.4,11.4c4.6.8,8.5,3.4,11,7,2.5,3.6,3.6,8.1,2.8,12.7l-23.5,133.2,19.3-20.3,19.4-110.2c1.6-8.8-.6-17.4-5.4-24.3-4.8-6.8-12.1-11.8-20.9-13.4l-64.4-11.4ZM-258.8,62.2l34.5,6.1c3.1.5,5.1,3.4,4.6,6.5l-1.4,8,64.4,11.4c11.9,2.1,21.8,8.8,28.2,18,6.4,9.2,9.4,20.8,7.3,32.6l-16.5,93.5,10.3-10.9c2.1-2.2,5.7-2.3,7.9-.2l5.8,5.5,16.2-17.1c2.1-2.2,5.7-2.3,7.9-.2l20.1,19.1c2.2,2.1,2.3,5.7.2,7.9l-16.2,17.1,5.8,5.5c2.2,2.1,2.3,5.7.2,7.9l-3.6,3.8,4.3,4c3.4,3.2,5.2,7.6,5.3,11.9.1,4.4-1.4,8.8-4.7,12.2l-30.3,32c-2.1,2.2-5.7,2.3-7.9.2-2.2-2.1-2.3-5.7-.2-7.9l30-31.7c.1-.2.3-.3.4-.5,1-1.1,1.5-2.6,1.4-4,0-1.4-.6-2.8-1.7-4-.1-.1-.3-.3-.5-.4l-4-3.8-67.7,71.4-25.3,143.5c-2.1,11.9-8.8,21.8-18,28.2-9.2,6.4-20.8,9.4-32.6,7.3l-275.7-48.6c-11.9-2.1-21.8-8.8-28.2-18-6.4-9.2-9.4-20.8-7.3-32.6l62.6-354.8c2.1-11.9,8.8-21.8,18-28.2,9.2-6.4,20.8-9.4,32.6-7.3l64.4,11.4,1.4-8c.5-3.1,3.4-5.1,6.5-4.6l34.5,6.1c2.5-6.9,7.1-12.6,12.8-16.6,7.2-5,16.3-7.2,25.6-5.6s17,6.8,22.1,14c4,5.7,6.4,12.7,6.4,20h0ZM-231.7,78.4l-34-6c-3.1-.5-5.1-3.4-4.6-6.5s0-.2,0-.4c.9-6.1-.7-12.1-4.1-16.8-3.4-4.8-8.7-8.3-14.9-9.4s-12.4.4-17.3,3.8c-4.9,3.4-8.5,8.6-9.6,14.8-.6,3-3.5,5-6.5,4.5h0s-34-6-34-6l-7.5,42.3,124.8,22,7.5-42.3ZM-474,444.3l5.9-33.3-27.5-4.8,21.6,38.1ZM-511.2,401.4c0,0,0-.1-.1-.2h0c0-.1,0-.1,0-.1-.1-.2-.2-.5-.3-.7h0c0-.2,0-.3,0-.3h0c0,0,0-.1,0-.1h0c0-.1,0-.1,0-.1h0c0,0,0-.1,0-.1v-.2c0,0,0,0,0,0h0s0-.1,0-.1h0c0,0,0-.2,0-.2h0s0-.2,0-.2h0s0-.1,0-.1h0s0-.2,0-.2h0s0-.2,0-.2h0s0-.2,0-.2h0s0-.1,0-.1h0c0-.2,0-.3,0-.4h0s0-.1,0-.1l55-311.9c.8-4.6,3.4-8.5,7-11,3.6-2.5,8.1-3.6,12.7-2.8l64.4,11.4,2.7-15.2-64.4-11.4c-8.8-1.6-17.4.6-24.3,5.4-6.8,4.8-11.8,12.1-13.4,20.9l-62.6,354.8c-1.6,8.8.6,17.4,5.4,24.3,4.8,6.8,12.1,11.8,20.9,13.4l275.8,48.6c8.8,1.6,17.4-.6,24.3-5.4,6.8-4.8,11.8-12.1,13.4-20.9l22.4-126.8-19.3,20.3-18.3,103.8c-.8,4.6-3.4,8.5-7,11-3.6,2.5-8.1,3.6-12.7,2.8l-242.4-42.8c-1.9-.3-3.4-1.6-4.1-3.2l-34.9-61.5h0ZM-301.3,162.1l-18.5-3.3-4,23c-.5,3.1-3.4,5.1-6.5,4.6l-23-4-3.3,18.5,23,4c3.1.5,5.1,3.4,4.6,6.5l-4,23,18.5,3.3,4-23c.5-3.1,3.4-5.1,6.5-4.6l23,4,3.3-18.5-23-4c-3.1-.5-5.1-3.4-4.6-6.5l4-23ZM-323.4,146.8c-3.1-.5-6,1.5-6.5,4.6l-4,23-23-4c-3.1-.5-6,1.5-6.5,4.6l-5.2,29.5c-.5,3.1,1.5,6,4.6,6.5l23,4-4,23c-.5,3.1,1.5,6,4.6,6.5l29.5,5.2c3.1.5,6-1.5,6.5-4.6l4-23,23,4c3.1.5,6-1.5,6.5-4.6l5.2-29.5c.5-3.1-1.5-6-4.6-6.5l-23-4,4-23c.5-3.1-1.5-6-4.6-6.5l-29.5-5.2ZM-439.1,270.6h0c3.1.5,6-1.5,6.5-4.5s-1.5-6-4.6-6.5h0c-3.1-.5-6,1.5-6.5,4.5s1.5,6,4.6,6.5ZM-411.5,275.5l171.4,30.2c3.1.5,6-1.5,6.5-4.6s-1.5-6-4.6-6.5l-171.4-30.2c-3.1-.5-6,1.5-6.5,4.6s1.5,6,4.6,6.5ZM-446,310.2h0c3.1.5,6-1.5,6.5-4.5s-1.5-6-4.6-6.5h0c-3.1-.5-6,1.5-6.5,4.5s1.5,6,4.6,6.5ZM-418.5,315.1c-3.1-.5-5.1-3.4-4.6-6.5.5-3.1,3.4-5.1,6.5-4.6l171.4,30.2c3.1.5,5.1,3.4,4.6,6.5s-3.4,5.1-6.5,4.6l-171.4-30.2ZM-453,349.7h0c3.1.5,6-1.5,6.5-4.5s-1.5-6-4.6-6.5h0c-3.1-.5-6,1.5-6.5,4.5s1.5,6,4.6,6.5ZM-460,389.3h0c3.1.5,6-1.5,6.5-4.5s-1.5-6-4.6-6.5h0c-3.1-.5-6,1.5-6.5,4.5s1.5,6,4.6,6.5ZM-267.8,417.7l7.3-27.9,26,24.7-35.3,11.2,1.9-7.5c0-.1,0-.3.1-.5h0ZM-432.4,394.2c-3.1-.5-5.1-3.4-4.6-6.5s3.4-5.1,6.5-4.6l153.1,27,7.3-28.1-155.3-27.4c-3.1-.5-5.1-3.4-4.6-6.5.5-3.1,3.4-5.1,6.5-4.6l159.3,28.1,59.7-63h0s0,0,0,0l19.4-20.4,26.4-149.9c.3-1.6-.1-3.1-1-4.3-.9-1.2-2.2-2.1-3.7-2.4l-64.4-11.4-1.4,8c-.5,3.1-3.4,5.1-6.5,4.6l-135.9-24c-3.1-.5-5.1-3.4-4.6-6.5l1.4-8-64.4-11.4c-1.6-.3-3.1.1-4.3,1-1.2.9-2.1,2.2-2.4,3.7l-54,306.4,39.1,6.9c3.1.5,5.1,3.4,4.6,6.5l-8.6,48.6,236.8,41.8c1.6.3,3.1-.1,4.3-1,1.2-.9,2.1-2.2,2.4-3.7l15.4-87.1-14,14.7c-.8.8-1.7,1.3-2.7,1.6l-53.3,16.9c-1.1.4-2.3.6-3.5.2-3-.8-4.8-3.8-4-6.8l3-11.6-152.2-26.8h0Z"/>
  <path d="M786.8-104c.8,0,1.5.7,1.5,1.5s-.7,1.5-1.5,1.5h-20c-.8,0-1.5-.7-1.5-1.5s.7-1.5,1.5-1.5h20ZM762.8-126c-.8,0-1.5.7-1.5,1.5s.7,1.5,1.5,1.5,1.5-.7,1.5-1.5-.7-1.5-1.5-1.5ZM762.8-111.3c-.8,0-1.5.7-1.5,1.5s.7,1.5,1.5,1.5,1.5-.7,1.5-1.5-.7-1.5-1.5-1.5ZM762.8-104c-.8,0-1.5.7-1.5,1.5s.7,1.5,1.5,1.5,1.5-.7,1.5-1.5-.7-1.5-1.5-1.5ZM762.8-118.7c-.8,0-1.5.7-1.5,1.5s.7,1.5,1.5,1.5,1.5-.7,1.5-1.5-.7-1.5-1.5-1.5ZM795.3-101c.8,0,1.5-.7,1.5-1.5s-.7-1.5-1.5-1.5-1.5.7-1.5,1.5.6,1.5,1.5,1.5ZM789.8-102.5c0,.8.7,1.5,1.5,1.5s1.5-.7,1.5-1.5-.7-1.5-1.5-1.5-1.5.7-1.5,1.5ZM800.6-101.8c-.8-.5-1.6-1.2-2.3-1.8-.3.3-.6.7-.6,1.2,0,.8.7,1.5,1.5,1.5.7,0,1.2-.4,1.4-.9ZM766.8-111.3c-.8,0-1.5.7-1.5,1.5s.7,1.5,1.5,1.5h27.9c-.5-1-1-2-1.3-3h-26.6ZM766.8-115.7h25.6c0-.6,0-1.3,0-1.9s0-.7,0-1.1h-25.6c-.8,0-1.5.7-1.5,1.5s.6,1.5,1.5,1.5ZM766.8-123h26.2c.3-1,.7-2,1.2-3h-27.4c-.8,0-1.5.7-1.5,1.5s.6,1.5,1.5,1.5ZM809.5-98.7c-.8,2.7-3.3,4.7-6.2,4.7h-44c-3.6,0-6.5-2.9-6.5-6.5v-64c0-3.6,2.9-6.5,6.5-6.5h44c3.6,0,6.5,2.9,6.5,6.5v28c.5,0,1,0,1.5,0s1,0,1.5,0v-28c0-5.2-4.3-9.5-9.5-9.5h-44c-5.2,0-9.5,4.3-9.5,9.5v64c0,5.2,4.3,9.5,9.5,9.5h44c4.6,0,8.5-3.3,9.3-7.6-.4,0-.9,0-1.3,0-.6,0-1.2,0-1.8-.2ZM827.8-117.6c0,9.1-7.4,16.5-16.5,16.5s-16.5-7.4-16.5-16.5,7.4-16.5,16.5-16.5,16.5,7.4,16.5,16.5ZM824.8-117.6c0-7.4-6.1-13.5-13.5-13.5s-13.5,6.1-13.5,13.5,6.1,13.5,13.5,13.5,13.5-6,13.5-13.5ZM809.8-113.9h3v-12h-3v12ZM809.8-109.2h3v-3h-3v3ZM782.9-164.3c.2,1,1,1.8,2,2,2,.4,3.7-1.3,3.3-3.3s-1-1.8-2-2c-2-.4-3.8,1.3-3.3,3.3ZM795.5-136.9c0-1-.9-1.7-1.9-1.9-1.5-.2-2.8,1.1-2.6,2.6,0,1,.9,1.7,1.9,1.9,1.5.2,2.9-1.1,2.6-2.6ZM781.3-151.9c-1.9,0-3.4,1.5-3.4,3.4s1.5,3.4,3.4,3.4,3.4-1.5,3.4-3.4-1.5-3.4-3.4-3.4ZM797.5-139.2c1.1-1.9-.2-5.1-3.1-8.3-1.3,1.3-2.9,2.7-4.6,3.9-.2,2.1-.6,4.1-1.1,5.9.5,0,1,.2,1.5.3,0,.3,0,.6,0,.9v.5c-.6,0-1.2-.2-1.8-.3-1.6,4.8-4.1,7.9-7,7.9s-5.4-3.1-7-7.9c-.6,0-1.3.2-1.9.3-.8,0-1.6.2-2.3.2-3,0-5.1-.9-6.1-2.6-.5-.9-.7-2.1-.5-3.3.4.3.8.4,1.3.5-.1.8,0,1.6.3,2.2.9,1.6,3.5,2.2,7.1,1.8.5,0,1.1-.2,1.6-.3-.4-2-.8-4-1-6.1-1.7-1.2-3.2-2.6-4.6-3.9-.4.4-.7.9-1.1,1.3q-.1,0-.2.2c-.3-.3-.6-.5-.9-.6,0,0-.1-.2-.1-.3.4-.5.8-1,1.3-1.6-.4-.5-.8-1-1.2-1.5-2.6-3.4-3.3-6.4-2.1-8.5,1.2-2.1,4.2-3,8.4-2.5.6.1,1.2.2,1.9.3,1.6-4.8,4.1-7.9,7-7.9s1.5.2,2.1.6c-.4.3-.7.6-1,1-.4-.2-.8-.2-1.2-.2-2.2,0-4.3,2.7-5.7,6.8,1.8.5,3.7,1.1,5.7,2,1.9-.9,3.8-1.5,5.7-2,0-.4-.3-.8-.4-1.1.4-.1.9-.4,1.2-.6.2.5.4.9.5,1.5.6-.1,1.3-.2,1.9-.3,4.2-.5,7.2.3,8.4,2.5,1.2,2.1.5,5.2-2.1,8.5-.4.5-.8,1-1.2,1.5,3.4,3.8,4.8,7.5,3.3,10-.5.8-1.2,1.5-2.2,1.9,0-.5,0-.9-.3-1.4.8-.4,1.3-.8,1.6-1.3ZM783-157.5c.9.4,1.8.9,2.7,1.5.9.5,1.8,1.1,2.6,1.6-.2-1.6-.5-3.2-.9-4.6-1.4.3-2.9.8-4.4,1.5ZM774.3-154.5c.8-.6,1.7-1.1,2.6-1.6.9-.5,1.8-1,2.7-1.5-1.5-.6-3-1.1-4.4-1.5-.3,1.5-.6,3-.9,4.6ZM772.6-148.5c0-1.1,0-2.1,0-3.1-1.3,1-2.5,2-3.5,3.1,1,1.1,2.2,2.1,3.5,3.1,0-1,0-2,0-3.1ZM773.9-159.3c-.6-.1-1.1-.2-1.6-.3-.8-.1-1.5-.1-2.1-.1-2.5,0-4.2.7-5,1.9-.9,1.6-.2,4.2,2,7,.3.4.7.9,1.1,1.3,1.3-1.3,2.9-2.7,4.6-3.9,0-2.1.5-4.1,1-5.9ZM775.3-138c1.4-.4,2.9-.9,4.4-1.5-.9-.4-1.8-.9-2.7-1.5-.9-.5-1.8-1.1-2.6-1.6.2,1.7.5,3.2.9,4.6ZM787-136.7c-1.8-.5-3.7-1.1-5.7-2-1.9.9-3.8,1.5-5.7,2,1.4,4.1,3.4,6.8,5.7,6.8s4.3-2.6,5.7-6.8ZM788.3-142.5c-.8.6-1.7,1.1-2.6,1.6-.9.5-1.8,1-2.7,1.5,1.5.6,3,1.1,4.4,1.5.4-1.5.7-3,.9-4.6ZM788.7-148.5c0-1.4,0-2.8-.2-4.2-1.1-.8-2.3-1.5-3.5-2.3-1.2-.7-2.5-1.3-3.7-1.9-1.2.6-2.5,1.2-3.7,1.9-1.2.7-2.4,1.5-3.5,2.2,0,1.3-.2,2.7-.2,4.2s0,2.8.2,4.2c1.1.8,2.3,1.5,3.5,2.2s2.5,1.3,3.7,1.9c1.2-.6,2.5-1.2,3.7-1.9s2.4-1.5,3.5-2.2c.2-1.3.2-2.7.2-4.1ZM793.5-148.5c-1-1-2.2-2.1-3.5-3.1,0,1,0,2,0,3.1s0,2.1,0,3.1c1.3-1,2.5-2,3.5-3.1ZM794.4-149.5c.4-.4.7-.9,1.1-1.3,2.2-2.9,2.9-5.4,2-7-.7-1.3-2.5-1.9-5-1.9s-1.4,0-2.1.1c-.5.1-1.1.2-1.6.3.5,1.8.9,3.8,1.1,5.9,1.7,1.3,3.2,2.6,4.5,3.9ZM764.8-142.3c1.2.2,2.3-.9,2.1-2.1-.1-.8-.7-1.4-1.5-1.5-1.2-.2-2.3.9-2.1,2.1.1.8.7,1.4,1.5,1.5Z"/>
  <g>
    <path d="M827.8-421.2c0-1.1-.7-2.1-1.6-2.6-.4-.3-.9-.4-1.4-.4h-46.4c-1.6,0-3,1.3-3,3v28c-6.5,0-11.4,2.5-11.4,5.6v21.8c0,3.2,5.1,5.6,11.9,5.6s11.9-2.4,11.9-5.6v-6.1h36.9c1.6,0,3-1.3,3-3v-41.1h0v-5.2h0ZM824.8-422.2c.2,0,.3,0,.5,0,.3.2.5.5.5.9v4.2h-48.3v-4.2c0-.5.4-1,1-1h46.3ZM785.9-380.3c0,1.5-3.8,3.6-9.9,3.6s-9.9-2.1-9.9-3.6v-4c2.1,1.5,5.7,2.4,9.9,2.4s7.8-.9,9.9-2.4v4ZM766-377.2c2.1,1.5,5.7,2.4,9.9,2.4s7.8-.9,9.9-2.4v4.6h0c0,1.5-3.8,3.6-9.9,3.6s-9.9-2.1-9.9-3.6c0,0,0-4.6,0-4.6ZM787.9-387.6c0-3-4.4-5.2-10.4-5.6v-21.8h23.2v41.1h-12.8v-13.7ZM775.9-391.2c6.1,0,9.9,2.1,9.9,3.6h0c0,1.5-3.8,3.6-9.9,3.6s-9.9-2.1-9.9-3.6c0-1.5,3.8-3.6,9.9-3.6ZM775.9-362.2c-6.1,0-9.9-2.1-9.9-3.6v-3.5c2.1,1.5,5.7,2.4,9.9,2.4s7.8-.9,9.9-2.4v3.5c.1,1.5-3.7,3.6-9.9,3.6ZM824.8-373.9h-22.2v-41.1h23.2v40.1c0,.6-.5,1-1,1Z"/>
    <path d="M799.5-418.6h22.7c.6,0,1-.4,1-1s-.4-1-1-1h-22.7c-.6,0-1,.4-1,1s.5,1,1,1Z"/>
    <path d="M781.1-418.6h1.2c.6,0,1-.4,1-1s-.4-1-1-1h-1.2c-.6,0-1,.4-1,1s.4,1,1,1Z"/>
    <path d="M785.8-418.6h1.2c.6,0,1-.4,1-1s-.4-1-1-1h-1.2c-.6,0-1,.4-1,1s.4,1,1,1Z"/>
    <path d="M790.5-418.6h1.2c.6,0,1-.4,1-1s-.4-1-1-1h-1.2c-.6,0-1,.4-1,1s.5,1,1,1Z"/>
    <path d="M822.1-410.7h-4.6c-.6,0-1,.4-1,1v2h-2.6c-.6,0-1,.4-1,1v11.3h-1.6v-2c0-.6-.4-1-1-1h-4.6c-.6,0-1,.4-1,1v6c0,.6.4,1,1,1h4.6c.6,0,1-.4,1-1v-2h1.6v11.3c0,.6.4,1,1,1h2.6v2c0,.6.4,1,1,1h4.6c.6,0,1-.4,1-1v-6c0-.6-.4-1-1-1h-4.6c-.6,0-1,.4-1,1v2h-1.6v-10.3h1.6v2c0,.6.4,1,1,1h4.6c.6,0,1-.4,1-1v-6c0-.6-.4-1-1-1h-4.6c-.6,0-1,.4-1,1v2h-1.6v-10.4h1.6v2c0,.6.4,1,1,1h4.6c.6,0,1-.4,1-1v-6c0-.5-.4-.9-1-.9ZM809.2-392.4h-2.6v-4h2.6v4ZM818.5-384.1h2.6v4h-2.6v-4ZM818.5-396.4h2.6v4h-2.6v-4ZM821.1-404.8h-2.6v-4h2.6v4Z"/>
    <path d="M780.8-408.7h16.5c.6,0,1-.4,1-1s-.4-1-1-1h-16.5c-.6,0-1,.4-1,1s.5,1,1,1Z"/>
    <path d="M797.3-404.2h-16.5c-.6,0-1,.4-1,1s.4,1,1,1h16.5c.6,0,1-.4,1-1s-.5-1-1-1Z"/>
    <path d="M797.3-397.7h-16.5c-.6,0-1,.4-1,1s.4,1,1,1h16.5c.6,0,1-.4,1-1s-.5-1-1-1Z"/>
  </g>
  <path class="st1" d="M551.8-452.5l1.8-2.7-2.5-1.7-1.8,2.7,2.5,1.7ZM543.3-449.6l2.8-4.2,1.2.8h0s5.5,3.6,5.5,3.6l-.5.8h0s0,0,0,0l-9.7,14.6-6.7-4.4,2.4-3.7s0,0,0-.1l4.8-7.3s0,0,0-.1h0ZM541.4-432.1v-.2l-6.6-4.4-8.2,12.4,6.7,4.4,3.3-5s0,0,0-.1l4.7-7.1h0ZM481.1-412h0s0,0,0,0h0ZM523.4-476.9v2.8h12c.9,0,1.6.4,2.2.9.6.6.9,1.4.9,2.2v24.8l2.8-4.3v-20.6c0-1.6-.7-3.1-1.8-4.2-1.1-1.1-2.6-1.8-4.2-1.8h-12ZM515.9-481.5h6.4c.6,0,1,.5,1,1v1.5h12c2.2,0,4.2.9,5.7,2.4,1.5,1.5,2.4,3.5,2.4,5.7v17.4l1.5-2.3c.3-.5.9-.6,1.4-.3l1.2.8,2.4-3.6c.3-.5.9-.6,1.4-.3l4.2,2.8c.5.3.6.9.3,1.4l-2.4,3.6,1.2.8c.5.3.6.9.3,1.4l-.5.8.9.6c.7.5,1.2,1.2,1.3,2,.2.8,0,1.6-.5,2.4l-4.5,6.7c-.3.5-.9.6-1.4.3-.5-.3-.6-.9-.3-1.4l4.4-6.7s0,0,0,0c.1-.2.2-.5.1-.8,0-.3-.2-.5-.4-.7,0,0,0,0,0,0l-.8-.6-10,15.1v26.8c0,2.2-.9,4.2-2.4,5.7-1.5,1.5-3.5,2.4-5.7,2.4h-51.4c-2.2,0-4.2-.9-5.7-2.4-1.5-1.5-2.4-3.5-2.4-5.7v-66.2c0-2.2.9-4.2,2.4-5.7,1.5-1.5,3.5-2.4,5.7-2.4h12v-1.5c0-.6.5-1,1-1h6.4c.2-1.3.9-2.5,1.8-3.4,1.1-1.1,2.7-1.8,4.4-1.8s3.3.7,4.4,1.8c.9.9,1.6,2.1,1.8,3.4h0ZM521.3-479.4h-6.3c-.6,0-1-.5-1-1s0,0,0,0c0-1.1-.5-2.2-1.3-2.9-.8-.8-1.8-1.2-3-1.2s-2.2.5-3,1.2c-.8.8-1.3,1.8-1.3,3,0,.6-.5,1-1,1h0s-6.3,0-6.3,0v7.9h23.3v-7.9ZM489.2-405.5v-6.2h-5.1l5.1,6.2ZM481.1-412.1s0,0,0,0h0s0,0,0,0c0,0,0,0,0-.1h0s0,0,0,0h0s0,0,0,0h0s0,0,0,0h0s0,0,0,0h0s0,0,0,0h0s0,0,0,0h0s0,0,0,0h0s0,0,0,0h0s0,0,0,0h0s0,0,0,0h0s0,0,0,0h0s0,0,0,0h0s0,0,0,0h0s0-58.2,0-58.2c0-.9.4-1.6.9-2.2.6-.6,1.4-.9,2.2-.9h12v-2.8h-12c-1.6,0-3.1.7-4.2,1.8-1.1,1.1-1.8,2.6-1.8,4.2v66.2c0,1.6.7,3.1,1.8,4.2,1.1,1.1,2.6,1.8,4.2,1.8h51.4c1.6,0,3.1-.7,4.2-1.8,1.1-1.1,1.8-2.6,1.8-4.2v-23.6l-2.8,4.3v19.4c0,.9-.4,1.6-.9,2.2-.6.6-1.4.9-2.2.9h-45.2c-.4,0-.7-.2-.8-.4l-8.3-10h0ZM511.4-462.1h-3.4v4.3c0,.6-.5,1-1,1h-4.3v3.4h4.3c.6,0,1,.5,1,1v4.3h3.4v-4.3c0-.6.5-1,1-1h4.3v-3.4h-4.3c-.6,0-1-.5-1-1v-4.3ZM506.9-464.1c-.6,0-1,.5-1,1v4.3h-4.3c-.6,0-1,.5-1,1v5.5c0,.6.5,1,1,1h4.3v4.3c0,.6.5,1,1,1h5.5c.6,0,1-.5,1-1v-4.3h4.3c.6,0,1-.5,1-1v-5.5c0-.6-.5-1-1-1h-4.3v-4.3c0-.6-.5-1-1-1h-5.5ZM489.9-438h0c.6,0,1-.5,1-1s-.5-1-1-1h0c-.6,0-1,.5-1,1s.5,1,1,1ZM495.1-438h32c.6,0,1-.5,1-1s-.5-1-1-1h-32c-.6,0-1,.5-1,1s.5,1,1,1ZM489.9-430.7h0c.6,0,1-.5,1-1s-.5-1-1-1h0c-.6,0-1,.5-1,1s.5,1,1,1ZM495.1-430.7c-.6,0-1-.5-1-1s.5-1,1-1h32c.6,0,1,.5,1,1s-.5,1-1,1h-32ZM489.9-423.3h0c.6,0,1-.5,1-1s-.5-1-1-1h0c-.6,0-1,.5-1,1s.5,1,1,1ZM489.9-415.9h0c.6,0,1-.5,1-1s-.5-1-1-1h0c-.6,0-1,.5-1,1s.5,1,1,1ZM525.6-416.9l.4-5.3,5.5,3.6-6,3.2v-1.4c.1,0,.1,0,.1,0h0ZM495.1-415.9c-.6,0-1-.5-1-1s.5-1,1-1h28.5l.4-5.3h-29c-.6,0-1-.5-1-1s.5-1,1-1h29.7l8.8-13.3h0s0,0,0,0l2.9-4.3v-28c0-.3-.1-.6-.3-.8-.2-.2-.5-.3-.8-.3h-12v1.5c0,.6-.5,1-1,1h-25.3c-.6,0-1-.5-1-1v-1.5h-12c-.3,0-.6.1-.8.3-.2.2-.3.5-.3.8v57.1h7.3c.6,0,1,.5,1,1v9.1h44.2c.3,0,.6-.1.8-.3.2-.2.3-.5.3-.8v-16.2l-2.1,3.1c-.1.2-.3.3-.4.4l-9.1,4.8c-.2.1-.4.2-.6.2-.6,0-1-.5-.9-1.1l.2-2.2h-28.4,0Z"/>
  <path class="st3" d="M-843.7,442l5.7-10.5-9.7-5.2-5.7,10.5,9.7,5.2ZM-873.6,455.2l8.8-16.2,4.6,2.5h0s20.8,11.3,20.8,11.3l-1.7,3h0s0,0,0,0l-30.3,55.8-25.5-13.8,7.6-14c0-.1.2-.3.2-.4l15.1-27.8c0-.1.2-.3.2-.4h0ZM-875.1,518.6v-.6c0,0-25.3-13.7-25.3-13.7l-25.6,47.2,25.5,13.8,10.4-19.2c0-.1.2-.3.2-.4l14.7-27h0ZM-1085.9,610.1h-.2c0-.1,0-.2,0-.2l.2.2ZM-954,362.9l.9,10.2,43.3-3.8c3.1-.3,6,.7,8.3,2.6,2.2,1.9,3.7,4.6,4,7.7l7.8,89.6,8.9-16.4-6.5-74.1c-.5-5.9-3.4-11.1-7.7-14.6-4.2-3.6-9.8-5.5-15.8-5l-43.3,3.8ZM-982.4,348.7l23.2-2c2.1-.2,3.9,1.3,4,3.4l.5,5.4,43.3-3.8c8-.7,15.5,1.9,21.2,6.7,5.7,4.8,9.6,11.7,10.3,19.7l5.5,62.9,4.8-8.8c1-1.8,3.2-2.5,5-1.5l4.6,2.5,7.5-13.7c1-1.8,3.2-2.5,5-1.5l16.2,8.8c1.8,1,2.5,3.2,1.5,5l-7.5,13.7,4.6,2.5c1.8,1,2.5,3.2,1.5,5l-1.7,3,3.4,1.9c2.7,1.5,4.6,4,5.5,6.8.8,2.8.6,5.9-.9,8.7l-14,25.7c-1,1.8-3.2,2.5-5,1.5-1.8-1-2.5-3.2-1.5-5l13.8-25.5c0-.1.1-.3.2-.4.4-.9.5-1.9.2-2.8-.3-.9-.9-1.7-1.7-2.3-.1,0-.3-.1-.4-.2l-3.2-1.7-31.2,57.5,8.4,96.5c.7,8-1.9,15.5-6.7,21.2-4.8,5.7-11.7,9.6-19.7,10.3l-185.4,16.2c-8,.7-15.5-1.9-21.2-6.7-5.7-4.8-9.6-11.7-10.3-19.7l-20.9-238.6c-.7-8,1.9-15.5,6.7-21.2,4.8-5.7,11.7-9.6,19.7-10.3l43.3-3.8-.5-5.4c-.2-2.1,1.3-3.9,3.4-4l23.2-2c.4-4.8,2.4-9.3,5.4-12.8,3.8-4.4,9.2-7.4,15.5-8s12.1,1.5,16.6,5.2c3.6,3,6.3,7,7.5,11.7h0ZM-962.2,354.4l-22.8,2c-2.1.2-3.9-1.3-4-3.4s0-.2,0-.2c-.5-4.1-2.5-7.6-5.5-10.1-3-2.5-7-3.9-11.2-3.5s-7.9,2.4-10.4,5.4c-2.5,3-4,6.9-3.7,11.2.1,2-1.4,3.8-3.4,4h0s-22.8,2-22.8,2l2.5,28.5,83.9-7.3-2.5-28.5ZM-1054.9,631.1l-2-22.4-18.5,1.6,20.4,20.8ZM-1086.1,609.9s0,0-.1-.1h0c0,0,0,0,0,0-.1-.1-.2-.3-.3-.4h0c0-.1,0-.1,0-.2h0s0,0,0,0h0c0,0,0,0,0,0h0s0,0,0,0h0c0-.1,0-.2,0-.2h0s0,0,0,0h0s0,0,0,0h0s0,0,0,0h0s0,0,0,0h0s0,0,0,0h0s0,0,0,0h0s0,0,0,0h0s0,0,0,0h0c0-.1,0-.2,0-.3h0s0,0,0,0l-18.3-209.8c-.3-3.1.7-6,2.6-8.3,1.9-2.2,4.6-3.7,7.7-4l43.3-3.8-.9-10.2-43.3,3.8c-5.9.5-11.1,3.4-14.6,7.7-3.6,4.2-5.5,9.8-5,15.8l20.9,238.6c.5,5.9,3.4,11.1,7.7,14.6,4.2,3.6,9.8,5.5,15.8,5l185.4-16.2c5.9-.5,11.1-3.4,14.6-7.7,3.6-4.2,5.5-9.8,5-15.8l-7.5-85.3-8.9,16.4,6.1,69.8c.3,3.1-.7,6-2.6,8.3-1.9,2.2-4.6,3.7-7.7,4l-163,14.2c-1.3.1-2.4-.4-3.2-1.3l-33-33.5h0ZM-992.5,420.2l-12.4,1.1,1.4,15.4c.2,2.1-1.3,3.9-3.4,4l-15.4,1.4,1.1,12.4,15.4-1.4c2.1-.2,3.9,1.3,4,3.4l1.4,15.4,12.4-1.1-1.4-15.4c-.2-2.1,1.3-3.9,3.4-4l15.4-1.4-1.1-12.4-15.4,1.4c-2.1.2-3.9-1.3-4-3.4l-1.4-15.4ZM-1009.3,414.1c-2.1.2-3.6,2-3.4,4l1.4,15.4-15.4,1.4c-2.1.2-3.6,2-3.4,4l1.7,19.8c.2,2.1,2,3.6,4,3.4l15.4-1.4,1.4,15.4c.2,2.1,2,3.6,4,3.4l19.8-1.7c2.1-.2,3.6-2,3.4-4l-1.4-15.4,15.4-1.4c2.1-.2,3.6-2,3.4-4l-1.7-19.8c-.2-2.1-2-3.6-4-3.4l-15.4,1.4-1.4-15.4c-.2-2.1-2-3.6-4-3.4l-19.8,1.7ZM-1062.3,513.5h0c2.1-.2,3.6-2,3.4-4s-2-3.6-4-3.4h0c-2.1.2-3.6,2-3.4,4s2,3.6,4,3.4ZM-1043.8,511.9l115.3-10.1c2.1-.2,3.6-2,3.4-4s-2-3.6-4-3.4l-115.3,10.1c-2.1.2-3.6,2-3.4,4s2,3.6,4,3.4ZM-1060,540.2h0c2.1-.2,3.6-2,3.4-4s-2-3.6-4-3.4h0c-2.1.2-3.6,2-3.4,4s2,3.6,4,3.4ZM-1041.4,538.5c-2.1.2-3.9-1.3-4-3.4s1.3-3.9,3.4-4l115.3-10.1c2.1-.2,3.9,1.3,4,3.4s-1.3,3.9-3.4,4l-115.3,10.1ZM-1057.6,566.7h0c2.1-.2,3.6-2,3.4-4s-2-3.6-4-3.4h0c-2.1.2-3.6,2-3.4,4s2,3.6,4,3.4ZM-1055.3,593.3h0c2.1-.2,3.6-2,3.4-4s-2-3.6-4-3.4h0c-2.1.2-3.6,2-3.4,4s2,3.6,4,3.4ZM-927,578.5v-19.2c-.1,0,20.8,11.4,20.8,11.4l-20.8,13.3v-5.1c0,0,0-.2,0-.3h0ZM-1036.8,591.7c-2.1.2-3.9-1.3-4-3.4s1.3-3.9,3.4-4l102.9-9v-19.3c-.1,0-104.6,9.1-104.6,9.1-2.1.2-3.9-1.3-4-3.4s1.3-3.9,3.4-4l107.1-9.4,27.5-50.7h0s0,0,0,0l8.9-16.5-8.8-100.8c0-1.1-.6-2-1.4-2.6-.8-.6-1.8-1-2.8-.9l-43.3,3.8.5,5.4c.2,2.1-1.3,3.9-3.4,4l-91.4,8c-2.1.2-3.9-1.3-4-3.4l-.5-5.4-43.3,3.8c-1.1,0-2,.6-2.6,1.4-.6.8-1,1.8-.9,2.8l18,206.1,26.3-2.3c2.1-.2,3.9,1.3,4,3.4l2.9,32.7,159.3-13.9c1.1,0,2-.6,2.6-1.4.6-.8,1-1.8.9-2.8l-5.1-58.5-6.4,11.8c-.4.7-.9,1.2-1.5,1.5l-31.3,20c-.6.5-1.4.8-2.2.8-2.1,0-3.7-1.6-3.8-3.7v-8c0,0-102.4,9-102.4,9h0Z"/>
  <path class="st4" d="M-472.8,303.2l9.6-14.5-13.4-8.8-9.6,14.5,13.4,8.8ZM-517.9,318.6l14.8-22.4,6.4,4.2h0s28.9,19.1,28.9,19.1l-2.8,4.2h0s0,0,0,0l-51.1,77.2-35.3-23.3,12.8-19.4c.1-.2.3-.4.4-.6l25.5-38.5c.1-.2.3-.4.4-.6h0ZM-528.1,410.6v-.8l-34.9-23.1-43.2,65.3,35.3,23.3,17.6-26.6c.1-.2.3-.4.4-.6l24.8-37.4h0ZM-846.2,516.8l-.2-.2h0c0,0,.3.2.3.2ZM-623,174.3v15h63.4c4.6,0,8.7,1.9,11.7,4.8,3,3,4.8,7.1,4.8,11.7v131.2l15-22.7v-108.5c0-8.7-3.5-16.5-9.3-22.3-5.7-5.7-13.6-9.3-22.3-9.3h-63.4ZM-662.5,150h34c3,0,5.4,2.4,5.4,5.4v7.9h63.4c11.7,0,22.3,4.8,29.9,12.5,7.7,7.7,12.5,18.3,12.5,29.9v92.1l8-12.1c1.7-2.5,5-3.2,7.5-1.5l6.4,4.2,12.6-19c1.7-2.5,5-3.2,7.5-1.5l22.4,14.8c2.5,1.7,3.2,5,1.5,7.5l-12.6,19,6.4,4.2c2.5,1.7,3.2,5,1.5,7.5l-2.8,4.2,4.7,3.1c3.8,2.5,6.2,6.4,7.1,10.5.8,4.2.1,8.7-2.4,12.5l-23.6,35.6c-1.7,2.5-5,3.2-7.5,1.5-2.5-1.7-3.2-5-1.5-7.5l23.3-35.3c.1-.2.2-.4.3-.5.8-1.3,1-2.7.7-4.1-.3-1.4-1.1-2.6-2.2-3.5-.2-.1-.4-.2-.5-.4l-4.4-2.9-52.7,79.6v141.3c0,11.7-4.8,22.3-12.5,29.9-7.7,7.7-18.3,12.5-29.9,12.5h-271.5c-11.7,0-22.3-4.7-29.9-12.4-7.7-7.7-12.5-18.3-12.5-29.9V205.8c0-11.7,4.8-22.3,12.5-29.9,7.7-7.7,18.3-12.5,29.9-12.5h63.4v-7.9c0-3,2.4-5.4,5.4-5.4h34c1.2-7,4.6-13.2,9.4-18,6-6,14.3-9.6,23.5-9.6s17.4,3.7,23.5,9.6c4.8,4.8,8.2,11,9.4,18h0ZM-633.9,160.9h-33.5c-3,0-5.4-2.4-5.4-5.4s0-.2,0-.4c-.2-6-2.7-11.4-6.7-15.3-4.1-4-9.7-6.5-15.9-6.5s-11.8,2.5-15.9,6.5c-4.1,4-6.6,9.6-6.7,15.8,0,3-2.5,5.4-5.4,5.4h0s-33.5,0-33.5,0v41.7h122.9v-41.7ZM-803.7,551.2v-32.8h-27l27,32.8ZM-846.4,516.5c0,0-.1-.1-.2-.2h0c0-.1,0-.1,0-.1-.1-.2-.3-.4-.4-.6h0c0-.2,0-.2-.1-.3h0c0,0,0-.1,0-.1h0c0-.1,0-.2,0-.2h0c0,0,0-.2,0-.2h0c0,0,0-.1,0-.1h0c0,0,0-.1,0-.1h0c0,0,0-.1,0-.1h0c0-.1,0-.2,0-.2h0s0-.1,0-.1h0s0-.1,0-.1h0s0-.1,0-.1h0s0-.1,0-.1h0c0-.2,0-.3,0-.4h0c0-.1,0-307.3,0-307.3,0-4.6,1.9-8.7,4.8-11.7,3-3,7.1-4.8,11.7-4.8h63.4v-15h-63.4c-8.7,0-16.5,3.5-22.3,9.3-5.7,5.7-9.3,13.6-9.3,22.3v349.4c0,8.7,3.5,16.5,9.3,22.3,5.7,5.7,13.6,9.3,22.3,9.3h271.6c8.7,0,16.5-3.5,22.3-9.3,5.7-5.7,9.3-13.6,9.3-22.3v-124.9l-15,22.7v102.2c0,4.6-1.9,8.7-4.8,11.7-3,3-7.1,4.8-11.7,4.8h-238.7c-1.9,0-3.5-.9-4.5-2.4l-43.7-52.9h0ZM-686.3,252.6h-18.2v22.6c0,3-2.4,5.4-5.4,5.4h-22.6v18.2h22.6c3,0,5.4,2.4,5.4,5.4v22.6h18.2v-22.6c0-3,2.4-5.4,5.4-5.4h22.6v-18.2h-22.6c-3,0-5.4-2.4-5.4-5.4v-22.6ZM-709.9,241.7c-3,0-5.4,2.4-5.4,5.4v22.6h-22.6c-3,0-5.4,2.4-5.4,5.4v29.1c0,3,2.4,5.4,5.4,5.4h22.6v22.6c0,3,2.4,5.4,5.4,5.4h29.1c3,0,5.4-2.4,5.4-5.4v-22.6h22.6c3,0,5.4-2.4,5.4-5.4v-29.1c0-3-2.4-5.4-5.4-5.4h-22.6v-22.6c0-3-2.4-5.4-5.4-5.4h-29.1ZM-799.6,379.4h0c3,0,5.4-2.4,5.4-5.4s-2.4-5.4-5.4-5.4h0c-3,0-5.4,2.4-5.4,5.4s2.4,5.4,5.4,5.4ZM-772.4,379.4h168.8c3,0,5.4-2.4,5.4-5.4s-2.4-5.4-5.4-5.4h-168.8c-3,0-5.4,2.4-5.4,5.4s2.4,5.4,5.4,5.4ZM-799.6,418.4h0c3,0,5.4-2.4,5.4-5.4s-2.4-5.4-5.4-5.4h0c-3,0-5.4,2.4-5.4,5.4s2.4,5.4,5.4,5.4ZM-772.4,418.4c-3,0-5.4-2.4-5.4-5.4s2.4-5.4,5.4-5.4h168.8c3,0,5.4,2.4,5.4,5.4s-2.4,5.4-5.4,5.4h-168.8ZM-799.6,457.3h0c3,0,5.4-2.4,5.4-5.4s-2.4-5.4-5.4-5.4h0c-3,0-5.4,2.4-5.4,5.4s2.4,5.4,5.4,5.4ZM-799.6,496.3h0c3,0,5.4-2.4,5.4-5.4s-2.4-5.4-5.4-5.4h0c-3,0-5.4,2.4-5.4,5.4s2.4,5.4,5.4,5.4ZM-611.2,491l2.2-27.9,29,19.2-31.8,16.6.6-7.5c0-.1,0-.3,0-.5h0ZM-772.4,496.3c-3,0-5.4-2.4-5.4-5.4s2.4-5.4,5.4-5.4h150.7l2.2-28.1h-153c-3,0-5.4-2.4-5.4-5.4s2.4-5.4,5.4-5.4h156.9l46.4-70.2h0s0,0,0,0l15.1-22.8v-147.6c0-1.5-.6-3-1.7-4-1-1-2.4-1.7-4-1.7h-63.4v7.9c0,3-2.4,5.4-5.4,5.4h-133.8c-3,0-5.4-2.4-5.4-5.4v-7.9h-63.4c-1.5,0-3,.6-4,1.7-1,1-1.7,2.4-1.7,4v301.8h38.5c3,0,5.4,2.4,5.4,5.4v47.9h233.2c1.5,0,3-.6,4-1.7,1-1,1.7-2.4,1.7-4v-85.7l-10.8,16.4c-.6.9-1.4,1.6-2.3,2l-48,25.1c-.9.6-2.1.9-3.3.8-3-.2-5.2-2.8-5-5.8l.9-11.6h-149.9,0Z"/>
  <rect class="st9" x="-.9" y="-.9" width="1278.3" height="723.1"/>
  <path class="st2" d="M1687.9-722.7l12.3-13-12-11.4-12.3,13,12,11.4ZM1639.3-715.2l19-20.1,5.8,5.5h0s25.9,24.6,25.9,24.6l-3.6,3.8h0s0,0,0,0l-65.7,69.3-31.6-30,16.5-17.4c.2-.2.4-.3.5-.6l32.8-34.5c.2-.2.4-.3.5-.6h0ZM1612.5-623.5l.2-.9-31.3-29.7-55.5,58.6,31.6,30,22.7-23.9c.2-.2.3-.4.5-.6l31.8-33.6h0ZM1270.5-572.7l-.2-.2h0c0,0,.2.2.2.2ZM1558.4-880.6l-2.7,15.2,64.4,11.4c4.6.8,8.5,3.4,11,7,2.5,3.6,3.6,8.1,2.8,12.7l-23.5,133.2,19.3-20.3,19.4-110.2c1.6-8.8-.6-17.4-5.4-24.3-4.8-6.8-12.1-11.8-20.9-13.4l-64.4-11.4ZM1522.7-912.3l34.5,6.1c3.1.5,5.1,3.4,4.6,6.5l-1.4,8,64.4,11.4c11.9,2.1,21.8,8.8,28.2,18,6.4,9.2,9.4,20.8,7.3,32.6l-16.5,93.5,10.3-10.9c2.1-2.2,5.7-2.3,7.9-.2l5.8,5.5,16.2-17.1c2.1-2.2,5.7-2.3,7.9-.2l20.1,19.1c2.2,2.1,2.3,5.7.2,7.9l-16.2,17.1,5.8,5.5c2.2,2.1,2.3,5.7.2,7.9l-3.6,3.8,4.3,4c3.4,3.2,5.2,7.6,5.3,11.9.1,4.4-1.4,8.8-4.7,12.2l-30.3,32c-2.1,2.2-5.7,2.3-7.9.2-2.2-2.1-2.3-5.7-.2-7.9l30-31.7c.1-.2.3-.3.4-.5,1-1.1,1.5-2.6,1.4-4,0-1.4-.6-2.8-1.7-4-.1-.1-.3-.3-.5-.4l-4-3.8-67.7,71.4-25.3,143.5c-2.1,11.9-8.8,21.8-18,28.2-9.2,6.4-20.8,9.4-32.6,7.3l-275.7-48.6c-11.9-2.1-21.8-8.8-28.2-18-6.4-9.2-9.4-20.8-7.3-32.6l62.6-354.8c2.1-11.9,8.8-21.8,18-28.2,9.2-6.4,20.8-9.4,32.6-7.3l64.4,11.4,1.4-8c.5-3.1,3.4-5.1,6.5-4.6l34.5,6.1c2.5-6.9,7.1-12.6,12.8-16.6,7.2-5,16.3-7.2,25.6-5.6s17,6.8,22.1,14c4,5.7,6.4,12.7,6.4,20h0ZM1549.8-896.1l-34-6c-3.1-.5-5.1-3.4-4.6-6.5s0-.2,0-.4c.9-6.1-.7-12.1-4.1-16.8-3.4-4.8-8.7-8.3-14.9-9.4s-12.4.4-17.3,3.8c-4.9,3.4-8.5,8.6-9.6,14.8-.6,3-3.5,5-6.5,4.5h0s-34-6-34-6l-7.5,42.3,124.8,22,7.5-42.3ZM1307.4-530.1l5.9-33.3-27.5-4.8,21.6,38.1ZM1270.3-573c0,0,0-.1-.1-.2h0c0-.1,0-.1,0-.1-.1-.2-.2-.5-.3-.7h0c0-.2,0-.3,0-.3h0c0,0,0-.1,0-.1h0c0-.1,0-.1,0-.1h0c0,0,0-.1,0-.1v-.2c0,0,0,0,0,0h0s0-.1,0-.1h0c0,0,0-.2,0-.2h0s0-.2,0-.2h0s0-.1,0-.1h0s0-.2,0-.2h0s0-.2,0-.2h0s0-.2,0-.2h0s0-.1,0-.1h0c0-.2,0-.3,0-.4h0s0-.1,0-.1l55-311.9c.8-4.6,3.4-8.5,7-11,3.6-2.5,8.1-3.6,12.7-2.8l64.4,11.4,2.7-15.2-64.4-11.4c-8.8-1.6-17.4.6-24.3,5.4-6.8,4.8-11.8,12.1-13.4,20.9l-62.6,354.8c-1.6,8.8.6,17.4,5.4,24.3,4.8,6.8,12.1,11.8,20.9,13.4l275.8,48.6c8.8,1.6,17.4-.6,24.3-5.4,6.8-4.8,11.8-12.1,13.4-20.9l22.4-126.8-19.3,20.3-18.3,103.8c-.8,4.6-3.4,8.5-7,11-3.6,2.5-8.1,3.6-12.7,2.8l-242.4-42.8c-1.9-.3-3.4-1.6-4.1-3.2l-34.9-61.5h0ZM1480.1-812.4l-18.5-3.3-4,23c-.5,3.1-3.4,5.1-6.5,4.6l-23-4-3.3,18.5,23,4c3.1.5,5.1,3.4,4.6,6.5l-4,23,18.5,3.3,4-23c.5-3.1,3.4-5.1,6.5-4.6l23,4,3.3-18.5-23-4c-3.1-.5-5.1-3.4-4.6-6.5l4-23ZM1458.1-827.6c-3.1-.5-6,1.5-6.5,4.6l-4,23-23-4c-3.1-.5-6,1.5-6.5,4.6l-5.2,29.5c-.5,3.1,1.5,6,4.6,6.5l23,4-4,23c-.5,3.1,1.5,6,4.6,6.5l29.5,5.2c3.1.5,6-1.5,6.5-4.6l4-23,23,4c3.1.5,6-1.5,6.5-4.6l5.2-29.5c.5-3.1-1.5-6-4.6-6.5l-23-4,4-23c.5-3.1-1.5-6-4.6-6.5l-29.5-5.2ZM1342.4-703.8h0c3.1.5,6-1.5,6.5-4.5s-1.5-6-4.6-6.5h0c-3.1-.5-6,1.5-6.5,4.5s1.5,6,4.6,6.5ZM1370-699l171.4,30.2c3.1.5,6-1.5,6.5-4.6s-1.5-6-4.6-6.5l-171.4-30.2c-3.1-.5-6,1.5-6.5,4.6s1.5,6,4.6,6.5ZM1335.4-664.3h0c3.1.5,6-1.5,6.5-4.5s-1.5-6-4.6-6.5h0c-3.1-.5-6,1.5-6.5,4.5s1.5,6,4.6,6.5ZM1363-659.4c-3.1-.5-5.1-3.4-4.6-6.5.5-3.1,3.4-5.1,6.5-4.6l171.4,30.2c3.1.5,5.1,3.4,4.6,6.5s-3.4,5.1-6.5,4.6l-171.4-30.2ZM1328.5-624.7h0c3.1.5,6-1.5,6.5-4.5s-1.5-6-4.6-6.5h0c-3.1-.5-6,1.5-6.5,4.5s1.5,6,4.6,6.5ZM1321.5-585.2h0c3.1.5,6-1.5,6.5-4.5s-1.5-6-4.6-6.5h0c-3.1-.5-6,1.5-6.5,4.5s1.5,6,4.6,6.5ZM1513.7-556.8l7.3-27.9,26,24.7-35.3,11.2,1.9-7.5c0-.1,0-.3.1-.5h0ZM1349.1-580.3c-3.1-.5-5.1-3.4-4.6-6.5s3.4-5.1,6.5-4.6l153.1,27,7.3-28.1-155.3-27.4c-3.1-.5-5.1-3.4-4.6-6.5.5-3.1,3.4-5.1,6.5-4.6l159.3,28.1,59.7-63h0s0,0,0,0l19.4-20.4,26.4-149.9c.3-1.6-.1-3.1-1-4.3-.9-1.2-2.2-2.1-3.7-2.4l-64.4-11.4-1.4,8c-.5,3.1-3.4,5.1-6.5,4.6l-135.9-24c-3.1-.5-5.1-3.4-4.6-6.5l1.4-8-64.4-11.4c-1.6-.3-3.1.1-4.3,1-1.2.9-2.1,2.2-2.4,3.7l-54,306.4,39.1,6.9c3.1.5,5.1,3.4,4.6,6.5l-8.6,48.6,236.8,41.8c1.6.3,3.1-.1,4.3-1,1.2-.9,2.1-2.2,2.4-3.7l15.4-87.1-14,14.7c-.8.8-1.7,1.3-2.7,1.6l-53.3,16.9c-1.1.4-2.3.6-3.5.2-3-.8-4.8-3.8-4-6.8l3-11.6-152.2-26.8h0Z"/>
  <polygon class="st4" points="453.8 516.8 453.6 516.6 453.6 516.5 453.8 516.8"/>
  <rect class="st8" x="1299.1" y="-.9" width="1278.3" height="723.1"/>
  <path class="st2" d="M2506.4,251.8l12.3-13-12-11.4-12.3,13,12,11.4ZM2457.8,259.3l19-20.1,5.8,5.5h0s25.9,24.6,25.9,24.6l-3.6,3.8h0s0,0,0,0l-65.7,69.3-31.6-30,16.5-17.4c.2-.2.4-.3.5-.6l32.8-34.5c.2-.2.4-.3.5-.6h0ZM2431,350.9l.2-.9-31.3-29.7-55.5,58.6,31.6,30,22.7-23.9c.2-.2.3-.4.5-.6l31.8-33.6h0ZM2089,401.8l-.2-.2h0c0,0,.2.2.2.2ZM2376.9,93.9l-2.7,15.2,64.4,11.4c4.6.8,8.5,3.4,11,7,2.5,3.6,3.6,8.1,2.8,12.7l-23.5,133.2,19.3-20.3,19.4-110.2c1.6-8.8-.6-17.4-5.4-24.3-4.8-6.8-12.1-11.8-20.9-13.4l-64.4-11.4ZM2341.2,62.2l34.5,6.1c3.1.5,5.1,3.4,4.6,6.5l-1.4,8,64.4,11.4c11.9,2.1,21.8,8.8,28.2,18,6.4,9.2,9.4,20.8,7.3,32.6l-16.5,93.5,10.3-10.9c2.1-2.2,5.7-2.3,7.9-.2l5.8,5.5,16.2-17.1c2.1-2.2,5.7-2.3,7.9-.2l20.1,19.1c2.2,2.1,2.3,5.7.2,7.9l-16.2,17.1,5.8,5.5c2.2,2.1,2.3,5.7.2,7.9l-3.6,3.8,4.3,4c3.4,3.2,5.2,7.6,5.3,11.9.1,4.4-1.4,8.8-4.7,12.2l-30.3,32c-2.1,2.2-5.7,2.3-7.9.2-2.2-2.1-2.3-5.7-.2-7.9l30-31.7c.1-.2.3-.3.4-.5,1-1.1,1.5-2.6,1.4-4,0-1.4-.6-2.8-1.7-4-.1-.1-.3-.3-.5-.4l-4-3.8-67.7,71.4-25.3,143.5c-2.1,11.9-8.8,21.8-18,28.2-9.2,6.4-20.8,9.4-32.6,7.3l-275.7-48.6c-11.9-2.1-21.8-8.8-28.2-18-6.4-9.2-9.4-20.8-7.3-32.6l62.6-354.8c2.1-11.9,8.8-21.8,18-28.2,9.2-6.4,20.8-9.4,32.6-7.3l64.4,11.4,1.4-8c.5-3.1,3.4-5.1,6.5-4.6l34.5,6.1c2.5-6.9,7.1-12.6,12.8-16.6,7.2-5,16.3-7.2,25.6-5.6s17,6.8,22.1,14c4,5.7,6.4,12.7,6.4,20h0ZM2368.3,78.4l-34-6c-3.1-.5-5.1-3.4-4.6-6.5s0-.2,0-.4c.9-6.1-.7-12.1-4.1-16.8-3.4-4.8-8.7-8.3-14.9-9.4s-12.4.4-17.3,3.8c-4.9,3.4-8.5,8.6-9.6,14.8-.6,3-3.5,5-6.5,4.5h0s-34-6-34-6l-7.5,42.3,124.8,22,7.5-42.3ZM2126,444.3l5.9-33.3-27.5-4.8,21.6,38.1ZM2088.8,401.4c0,0,0-.1-.1-.2h0c0-.1,0-.1,0-.1-.1-.2-.2-.5-.3-.7h0c0-.2,0-.3,0-.3h0c0,0,0-.1,0-.1h0c0-.1,0-.1,0-.1h0c0,0,0-.1,0-.1v-.2c0,0,0,0,0,0h0s0-.1,0-.1h0c0,0,0-.2,0-.2h0s0-.2,0-.2h0s0-.1,0-.1h0s0-.2,0-.2h0s0-.2,0-.2h0s0-.2,0-.2h0s0-.1,0-.1h0c0-.2,0-.3,0-.4h0s0-.1,0-.1l55-311.9c.8-4.6,3.4-8.5,7-11,3.6-2.5,8.1-3.6,12.7-2.8l64.4,11.4,2.7-15.2-64.4-11.4c-8.8-1.6-17.4.6-24.3,5.4-6.8,4.8-11.8,12.1-13.4,20.9l-62.6,354.8c-1.6,8.8.6,17.4,5.4,24.3,4.8,6.8,12.1,11.8,20.9,13.4l275.8,48.6c8.8,1.6,17.4-.6,24.3-5.4,6.8-4.8,11.8-12.1,13.4-20.9l22.4-126.8-19.3,20.3-18.3,103.8c-.8,4.6-3.4,8.5-7,11-3.6,2.5-8.1,3.6-12.7,2.8l-242.4-42.8c-1.9-.3-3.4-1.6-4.1-3.2l-34.9-61.5h0ZM2298.7,162.1l-18.5-3.3-4,23c-.5,3.1-3.4,5.1-6.5,4.6l-23-4-3.3,18.5,23,4c3.1.5,5.1,3.4,4.6,6.5l-4,23,18.5,3.3,4-23c.5-3.1,3.4-5.1,6.5-4.6l23,4,3.3-18.5-23-4c-3.1-.5-5.1-3.4-4.6-6.5l4-23ZM2276.6,146.8c-3.1-.5-6,1.5-6.5,4.6l-4,23-23-4c-3.1-.5-6,1.5-6.5,4.6l-5.2,29.5c-.5,3.1,1.5,6,4.6,6.5l23,4-4,23c-.5,3.1,1.5,6,4.6,6.5l29.5,5.2c3.1.5,6-1.5,6.5-4.6l4-23,23,4c3.1.5,6-1.5,6.5-4.6l5.2-29.5c.5-3.1-1.5-6-4.6-6.5l-23-4,4-23c.5-3.1-1.5-6-4.6-6.5l-29.5-5.2ZM2160.9,270.6h0c3.1.5,6-1.5,6.5-4.5s-1.5-6-4.6-6.5h0c-3.1-.5-6,1.5-6.5,4.5s1.5,6,4.6,6.5ZM2188.5,275.5l171.4,30.2c3.1.5,6-1.5,6.5-4.6s-1.5-6-4.6-6.5l-171.4-30.2c-3.1-.5-6,1.5-6.5,4.6s1.5,6,4.6,6.5ZM2154,310.2h0c3.1.5,6-1.5,6.5-4.5s-1.5-6-4.6-6.5h0c-3.1-.5-6,1.5-6.5,4.5s1.5,6,4.6,6.5ZM2181.5,315.1c-3.1-.5-5.1-3.4-4.6-6.5.5-3.1,3.4-5.1,6.5-4.6l171.4,30.2c3.1.5,5.1,3.4,4.6,6.5s-3.4,5.1-6.5,4.6l-171.4-30.2ZM2147,349.7h0c3.1.5,6-1.5,6.5-4.5s-1.5-6-4.6-6.5h0c-3.1-.5-6,1.5-6.5,4.5s1.5,6,4.6,6.5ZM2140,389.3h0c3.1.5,6-1.5,6.5-4.5s-1.5-6-4.6-6.5h0c-3.1-.5-6,1.5-6.5,4.5s1.5,6,4.6,6.5ZM2332.2,417.7l7.3-27.9,26,24.7-35.3,11.2,1.9-7.5c0-.1,0-.3.1-.5h0ZM2167.6,394.2c-3.1-.5-5.1-3.4-4.6-6.5s3.4-5.1,6.5-4.6l153.1,27,7.3-28.1-155.3-27.4c-3.1-.5-5.1-3.4-4.6-6.5.5-3.1,3.4-5.1,6.5-4.6l159.3,28.1,59.7-63h0s0,0,0,0l19.4-20.4,26.4-149.9c.3-1.6-.1-3.1-1-4.3-.9-1.2-2.2-2.1-3.7-2.4l-64.4-11.4-1.4,8c-.5,3.1-3.4,5.1-6.5,4.6l-135.9-24c-3.1-.5-5.1-3.4-4.6-6.5l1.4-8-64.4-11.4c-1.6-.3-3.1.1-4.3,1-1.2.9-2.1,2.2-2.4,3.7l-54,306.4,39.1,6.9c3.1.5,5.1,3.4,4.6,6.5l-8.6,48.6,236.8,41.8c1.6.3,3.1-.1,4.3-1,1.2-.9,2.1-2.2,2.4-3.7l15.4-87.1-14,14.7c-.8.8-1.7,1.3-2.7,1.6l-53.3,16.9c-1.1.4-2.3.6-3.5.2-3-.8-4.8-3.8-4-6.8l3-11.6-152.2-26.8h0Z"/>
  <path class="st3" d="M1756.3,442l5.7-10.5-9.7-5.2-5.7,10.5,9.7,5.2ZM1726.4,455.2l8.8-16.2,4.6,2.5h0s20.8,11.3,20.8,11.3l-1.7,3h0s0,0,0,0l-30.3,55.8-25.5-13.8,7.6-14c0-.1.2-.3.2-.4l15.1-27.8c0-.1.2-.3.2-.4h0ZM1724.9,518.6v-.6c0,0-25.3-13.7-25.3-13.7l-25.6,47.2,25.5,13.8,10.4-19.2c0-.1.2-.3.2-.4l14.7-27h0ZM1514.1,610.1h-.2c0-.1,0-.2,0-.2l.2.2ZM1646,362.9l.9,10.2,43.3-3.8c3.1-.3,6,.7,8.3,2.6,2.2,1.9,3.7,4.6,4,7.7l7.8,89.6,8.9-16.4-6.5-74.1c-.5-5.9-3.4-11.1-7.7-14.6-4.2-3.6-9.8-5.5-15.8-5l-43.3,3.8ZM1617.6,348.7l23.2-2c2.1-.2,3.9,1.3,4,3.4l.5,5.4,43.3-3.8c8-.7,15.5,1.9,21.2,6.7,5.7,4.8,9.6,11.7,10.3,19.7l5.5,62.9,4.8-8.8c1-1.8,3.2-2.5,5-1.5l4.6,2.5,7.5-13.7c1-1.8,3.2-2.5,5-1.5l16.2,8.8c1.8,1,2.5,3.2,1.5,5l-7.5,13.7,4.6,2.5c1.8,1,2.5,3.2,1.5,5l-1.7,3,3.4,1.9c2.7,1.5,4.6,4,5.5,6.8.8,2.8.6,5.9-.9,8.7l-14,25.7c-1,1.8-3.2,2.5-5,1.5-1.8-1-2.5-3.2-1.5-5l13.8-25.5c0-.1.1-.3.2-.4.4-.9.5-1.9.2-2.8-.3-.9-.9-1.7-1.7-2.3-.1,0-.3-.1-.4-.2l-3.2-1.7-31.2,57.5,8.4,96.5c.7,8-1.9,15.5-6.7,21.2-4.8,5.7-11.7,9.6-19.7,10.3l-185.4,16.2c-8,.7-15.5-1.9-21.2-6.7-5.7-4.8-9.6-11.7-10.3-19.7l-20.9-238.6c-.7-8,1.9-15.5,6.7-21.2,4.8-5.7,11.7-9.6,19.7-10.3l43.3-3.8-.5-5.4c-.2-2.1,1.3-3.9,3.4-4l23.2-2c.4-4.8,2.4-9.3,5.4-12.8,3.8-4.4,9.2-7.4,15.5-8s12.1,1.5,16.6,5.2c3.6,3,6.3,7,7.5,11.7h0ZM1637.8,354.4l-22.8,2c-2.1.2-3.9-1.3-4-3.4s0-.2,0-.2c-.5-4.1-2.5-7.6-5.5-10.1-3-2.5-7-3.9-11.2-3.5s-7.9,2.4-10.4,5.4c-2.5,3-4,6.9-3.7,11.2.1,2-1.4,3.8-3.4,4h0s-22.8,2-22.8,2l2.5,28.5,83.9-7.3-2.5-28.5ZM1545.1,631.1l-2-22.4-18.5,1.6,20.4,20.8ZM1513.9,609.9s0,0-.1-.1h0c0,0,0,0,0,0-.1-.1-.2-.3-.3-.4h0c0-.1,0-.1,0-.2h0s0,0,0,0h0c0,0,0,0,0,0h0s0,0,0,0h0c0-.1,0-.2,0-.2h0s0,0,0,0h0s0,0,0,0h0s0,0,0,0h0s0,0,0,0h0s0,0,0,0h0s0,0,0,0h0s0,0,0,0h0s0,0,0,0h0c0-.1,0-.2,0-.3h0s0,0,0,0l-18.3-209.8c-.3-3.1.7-6,2.6-8.3,1.9-2.2,4.6-3.7,7.7-4l43.3-3.8-.9-10.2-43.3,3.8c-5.9.5-11.1,3.4-14.6,7.7-3.6,4.2-5.5,9.8-5,15.8l20.9,238.6c.5,5.9,3.4,11.1,7.7,14.6,4.2,3.6,9.8,5.5,15.8,5l185.4-16.2c5.9-.5,11.1-3.4,14.6-7.7,3.6-4.2,5.5-9.8,5-15.8l-7.5-85.3-8.9,16.4,6.1,69.8c.3,3.1-.7,6-2.6,8.3-1.9,2.2-4.6,3.7-7.7,4l-163,14.2c-1.3.1-2.4-.4-3.2-1.3l-33-33.5h0ZM1607.5,420.2l-12.4,1.1,1.4,15.4c.2,2.1-1.3,3.9-3.4,4l-15.4,1.4,1.1,12.4,15.4-1.4c2.1-.2,3.9,1.3,4,3.4l1.4,15.4,12.4-1.1-1.4-15.4c-.2-2.1,1.3-3.9,3.4-4l15.4-1.4-1.1-12.4-15.4,1.4c-2.1.2-3.9-1.3-4-3.4l-1.4-15.4ZM1590.7,414.1c-2.1.2-3.6,2-3.4,4l1.4,15.4-15.4,1.4c-2.1.2-3.6,2-3.4,4l1.7,19.8c.2,2.1,2,3.6,4,3.4l15.4-1.4,1.4,15.4c.2,2.1,2,3.6,4,3.4l19.8-1.7c2.1-.2,3.6-2,3.4-4l-1.4-15.4,15.4-1.4c2.1-.2,3.6-2,3.4-4l-1.7-19.8c-.2-2.1-2-3.6-4-3.4l-15.4,1.4-1.4-15.4c-.2-2.1-2-3.6-4-3.4l-19.8,1.7ZM1537.7,513.5h0c2.1-.2,3.6-2,3.4-4s-2-3.6-4-3.4h0c-2.1.2-3.6,2-3.4,4s2,3.6,4,3.4ZM1556.2,511.9l115.3-10.1c2.1-.2,3.6-2,3.4-4s-2-3.6-4-3.4l-115.3,10.1c-2.1.2-3.6,2-3.4,4s2,3.6,4,3.4ZM1540,540.2h0c2.1-.2,3.6-2,3.4-4s-2-3.6-4-3.4h0c-2.1.2-3.6,2-3.4,4s2,3.6,4,3.4ZM1558.6,538.5c-2.1.2-3.9-1.3-4-3.4s1.3-3.9,3.4-4l115.3-10.1c2.1-.2,3.9,1.3,4,3.4s-1.3,3.9-3.4,4l-115.3,10.1ZM1542.4,566.7h0c2.1-.2,3.6-2,3.4-4s-2-3.6-4-3.4h0c-2.1.2-3.6,2-3.4,4s2,3.6,4,3.4ZM1544.7,593.3h0c2.1-.2,3.6-2,3.4-4s-2-3.6-4-3.4h0c-2.1.2-3.6,2-3.4,4s2,3.6,4,3.4ZM1673,578.5v-19.2c-.1,0,20.8,11.4,20.8,11.4l-20.8,13.3v-5.1c0,0,0-.2,0-.3h0ZM1563.2,591.7c-2.1.2-3.9-1.3-4-3.4s1.3-3.9,3.4-4l102.9-9v-19.3c-.1,0-104.6,9.1-104.6,9.1-2.1.2-3.9-1.3-4-3.4s1.3-3.9,3.4-4l107.1-9.4,27.5-50.7h0s0,0,0,0l8.9-16.5-8.8-100.8c0-1.1-.6-2-1.4-2.6-.8-.6-1.8-1-2.8-.9l-43.3,3.8.5,5.4c.2,2.1-1.3,3.9-3.4,4l-91.4,8c-2.1.2-3.9-1.3-4-3.4l-.5-5.4-43.3,3.8c-1.1,0-2,.6-2.6,1.4-.6.8-1,1.8-.9,2.8l18,206.1,26.3-2.3c2.1-.2,3.9,1.3,4,3.4l2.9,32.7,159.3-13.9c1.1,0,2-.6,2.6-1.4.6-.8,1-1.8.9-2.8l-5.1-58.5-6.4,11.8c-.4.7-.9,1.2-1.5,1.5l-31.3,20c-.6.5-1.4.8-2.2.8-2.1,0-3.7-1.6-3.8-3.7v-8c0,0-102.4,9-102.4,9h0Z"/>
  <path class="st4" d="M2127.2,303.2l9.6-14.5-13.4-8.8-9.6,14.5,13.4,8.8ZM2082.1,318.6l14.8-22.4,6.4,4.2h0s28.9,19.1,28.9,19.1l-2.8,4.2h0s0,0,0,0l-51.1,77.2-35.3-23.3,12.8-19.4c.1-.2.3-.4.4-.6l25.5-38.5c.1-.2.3-.4.4-.6h0ZM2071.9,410.6v-.8l-34.9-23.1-43.2,65.3,35.3,23.3,17.6-26.6c.1-.2.3-.4.4-.6l24.8-37.4h0ZM1753.8,516.8l-.2-.2h0c0,0,.3.2.3.2ZM1977,174.3v15h63.4c4.6,0,8.7,1.9,11.7,4.8,3,3,4.8,7.1,4.8,11.7v131.2l15-22.7v-108.5c0-8.7-3.5-16.5-9.3-22.3-5.7-5.7-13.6-9.3-22.3-9.3h-63.4ZM1937.5,150h34c3,0,5.4,2.4,5.4,5.4v7.9h63.4c11.7,0,22.3,4.8,29.9,12.5,7.7,7.7,12.5,18.3,12.5,29.9v92.1l8-12.1c1.7-2.5,5-3.2,7.5-1.5l6.4,4.2,12.6-19c1.7-2.5,5-3.2,7.5-1.5l22.4,14.8c2.5,1.7,3.2,5,1.5,7.5l-12.6,19,6.4,4.2c2.5,1.7,3.2,5,1.5,7.5l-2.8,4.2,4.7,3.1c3.8,2.5,6.2,6.4,7.1,10.5.8,4.2.1,8.7-2.4,12.5l-23.6,35.6c-1.7,2.5-5,3.2-7.5,1.5-2.5-1.7-3.2-5-1.5-7.5l23.3-35.3c.1-.2.2-.4.3-.5.8-1.3,1-2.7.7-4.1-.3-1.4-1.1-2.6-2.2-3.5-.2-.1-.4-.2-.5-.4l-4.4-2.9-52.7,79.6v141.3c0,11.7-4.8,22.3-12.5,29.9-7.7,7.7-18.3,12.5-29.9,12.5h-271.5c-11.7,0-22.3-4.7-29.9-12.4-7.7-7.7-12.5-18.3-12.5-29.9V205.8c0-11.7,4.8-22.3,12.5-29.9,7.7-7.7,18.3-12.5,29.9-12.5h63.4v-7.9c0-3,2.4-5.4,5.4-5.4h34c1.2-7,4.6-13.2,9.4-18,6-6,14.3-9.6,23.5-9.6s17.4,3.7,23.5,9.6c4.8,4.8,8.2,11,9.4,18h0ZM1966.1,160.9h-33.5c-3,0-5.4-2.4-5.4-5.4s0-.2,0-.4c-.2-6-2.7-11.4-6.7-15.3-4.1-4-9.7-6.5-15.9-6.5s-11.8,2.5-15.9,6.5c-4.1,4-6.6,9.6-6.7,15.8,0,3-2.5,5.4-5.4,5.4h0s-33.5,0-33.5,0v41.7h122.9v-41.7ZM1796.3,551.2v-32.8h-27l27,32.8ZM1753.6,516.5c0,0-.1-.1-.2-.2h0c0-.1,0-.1,0-.1-.1-.2-.3-.4-.4-.6h0c0-.2,0-.2-.1-.3h0c0,0,0-.1,0-.1h0c0-.1,0-.2,0-.2h0c0,0,0-.2,0-.2h0c0,0,0-.1,0-.1h0c0,0,0-.1,0-.1h0c0,0,0-.1,0-.1h0c0-.1,0-.2,0-.2h0s0-.1,0-.1h0s0-.1,0-.1h0s0-.1,0-.1h0s0-.1,0-.1h0c0-.2,0-.3,0-.4h0c0-.1,0-307.3,0-307.3,0-4.6,1.9-8.7,4.8-11.7,3-3,7.1-4.8,11.7-4.8h63.4v-15h-63.4c-8.7,0-16.5,3.5-22.3,9.3-5.7,5.7-9.3,13.6-9.3,22.3v349.4c0,8.7,3.5,16.5,9.3,22.3,5.7,5.7,13.6,9.3,22.3,9.3h271.6c8.7,0,16.5-3.5,22.3-9.3,5.7-5.7,9.3-13.6,9.3-22.3v-124.9l-15,22.7v102.2c0,4.6-1.9,8.7-4.8,11.7-3,3-7.1,4.8-11.7,4.8h-238.7c-1.9,0-3.5-.9-4.5-2.4l-43.7-52.9h0ZM1913.7,252.6h-18.2v22.6c0,3-2.4,5.4-5.4,5.4h-22.6v18.2h22.6c3,0,5.4,2.4,5.4,5.4v22.6h18.2v-22.6c0-3,2.4-5.4,5.4-5.4h22.6v-18.2h-22.6c-3,0-5.4-2.4-5.4-5.4v-22.6ZM1890.1,241.7c-3,0-5.4,2.4-5.4,5.4v22.6h-22.6c-3,0-5.4,2.4-5.4,5.4v29.1c0,3,2.4,5.4,5.4,5.4h22.6v22.6c0,3,2.4,5.4,5.4,5.4h29.1c3,0,5.4-2.4,5.4-5.4v-22.6h22.6c3,0,5.4-2.4,5.4-5.4v-29.1c0-3-2.4-5.4-5.4-5.4h-22.6v-22.6c0-3-2.4-5.4-5.4-5.4h-29.1ZM1800.4,379.4h0c3,0,5.4-2.4,5.4-5.4s-2.4-5.4-5.4-5.4h0c-3,0-5.4,2.4-5.4,5.4s2.4,5.4,5.4,5.4ZM1827.6,379.4h168.8c3,0,5.4-2.4,5.4-5.4s-2.4-5.4-5.4-5.4h-168.8c-3,0-5.4,2.4-5.4,5.4s2.4,5.4,5.4,5.4ZM1800.4,418.4h0c3,0,5.4-2.4,5.4-5.4s-2.4-5.4-5.4-5.4h0c-3,0-5.4,2.4-5.4,5.4s2.4,5.4,5.4,5.4ZM1827.6,418.4c-3,0-5.4-2.4-5.4-5.4s2.4-5.4,5.4-5.4h168.8c3,0,5.4,2.4,5.4,5.4s-2.4,5.4-5.4,5.4h-168.8ZM1800.4,457.3h0c3,0,5.4-2.4,5.4-5.4s-2.4-5.4-5.4-5.4h0c-3,0-5.4,2.4-5.4,5.4s2.4,5.4,5.4,5.4ZM1800.4,496.3h0c3,0,5.4-2.4,5.4-5.4s-2.4-5.4-5.4-5.4h0c-3,0-5.4,2.4-5.4,5.4s2.4,5.4,5.4,5.4ZM1988.8,491l2.2-27.9,29,19.2-31.8,16.6.6-7.5c0-.1,0-.3,0-.5h0ZM1827.6,496.3c-3,0-5.4-2.4-5.4-5.4s2.4-5.4,5.4-5.4h150.7l2.2-28.1h-153c-3,0-5.4-2.4-5.4-5.4s2.4-5.4,5.4-5.4h156.9l46.4-70.2h0s0,0,0,0l15.1-22.8v-147.6c0-1.5-.6-3-1.7-4-1-1-2.4-1.7-4-1.7h-63.4v7.9c0,3-2.4,5.4-5.4,5.4h-133.8c-3,0-5.4-2.4-5.4-5.4v-7.9h-63.4c-1.5,0-3,.6-4,1.7-1,1-1.7,2.4-1.7,4v301.8h38.5c3,0,5.4,2.4,5.4,5.4v47.9h233.2c1.5,0,3-.6,4-1.7,1-1,1.7-2.4,1.7-4v-85.7l-10.8,16.4c-.6.9-1.4,1.6-2.3,2l-48,25.1c-.9.6-2.1.9-3.3.8-3-.2-5.2-2.8-5-5.8l.9-11.6h-149.9,0Z"/>
  <rect class="st7" x="2599.1" y="-.9" width="1278.3" height="723.1"/>
  <path class="st2" d="M3806.4,251.8l12.3-13-12-11.4-12.3,13,12,11.4ZM3757.8,259.3l19-20.1,5.8,5.5h0s25.9,24.6,25.9,24.6l-3.6,3.8h0s0,0,0,0l-65.7,69.3-31.6-30,16.5-17.4c.2-.2.4-.3.5-.6l32.8-34.5c.2-.2.4-.3.5-.6h0ZM3731,350.9l.2-.9-31.3-29.7-55.5,58.6,31.6,30,22.7-23.9c.2-.2.3-.4.5-.6l31.8-33.6h0ZM3389,401.8l-.2-.2h0c0,0,.2.2.2.2ZM3676.9,93.9l-2.7,15.2,64.4,11.4c4.6.8,8.5,3.4,11,7,2.5,3.6,3.6,8.1,2.8,12.7l-23.5,133.2,19.3-20.3,19.4-110.2c1.6-8.8-.6-17.4-5.4-24.3-4.8-6.8-12.1-11.8-20.9-13.4l-64.4-11.4ZM3641.2,62.2l34.5,6.1c3.1.5,5.1,3.4,4.6,6.5l-1.4,8,64.4,11.4c11.9,2.1,21.8,8.8,28.2,18,6.4,9.2,9.4,20.8,7.3,32.6l-16.5,93.5,10.3-10.9c2.1-2.2,5.7-2.3,7.9-.2l5.8,5.5,16.2-17.1c2.1-2.2,5.7-2.3,7.9-.2l20.1,19.1c2.2,2.1,2.3,5.7.2,7.9l-16.2,17.1,5.8,5.5c2.2,2.1,2.3,5.7.2,7.9l-3.6,3.8,4.3,4c3.4,3.2,5.2,7.6,5.3,11.9.1,4.4-1.4,8.8-4.7,12.2l-30.3,32c-2.1,2.2-5.7,2.3-7.9.2-2.2-2.1-2.3-5.7-.2-7.9l30-31.7c.1-.2.3-.3.4-.5,1-1.1,1.5-2.6,1.4-4,0-1.4-.6-2.8-1.7-4-.1-.1-.3-.3-.5-.4l-4-3.8-67.7,71.4-25.3,143.5c-2.1,11.9-8.8,21.8-18,28.2-9.2,6.4-20.8,9.4-32.6,7.3l-275.7-48.6c-11.9-2.1-21.8-8.8-28.2-18-6.4-9.2-9.4-20.8-7.3-32.6l62.6-354.8c2.1-11.9,8.8-21.8,18-28.2,9.2-6.4,20.8-9.4,32.6-7.3l64.4,11.4,1.4-8c.5-3.1,3.4-5.1,6.5-4.6l34.5,6.1c2.5-6.9,7.1-12.6,12.8-16.6,7.2-5,16.3-7.2,25.6-5.6s17,6.8,22.1,14c4,5.7,6.4,12.7,6.4,20h0ZM3668.3,78.4l-34-6c-3.1-.5-5.1-3.4-4.6-6.5s0-.2,0-.4c.9-6.1-.7-12.1-4.1-16.8-3.4-4.8-8.7-8.3-14.9-9.4s-12.4.4-17.3,3.8c-4.9,3.4-8.5,8.6-9.6,14.8-.6,3-3.5,5-6.5,4.5h0s-34-6-34-6l-7.5,42.3,124.8,22,7.5-42.3ZM3426,444.3l5.9-33.3-27.5-4.8,21.6,38.1ZM3388.8,401.4c0,0,0-.1-.1-.2h0c0-.1,0-.1,0-.1-.1-.2-.2-.5-.3-.7h0c0-.2,0-.3,0-.3h0c0,0,0-.1,0-.1h0c0-.1,0-.1,0-.1h0c0,0,0-.1,0-.1v-.2c0,0,0,0,0,0h0s0-.1,0-.1h0c0,0,0-.2,0-.2h0s0-.2,0-.2h0s0-.1,0-.1h0s0-.2,0-.2h0s0-.2,0-.2h0s0-.2,0-.2h0s0-.1,0-.1h0c0-.2,0-.3,0-.4h0s0-.1,0-.1l55-311.9c.8-4.6,3.4-8.5,7-11,3.6-2.5,8.1-3.6,12.7-2.8l64.4,11.4,2.7-15.2-64.4-11.4c-8.8-1.6-17.4.6-24.3,5.4-6.8,4.8-11.8,12.1-13.4,20.9l-62.6,354.8c-1.6,8.8.6,17.4,5.4,24.3,4.8,6.8,12.1,11.8,20.9,13.4l275.8,48.6c8.8,1.6,17.4-.6,24.3-5.4,6.8-4.8,11.8-12.1,13.4-20.9l22.4-126.8-19.3,20.3-18.3,103.8c-.8,4.6-3.4,8.5-7,11-3.6,2.5-8.1,3.6-12.7,2.8l-242.4-42.8c-1.9-.3-3.4-1.6-4.1-3.2l-34.9-61.5h0ZM3598.7,162.1l-18.5-3.3-4,23c-.5,3.1-3.4,5.1-6.5,4.6l-23-4-3.3,18.5,23,4c3.1.5,5.1,3.4,4.6,6.5l-4,23,18.5,3.3,4-23c.5-3.1,3.4-5.1,6.5-4.6l23,4,3.3-18.5-23-4c-3.1-.5-5.1-3.4-4.6-6.5l4-23ZM3576.6,146.8c-3.1-.5-6,1.5-6.5,4.6l-4,23-23-4c-3.1-.5-6,1.5-6.5,4.6l-5.2,29.5c-.5,3.1,1.5,6,4.6,6.5l23,4-4,23c-.5,3.1,1.5,6,4.6,6.5l29.5,5.2c3.1.5,6-1.5,6.5-4.6l4-23,23,4c3.1.5,6-1.5,6.5-4.6l5.2-29.5c.5-3.1-1.5-6-4.6-6.5l-23-4,4-23c.5-3.1-1.5-6-4.6-6.5l-29.5-5.2ZM3460.9,270.6h0c3.1.5,6-1.5,6.5-4.5s-1.5-6-4.6-6.5h0c-3.1-.5-6,1.5-6.5,4.5s1.5,6,4.6,6.5ZM3488.5,275.5l171.4,30.2c3.1.5,6-1.5,6.5-4.6s-1.5-6-4.6-6.5l-171.4-30.2c-3.1-.5-6,1.5-6.5,4.6s1.5,6,4.6,6.5ZM3454,310.2h0c3.1.5,6-1.5,6.5-4.5s-1.5-6-4.6-6.5h0c-3.1-.5-6,1.5-6.5,4.5s1.5,6,4.6,6.5ZM3481.5,315.1c-3.1-.5-5.1-3.4-4.6-6.5.5-3.1,3.4-5.1,6.5-4.6l171.4,30.2c3.1.5,5.1,3.4,4.6,6.5s-3.4,5.1-6.5,4.6l-171.4-30.2ZM3447,349.7h0c3.1.5,6-1.5,6.5-4.5s-1.5-6-4.6-6.5h0c-3.1-.5-6,1.5-6.5,4.5s1.5,6,4.6,6.5ZM3440,389.3h0c3.1.5,6-1.5,6.5-4.5s-1.5-6-4.6-6.5h0c-3.1-.5-6,1.5-6.5,4.5s1.5,6,4.6,6.5ZM3632.2,417.7l7.3-27.9,26,24.7-35.3,11.2,1.9-7.5c0-.1,0-.3.1-.5h0ZM3467.6,394.2c-3.1-.5-5.1-3.4-4.6-6.5s3.4-5.1,6.5-4.6l153.1,27,7.3-28.1-155.3-27.4c-3.1-.5-5.1-3.4-4.6-6.5.5-3.1,3.4-5.1,6.5-4.6l159.3,28.1,59.7-63h0s0,0,0,0l19.4-20.4,26.4-149.9c.3-1.6-.1-3.1-1-4.3-.9-1.2-2.2-2.1-3.7-2.4l-64.4-11.4-1.4,8c-.5,3.1-3.4,5.1-6.5,4.6l-135.9-24c-3.1-.5-5.1-3.4-4.6-6.5l1.4-8-64.4-11.4c-1.6-.3-3.1.1-4.3,1-1.2.9-2.1,2.2-2.4,3.7l-54,306.4,39.1,6.9c3.1.5,5.1,3.4,4.6,6.5l-8.6,48.6,236.8,41.8c1.6.3,3.1-.1,4.3-1,1.2-.9,2.1-2.2,2.4-3.7l15.4-87.1-14,14.7c-.8.8-1.7,1.3-2.7,1.6l-53.3,16.9c-1.1.4-2.3.6-3.5.2-3-.8-4.8-3.8-4-6.8l3-11.6-152.2-26.8h0Z"/>
  <g class="st10">
    <path class="st5" d="M855.4,332.1h0c-3-.5-5.8,1.4-6.3,4.4s1.5,5.8,4.4,6.3h0c3,.5,5.8-1.4,6.3-4.4s-1.5-5.8-4.4-6.3Z"/>
    <path class="st5" d="M848.6,370.4h0c-3-.5-5.8,1.4-6.3,4.4s1.5,5.8,4.4,6.3h0c3,.5,5.8-1.4,6.3-4.4s-1.5-5.8-4.4-6.3Z"/>
    <path class="st5" d="M939.8,208.1l22.3,3.9-3.9,22.3c-.5,3,1.5,5.8,4.4,6.3l28.6,5c3,.5,5.8-1.5,6.3-4.4l3.9-22.3,22.3,3.9c3,.5,5.8-1.5,6.3-4.4l5-28.6c.5-3-1.5-5.8-4.4-6.3l-22.3-3.9,3.9-22.3c.5-3-1.5-5.8-4.4-6.3l-28.6-5c-3-.5-5.8,1.5-6.3,4.4l-3.9,22.3-22.3-3.9c-3-.5-5.8,1.5-6.3,4.4l-5,28.6c-.5,3,1.5,5.8,4.4,6.3ZM950.1,180.5l22.3,3.9c3,.5,5.8-1.5,6.3-4.4l3.9-22.3,17.9,3.2-3.9,22.3c-.5,3,1.5,5.8,4.4,6.3l22.3,3.9-3.2,17.9-22.3-3.9c-3-.5-5.8,1.5-6.3,4.4l-3.9,22.3-17.9-3.2,3.9-22.3c.5-3-1.5-5.8-4.4-6.3l-22.3-3.9,3.2-17.9Z"/>
    <path class="st5" d="M889.3,264.5c-.5,3,1.5,5.8,4.4,6.3l166.2,29.3c3,.5,5.8-1.5,6.3-4.4s-1.5-5.8-4.4-6.3l-166.2-29.3c-3-.5-5.8,1.5-6.3,4.4Z"/>
    <path class="st5" d="M1055.1,327.8l-166.2-29.3c-3-.5-5.8,1.5-6.3,4.4s1.5,5.8,4.4,6.3l166.2,29.3c3,.5,5.8-1.5,6.3-4.4s-1.5-5.8-4.4-6.3Z"/>
    <path class="st5" d="M862.1,293.7h0c-3-.5-5.8,1.4-6.3,4.4s1.5,5.8,4.4,6.3h0c3,.5,5.8-1.4,6.3-4.4s-1.5-5.8-4.4-6.3Z"/>
    <path class="st5" d="M868.9,255.4h0c-3-.5-5.8,1.4-6.3,4.4s1.5,5.8,4.4,6.3h0c3,.5,5.8-1.4,6.3-4.4s-1.5-5.8-4.4-6.3Z"/>
    <g>
      <path class="st5" d="M1140.4,342.8c6.8-38.3,14.3-76.4,19.4-115,.2-1.9.8-3.7,1.6-5.4l13.8-78.4c2-11.5-.8-22.8-7.1-31.7-6.2-8.9-15.8-15.4-27.3-17.5l-62.5-11,1.4-7.8c.5-3-1.5-5.8-4.4-6.3l-33.5-5.9h0c0-7.1-2.3-13.8-6.2-19.3-4.9-6.9-12.4-12-21.4-13.6-9-1.6-17.8.6-24.8,5.4-5.6,3.9-10,9.4-12.4,16.1l-33.5-5.9c-3-.5-5.8,1.5-6.3,4.4l-1.4,7.8-62.5-11c-11.5-2-22.8.8-31.7,7.1-8.9,6.2-15.4,15.8-17.5,27.3l-60.7,344.1c-2,11.5.8,22.8,7.1,31.7,6.2,8.9,15.8,15.4,27.3,17.5l267.4,47.1c11.5,2,22.8-.8,31.7-7.1,8.9-6.2,15.4-15.8,17.5-27.3l24.5-139.2,1.2-1.2c-.1-1.7,0-3.3.2-5ZM1076.5,94.7l62.5,11c8.5,1.5,15.7,6.4,20.3,13,4.6,6.6,6.8,15,5.3,23.5l-18.8,106.9-18.7,19.7,22.8-129.2c.8-4.5-.3-8.9-2.7-12.3s-6.2-6-10.7-6.8l-62.5-11,2.6-14.8ZM947,58.3l32.9,5.8h0c2.9.5,5.7-1.4,6.3-4.4,1.2-6.1,4.6-11.1,9.4-14.4,4.7-3.3,10.7-4.7,16.7-3.6s11.2,4.5,14.5,9.2c3.3,4.6,4.8,10.3,4,16.3,0,.1,0,.2,0,.3-.5,3,1.5,5.8,4.4,6.3l32.9,5.8-7.2,41-121.1-21.3,7.2-41ZM932.5,109.1l131.8,23.2c3,.5,5.8-1.5,6.3-4.4l1.4-7.8,62.5,11c1.5.3,2.8,1.1,3.6,2.3.8,1.2,1.2,2.7,1,4.2l-25.6,145.4-18.8,19.8h0s0,0,0,0l-57.9,61.1-154.5-27.2c-3-.5-5.8,1.5-6.3,4.4s1.5,5.8,4.4,6.3l150.6,26.6-7.1,27.3-148.4-26.2c-3-.5-5.8,1.5-6.3,4.4s1.5,5.8,4.4,6.3h0s147.6,26,147.6,26l-2.9,11.3c-.7,2.9,1,5.9,3.9,6.6,1.2.3,2.4.2,3.4-.2l51.6-16.4c1-.2,1.9-.7,2.6-1.5l13.5-14.3-14.9,84.4c-.3,1.5-1.1,2.8-2.3,3.6-1.2.8-2.7,1.2-4.2,1l-229.7-40.5,8.3-47.1c.5-3-1.5-5.8-4.4-6.3l-38-6.7,52.4-297.2c.3-1.5,1.1-2.8,2.3-3.6,1.2-.8,2.7-1.2,4.2-1l62.5,11-1.4,7.8c-.5,3,1.5,5.8,4.4,6.3ZM838.8,402.3l-5.7,32.3-20.9-37,26.6,4.7ZM1103.8,486.4c-1.5,8.5-6.4,15.7-13,20.3-6.6,4.6-15,6.8-23.5,5.3l-267.4-47.2c-8.5-1.5-15.7-6.4-20.3-13s-6.8-15-5.3-23.5l60.7-344.1c1.5-8.5,6.4-15.7,13-20.3s15-6.8,23.5-5.3l62.5,11-2.6,14.8-62.5-11c-4.5-.8-8.9.3-12.3,2.7-3.5,2.4-6,6.2-6.8,10.7l-53.4,302.5h0c0,.3,0,.4,0,.5h0s0,.1,0,.1h0s0,.1,0,.1h0s0,.1,0,.1h0s0,.1,0,.1h0s0,.1,0,.1h0s0,.1,0,.1h0s0,.1,0,.1h0c0,0,0,.1,0,.1h0s0,.1,0,.1v.2c0,0,0,0,0,0h0c0,0,0,0,0,0h0c0,.1,0,.2,0,.2,0,0,0,.2,0,.2h0c0,.3.2.6.3.8h0s0,.1,0,.1c0,0,0,.1.1.2h0s33.8,59.7,33.8,59.7c.7,1.6,2.2,2.8,4,3.1l235,41.5c4.5.8,8.9-.3,12.3-2.7,3.5-2.4,6-6.2,6.8-10.7l17.7-100.6,18.7-19.7-21.7,123Z"/>
      <g>
        <rect class="st5" x="1012.7" y="238.6" width="236.6" height="207.9" rx="20" ry="20" transform="translate(597.3 1396.9) rotate(-80)"/>
        <g>
          <path class="st4" d="M1195.9,340.5c-2.7.9-4.1,3.8-3.3,6.4,1.2,3.6.1,4.9-.2,5.4-3,3.7-14.3,7.4-51.3,3.8-2.8-.3-5.3,1.8-5.6,4.6-.3,2.7,1.6,5.1,4.2,5.5s.3,0,.4,0c35.3,3.4,53.3,1.1,60.2-7.6,2.2-2.8,4.4-7.6,2-14.9-.8-2.7-3.7-4.1-6.4-3.2h0Z"/>
          <path class="st4" d="M1191.3,322.7c.2,3.2-.6,5.6-2.6,7.7-4.1,4.3-15.2,9.2-44.8,8.3-2.8,0-5.2,2.1-5.3,5,0,2.6,1.8,4.7,4.2,5.2s.5,0,.7,0c27.1.8,44.3-3,52.4-11.5,4-4.2,5.9-9.4,5.5-15.4-.2-2.8-2.6-4.9-5.4-4.8-2.8.2-4.9,2.6-4.7,5.4h0Z"/>
          <path class="st4" d="M1185,306.3c-.7,4-14.2,11.3-37.4,11.2-2.8,0-5.1,2.3-5.1,5.1,0,2.5,1.8,4.6,4.2,5s.6,0,.9,0c25.5,0,45.5-8.2,47.5-19.6.7-4.2-.3-12.2-15.8-17.8-2.7-1-5.6.4-6.5,3.1-1,2.7.4,5.6,3.1,6.5,7.1,2.6,9.4,5.3,9.2,6.4h0Z"/>
          <path class="st4" d="M1130.1,278c-.5,2.8,1.4,5.4,4.1,5.9l12.5,2.2c2.8.5,5.4-1.4,5.9-4.1s-1.4-5.4-4.1-5.9l-12.5-2.2c-2.8-.5-5.4,1.4-5.9,4.1Z"/>
          <path class="st4" d="M1127.9,290.6c-.5,2.8,1.4,5.4,4.1,5.9l12.5,2.2c2.8.5,5.4-1.4,5.9-4.1s-1.4-5.4-4.1-5.9l-12.5-2.2c-2.8-.5-5.4,1.3-5.9,4.1Z"/>
          <path class="st4" d="M1125.7,303.2c-.5,2.8,1.4,5.4,4.1,5.9l12.5,2.2c2.8.5,5.4-1.4,5.9-4.1s-1.4-5.4-4.1-5.9l-12.5-2.2c-2.8-.5-5.4,1.4-5.9,4.1Z"/>
          <path class="st4" d="M1135.2,315.2c-2.8-.5-5.4,1.4-5.9,4.1l-10.8,61.3c-.5,2.8,1.4,5.4,4.1,5.9s5.4-1.4,5.9-4.1l10.8-61.3c.5-2.8-1.4-5.4-4.1-5.9h0Z"/>
          <path class="st4" d="M1081.4,288.1c-2,11.5,13.9,26,37.9,34.7.3.1.6.2.8.2,2.4.4,4.8-.9,5.7-3.3,1-2.7-.4-5.6-3.1-6.5-21.9-7.9-32-19.4-31.3-23.3s3.3-2.9,10.8-2.9c2.8,0,5.1-2.3,5.1-5.1,0-2.8-2.3-5.1-5.1-5.1-16.4,0-20.1,7.1-20.9,11.3h0Z"/>
          <path class="st4" d="M1070.4,315.4c4.8,10.8,19.6,20.2,45.3,28.7.2,0,.5.1.7.2,2.5.4,4.9-1,5.7-3.4.9-2.7-.6-5.6-3.2-6.5-28.1-9.3-36.8-17.7-39.2-23.2-1.2-2.7-1.1-5.2.1-8.1,1.1-2.6,0-5.6-2.6-6.7-2.6-1.1-5.6,0-6.7,2.6-2.4,5.6-2.5,11.1-.1,16.4h0Z"/>
          <path class="st4" d="M1059,333.8c3.6,10.6,19.7,18.9,54,27.8.1,0,.3,0,.4,0,2.6.5,5.2-1.2,5.8-3.8.7-2.7-.9-5.5-3.7-6.2-36-9.3-45.4-16.6-46.9-21.1-.2-.6-.7-2.2,1.6-5.1,1.7-2.2,1.4-5.4-.8-7.2-2.2-1.7-5.4-1.4-7.2.8-4.8,6.1-4.4,11.4-3.3,14.7h0Z"/>
          <path class="st4" d="M1112.6,375c2.8-.4,4.8-2.9,4.4-5.7-.4-2.8-2.9-4.8-5.7-4.4-34.1,4.3-46.9-2-48.9-5.8-1.2-2.4,1.2-5.7,2.8-7.5,1.9-2.1,1.7-5.3-.4-7.2-2.1-1.9-5.3-1.7-7.2.4-7.8,8.7-6,15.6-4.2,19,3,5.7,10.1,9.6,20.7,11.4s23.1,1.7,38.5-.2h0Z"/>
          <path class="st4" d="M1130.2,409c.5-2.8-1.4-5.4-4.1-5.9l-12.5-2.2c-2.8-.5-5.4,1.4-5.9,4.1s1.4,5.4,4.1,5.9l12.5,2.2c2.8.5,5.4-1.4,5.9-4.1Z"/>
          <path class="st4" d="M1132.5,396c.5-2.8-1.4-5.4-4.1-5.9l-12.5-2.2c-2.8-.5-5.4,1.4-5.9,4.1s1.4,5.4,4.1,5.9l12.5,2.2c2.8.5,5.4-1.4,5.9-4.1Z"/>
          <path class="st4" d="M1198,369.5c-1-2.6-4-3.9-6.6-2.8-2.6,1.1-3.9,4-2.8,6.6.9,2.2,2.1,6.2,0,8-3.2,2.9-17.4,4.4-48-11.3-2.5-1.3-5.6-.3-6.9,2.2-1.3,2.5-.3,5.6,2.2,6.9,13.9,7.1,26.2,11.6,36.2,13.4,10.6,1.9,18.6.7,23.4-3.7,2.8-2.6,6.8-8.5,2.5-19.3h0Z"/>
        </g>
      </g>
    </g>
  </g>
  <g class="st10">
    <path class="st5" d="M190.7,554.1h0c-2,.2-3.5,2-3.3,4s1.9,3.5,4,3.3h0c2-.2,3.5-2,3.3-4s-1.9-3.5-4-3.3Z"/>
    <path class="st5" d="M193,580.2h0c-2,.2-3.5,2-3.3,4s1.9,3.5,4,3.3h0c2-.2,3.5-2,3.3-4s-1.9-3.5-4-3.3Z"/>
    <path class="st5" d="M223.9,459l15.1-1.3,1.3,15.1c.2,2,1.9,3.5,4,3.3l19.5-1.7c2-.2,3.5-1.9,3.3-4l-1.3-15.1,15.1-1.3c2-.2,3.5-1.9,3.3-4l-1.7-19.5c-.2-2-1.9-3.5-4-3.3l-15.1,1.3-1.3-15.1c-.2-2-1.9-3.5-4-3.3l-19.5,1.7c-2,.2-3.5,1.9-3.3,4l1.3,15.1-15.1,1.3c-2,.2-3.5,1.9-3.3,4l1.7,19.5c.2,2,1.9,3.5,4,3.3ZM225.9,439.2l15.1-1.3c2-.2,3.5-1.9,3.3-4l-1.3-15.1,12.2-1.1,1.3,15.1c.2,2,1.9,3.5,4,3.3l15.1-1.3,1.1,12.2-15.1,1.3c-2,.2-3.5,1.9-3.3,4l1.3,15.1-12.2,1.1-1.3-15.1c-.2-2-1.9-3.5-4-3.3l-15.1,1.3-1.1-12.2Z"/>
    <path class="st5" d="M201,504.3c.2,2,1.9,3.5,4,3.3l113-9.9c2-.2,3.5-1.9,3.3-4s-1.9-3.5-4-3.3l-113,9.9c-2,.2-3.5,1.9-3.3,4Z"/>
    <path class="st5" d="M319.6,516.6l-113,9.9c-2,.2-3.5,1.9-3.3,4s1.9,3.5,4,3.3l113-9.9c2-.2,3.5-1.9,3.3-4-.2-2-1.9-3.5-4-3.3Z"/>
    <path class="st5" d="M188.4,528.1h0c-2,.2-3.5,2-3.3,4s1.9,3.5,4,3.3h0c2-.2,3.5-2,3.3-4s-1.9-3.5-4-3.3Z"/>
    <path class="st5" d="M186.2,502h0c-2,.2-3.5,2-3.3,4s1.9,3.5,4,3.3h0c2-.2,3.5-2,3.3-4s-1.9-3.5-4-3.3Z"/>
    <g>
      <path class="st5" d="M377.6,511.5c-2.3-26-4-52.1-7.4-78-.2-1.3-.1-2.5,0-3.8l-4.7-53.3c-.7-7.8-4.5-14.6-10.1-19.3-5.6-4.7-13-7.3-20.8-6.6l-42.5,3.7-.5-5.3c-.2-2-1.9-3.5-4-3.3l-22.7,2h0c-1.2-4.6-3.9-8.6-7.4-11.5-4.4-3.6-10.2-5.6-16.3-5.1s-11.5,3.5-15.2,7.8c-3,3.5-4.9,7.8-5.3,12.6l-22.7,2c-2,.2-3.5,1.9-3.3,4l.5,5.3-42.5,3.7c-7.8.7-14.6,4.5-19.3,10.1-4.7,5.6-7.3,13-6.6,20.8l20.5,233.9c.7,7.8,4.5,14.6,10.1,19.3,5.6,4.7,13,7.3,20.8,6.6l181.8-15.9c7.8-.7,14.6-4.5,19.3-10.1,4.7-5.6,7.3-13,6.6-20.8l-8.3-94.6.5-1c-.4-1.1-.6-2.1-.7-3.3ZM292.9,361.6l42.5-3.7c5.8-.5,11.3,1.4,15.4,4.9,4.2,3.5,7,8.6,7.5,14.4l6.4,72.7-8.7,16.1-7.7-87.8c-.3-3-1.8-5.7-3.9-7.5s-5-2.8-8.1-2.6l-42.5,3.7-.9-10ZM202.6,360.5l22.4-2h0c2-.2,3.5-1.9,3.3-3.9-.3-4.1,1.1-8,3.6-10.9,2.5-2.9,6.1-4.9,10.2-5.3s8,1,11,3.4c2.9,2.4,4.9,5.9,5.4,9.9,0,0,0,.2,0,.2.2,2,1.9,3.5,4,3.3l22.4-2,2.4,27.9-82.3,7.2-2.4-27.9ZM202,395.9l89.6-7.8c2-.2,3.5-1.9,3.3-4l-.5-5.3,42.5-3.7c1,0,2,.3,2.8.9.7.6,1.3,1.5,1.4,2.6l8.6,98.8-8.8,16.1h0s0,0,0,0l-27,49.7-105,9.2c-2,.2-3.5,1.9-3.3,4s1.9,3.5,4,3.3l102.4-9v18.9c.1,0-100.8,8.8-100.8,8.8-2,.2-3.5,1.9-3.3,4s1.9,3.5,4,3.3h0s100.3-8.8,100.3-8.8v7.8c0,2,1.7,3.6,3.7,3.6.8,0,1.6-.3,2.2-.7l30.7-19.6c.6-.3,1.1-.8,1.4-1.4l6.3-11.6,5,57.4c0,1-.3,2-.9,2.8-.6.7-1.5,1.3-2.6,1.4l-156.1,13.7-2.8-32c-.2-2-1.9-3.5-4-3.3l-25.8,2.3-17.7-202c0-1,.3-2,.9-2.8.6-.7,1.5-1.3,2.6-1.4l42.5-3.7.5,5.3c.2,2,1.9,3.5,4,3.3ZM192.1,602.6l1.9,21.9-20-20.3,18.1-1.6ZM378.8,611.1c.5,5.8-1.4,11.3-4.9,15.4-3.5,4.2-8.6,7-14.4,7.5l-181.8,15.9c-5.8.5-11.3-1.4-15.4-4.9s-7-8.6-7.5-14.4l-20.5-233.9c-.5-5.8,1.4-11.3,4.9-15.4,3.5-4.2,8.6-7,14.4-7.5l42.5-3.7.9,10-42.5,3.7c-3,.3-5.7,1.8-7.5,3.9-1.8,2.2-2.8,5-2.6,8.1l18,205.6h0c0,.2,0,.3,0,.4h0s0,0,0,0h0s0,0,0,0h0s0,0,0,0h0s0,0,0,0h0s0,0,0,0h0s0,0,0,0h0s0,0,0,0h0s0,0,0,0h0s0,0,0,0h0c0,.1,0,.1,0,.1h0s0,0,0,0h0c0,0,0,.1,0,.1,0,0,0,0,0,.1h0c0,.2.2.3.3.5h0s0,0,0,0c0,0,0,0,.1.1h0s32.3,32.8,32.3,32.8c.7.9,1.9,1.4,3.1,1.3l159.8-14c3-.3,5.7-1.8,7.5-3.9,1.8-2.2,2.8-5.1,2.6-8.1l-6-68.4,8.7-16.1,7.3,83.6Z"/>
      <g>
        <rect class="st5" x="301.6" y="433.5" width="139.7" height="159" rx="20" ry="20" transform="translate(-43.3 34.3) rotate(-5)"/>
        <g>
          <path class="st4" d="M413.2,500.4c-1.6,1-2,3.2-1,4.7,1.4,2.1.9,3.2.8,3.5-1.3,2.9-8,7.3-32.6,11.4-1.9.3-3.1,2.1-2.8,3.9.3,1.8,1.9,3,3.7,2.9s.2,0,.3,0c23.5-3.9,34.8-8.5,37.8-15.4,1-2.2,1.5-5.7-1.3-10-1-1.6-3.1-2-4.7-1h0Z"/>
          <path class="st4" d="M407.1,489.6c.7,2,.6,3.7-.4,5.5-1.9,3.5-8.3,8.6-27.6,13.2-1.8.4-3,2.3-2.5,4.1.4,1.7,2,2.8,3.6,2.6s.3,0,.5,0c17.7-4.2,28.2-9.6,32.1-16.6,1.9-3.4,2.2-7.1.9-11-.6-1.8-2.6-2.8-4.4-2.1-1.8.6-2.7,2.6-2.1,4.4h0Z"/>
          <path class="st4" d="M400.2,480.1c.2,2.7-7.2,9.8-22.3,13.8-1.8.5-2.9,2.4-2.4,4.2.4,1.6,2,2.7,3.6,2.5s.4,0,.6,0c16.6-4.4,28.1-13.2,27.4-21-.3-2.9-2.3-7.8-13.3-8.8-1.9-.2-3.5,1.2-3.7,3.1-.2,1.9,1.2,3.5,3.1,3.7,5,.4,7,1.8,7.1,2.5h0Z"/>
          <path class="st4" d="M359.7,471.2c.2,1.9,1.8,3.3,3.7,3.1l8.5-.7c1.9-.2,3.3-1.8,3.1-3.7s-1.8-3.3-3.7-3.1l-8.5.7c-1.9.2-3.3,1.8-3.1,3.7Z"/>
          <path class="st4" d="M360.4,479.8c.2,1.9,1.8,3.3,3.7,3.1l8.5-.7c1.9-.2,3.3-1.8,3.1-3.7s-1.8-3.3-3.7-3.1l-8.5.7c-1.9.2-3.3,1.8-3.1,3.7Z"/>
          <path class="st4" d="M361.2,488.4c.2,1.9,1.8,3.3,3.7,3.1l8.5-.7c1.9-.2,3.3-1.8,3.1-3.7s-1.8-3.3-3.7-3.1l-8.5.7c-1.9.2-3.3,1.8-3.1,3.7Z"/>
          <path class="st4" d="M369.4,494.5c-1.9.2-3.3,1.8-3.1,3.7l3.6,41.7c.2,1.9,1.8,3.3,3.7,3.1s3.3-1.8,3.1-3.7l-3.6-41.7c-.2-1.9-1.8-3.3-3.7-3.1h0Z"/>
          <path class="st4" d="M329.8,486.2c.7,7.8,13.6,14.5,30.6,15.9.2,0,.4,0,.6,0,1.6-.1,3-1.4,3.1-3.1.2-1.9-1.2-3.5-3.1-3.7-15.6-1.3-24.2-7-24.4-9.7s1.7-2.4,6.5-3.7c1.8-.5,2.9-2.4,2.4-4.2-.5-1.8-2.4-2.9-4.2-2.4-10.7,2.9-11.8,8.1-11.6,11h0Z"/>
          <path class="st4" d="M327.4,505.9c5,6.2,16.3,9.7,34.4,10.7.2,0,.3,0,.5,0,1.7-.1,3-1.5,3.1-3.2.1-1.9-1.3-3.5-3.2-3.6-19.8-1.2-27-5.1-29.5-8.2-1.2-1.5-1.6-3.2-1.3-5.3.3-1.9-1-3.6-2.9-3.9-1.9-.3-3.6,1-3.9,2.9-.6,4,.3,7.6,2.8,10.7h0Z"/>
          <path class="st4" d="M323.2,519.8c4.2,6.2,16.1,8.8,39.9,8.6,0,0,.2,0,.3,0,1.8-.2,3.1-1.6,3.1-3.4,0-1.9-1.6-3.4-3.5-3.4-25,.2-32.4-2.9-34.1-5.6-.2-.4-.9-1.3.1-3.6.8-1.7,0-3.8-1.8-4.5-1.7-.8-3.8,0-4.5,1.8-2,4.8-.9,8.1.4,10.1h0Z"/>
          <path class="st4" d="M365.2,537.3c1.8-.7,2.6-2.7,1.9-4.5-.7-1.8-2.7-2.6-4.5-1.9-21.4,8.7-30.8,6.9-32.8,4.7-1.2-1.3-.2-3.9.5-5.3.9-1.7.2-3.8-1.5-4.6-1.7-.9-3.8-.2-4.6,1.5-3.5,7-1.2,11.2.6,13.1,2.9,3.2,8.2,4.4,15.4,3.8,6.8-.6,15.3-2.9,25-6.8h0Z"/>
          <path class="st4" d="M382.5,556.2c-.2-1.9-1.8-3.3-3.7-3.1l-8.5.7c-1.9.2-3.3,1.8-3.1,3.7s1.8,3.3,3.7,3.1l8.5-.7c1.9-.2,3.3-1.8,3.1-3.7Z"/>
          <path class="st4" d="M381.7,547.4c-.2-1.9-1.8-3.3-3.7-3.1l-8.5.7c-1.9.2-3.3,1.8-3.1,3.7s1.8,3.3,3.7,3.1l8.5-.7c1.9-.2,3.3-1.8,3.1-3.7Z"/>
          <path class="st4" d="M419.6,518.8c-1.1-1.5-3.3-1.8-4.8-.7-1.5,1.1-1.8,3.3-.7,4.8,1,1.3,2.4,3.6,1.4,5.2-1.6,2.5-10.6,5.9-33.1,1-1.9-.4-3.7.8-4.1,2.6-.4,1.9.8,3.7,2.6,4.1,10.3,2.2,19,3,25.8,2.4,7.2-.6,12.2-2.8,14.5-6.4,1.4-2.1,3-6.7-1.7-13h0Z"/>
        </g>
      </g>
    </g>
  </g>
  <path class="st3" d="M3056.3,442l5.7-10.5-9.7-5.2-5.7,10.5,9.7,5.2ZM3026.4,455.2l8.8-16.2,4.6,2.5h0s20.8,11.3,20.8,11.3l-1.7,3h0s0,0,0,0l-30.3,55.8-25.5-13.8,7.6-14c0-.1.2-.3.2-.4l15.1-27.8c0-.1.2-.3.2-.4h0ZM3024.9,518.6v-.6c0,0-25.3-13.7-25.3-13.7l-25.6,47.2,25.5,13.8,10.4-19.2c0-.1.2-.3.2-.4l14.7-27h0ZM2814.1,610.1h-.2c0-.1,0-.2,0-.2l.2.2ZM2946,362.9l.9,10.2,43.3-3.8c3.1-.3,6,.7,8.3,2.6,2.2,1.9,3.7,4.6,4,7.7l7.8,89.6,8.9-16.4-6.5-74.1c-.5-5.9-3.4-11.1-7.7-14.6-4.2-3.6-9.8-5.5-15.8-5l-43.3,3.8ZM2917.6,348.7l23.2-2c2.1-.2,3.9,1.3,4,3.4l.5,5.4,43.3-3.8c8-.7,15.5,1.9,21.2,6.7,5.7,4.8,9.6,11.7,10.3,19.7l5.5,62.9,4.8-8.8c1-1.8,3.2-2.5,5-1.5l4.6,2.5,7.5-13.7c1-1.8,3.2-2.5,5-1.5l16.2,8.8c1.8,1,2.5,3.2,1.5,5l-7.5,13.7,4.6,2.5c1.8,1,2.5,3.2,1.5,5l-1.7,3,3.4,1.9c2.7,1.5,4.6,4,5.5,6.8.8,2.8.6,5.9-.9,8.7l-14,25.7c-1,1.8-3.2,2.5-5,1.5-1.8-1-2.5-3.2-1.5-5l13.8-25.5c0-.1.1-.3.2-.4.4-.9.5-1.9.2-2.8-.3-.9-.9-1.7-1.7-2.3-.1,0-.3-.1-.4-.2l-3.2-1.7-31.2,57.5,8.4,96.5c.7,8-1.9,15.5-6.7,21.2-4.8,5.7-11.7,9.6-19.7,10.3l-185.4,16.2c-8,.7-15.5-1.9-21.2-6.7-5.7-4.8-9.6-11.7-10.3-19.7l-20.9-238.6c-.7-8,1.9-15.5,6.7-21.2,4.8-5.7,11.7-9.6,19.7-10.3l43.3-3.8-.5-5.4c-.2-2.1,1.3-3.9,3.4-4l23.2-2c.4-4.8,2.4-9.3,5.4-12.8,3.8-4.4,9.2-7.4,15.5-8s12.1,1.5,16.6,5.2c3.6,3,6.3,7,7.5,11.7h0ZM2937.8,354.4l-22.8,2c-2.1.2-3.9-1.3-4-3.4s0-.2,0-.2c-.5-4.1-2.5-7.6-5.5-10.1-3-2.5-7-3.9-11.2-3.5s-7.9,2.4-10.4,5.4c-2.5,3-4,6.9-3.7,11.2.1,2-1.4,3.8-3.4,4h0s-22.8,2-22.8,2l2.5,28.5,83.9-7.3-2.5-28.5ZM2845.1,631.1l-2-22.4-18.5,1.6,20.4,20.8ZM2813.9,609.9s0,0-.1-.1h0c0,0,0,0,0,0-.1-.1-.2-.3-.3-.4h0c0-.1,0-.1,0-.2h0s0,0,0,0h0c0,0,0,0,0,0h0s0,0,0,0h0c0-.1,0-.2,0-.2h0s0,0,0,0h0s0,0,0,0h0s0,0,0,0h0s0,0,0,0h0s0,0,0,0h0s0,0,0,0h0s0,0,0,0h0s0,0,0,0h0c0-.1,0-.2,0-.3h0s0,0,0,0l-18.3-209.8c-.3-3.1.7-6,2.6-8.3,1.9-2.2,4.6-3.7,7.7-4l43.3-3.8-.9-10.2-43.3,3.8c-5.9.5-11.1,3.4-14.6,7.7-3.6,4.2-5.5,9.8-5,15.8l20.9,238.6c.5,5.9,3.4,11.1,7.7,14.6,4.2,3.6,9.8,5.5,15.8,5l185.4-16.2c5.9-.5,11.1-3.4,14.6-7.7,3.6-4.2,5.5-9.8,5-15.8l-7.5-85.3-8.9,16.4,6.1,69.8c.3,3.1-.7,6-2.6,8.3-1.9,2.2-4.6,3.7-7.7,4l-163,14.2c-1.3.1-2.4-.4-3.2-1.3l-33-33.5h0ZM2907.5,420.2l-12.4,1.1,1.4,15.4c.2,2.1-1.3,3.9-3.4,4l-15.4,1.4,1.1,12.4,15.4-1.4c2.1-.2,3.9,1.3,4,3.4l1.4,15.4,12.4-1.1-1.4-15.4c-.2-2.1,1.3-3.9,3.4-4l15.4-1.4-1.1-12.4-15.4,1.4c-2.1.2-3.9-1.3-4-3.4l-1.4-15.4ZM2890.7,414.1c-2.1.2-3.6,2-3.4,4l1.4,15.4-15.4,1.4c-2.1.2-3.6,2-3.4,4l1.7,19.8c.2,2.1,2,3.6,4,3.4l15.4-1.4,1.4,15.4c.2,2.1,2,3.6,4,3.4l19.8-1.7c2.1-.2,3.6-2,3.4-4l-1.4-15.4,15.4-1.4c2.1-.2,3.6-2,3.4-4l-1.7-19.8c-.2-2.1-2-3.6-4-3.4l-15.4,1.4-1.4-15.4c-.2-2.1-2-3.6-4-3.4l-19.8,1.7ZM2837.7,513.5h0c2.1-.2,3.6-2,3.4-4s-2-3.6-4-3.4h0c-2.1.2-3.6,2-3.4,4s2,3.6,4,3.4ZM2856.2,511.9l115.3-10.1c2.1-.2,3.6-2,3.4-4s-2-3.6-4-3.4l-115.3,10.1c-2.1.2-3.6,2-3.4,4s2,3.6,4,3.4ZM2840,540.2h0c2.1-.2,3.6-2,3.4-4s-2-3.6-4-3.4h0c-2.1.2-3.6,2-3.4,4s2,3.6,4,3.4ZM2858.6,538.5c-2.1.2-3.9-1.3-4-3.4s1.3-3.9,3.4-4l115.3-10.1c2.1-.2,3.9,1.3,4,3.4s-1.3,3.9-3.4,4l-115.3,10.1ZM2842.4,566.7h0c2.1-.2,3.6-2,3.4-4s-2-3.6-4-3.4h0c-2.1.2-3.6,2-3.4,4s2,3.6,4,3.4ZM2844.7,593.3h0c2.1-.2,3.6-2,3.4-4s-2-3.6-4-3.4h0c-2.1.2-3.6,2-3.4,4s2,3.6,4,3.4ZM2973,578.5v-19.2c-.1,0,20.8,11.4,20.8,11.4l-20.8,13.3v-5.1c0,0,0-.2,0-.3h0ZM2863.2,591.7c-2.1.2-3.9-1.3-4-3.4s1.3-3.9,3.4-4l102.9-9v-19.3c-.1,0-104.6,9.1-104.6,9.1-2.1.2-3.9-1.3-4-3.4s1.3-3.9,3.4-4l107.1-9.4,27.5-50.7h0s0,0,0,0l8.9-16.5-8.8-100.8c0-1.1-.6-2-1.4-2.6-.8-.6-1.8-1-2.8-.9l-43.3,3.8.5,5.4c.2,2.1-1.3,3.9-3.4,4l-91.4,8c-2.1.2-3.9-1.3-4-3.4l-.5-5.4-43.3,3.8c-1.1,0-2,.6-2.6,1.4-.6.8-1,1.8-.9,2.8l18,206.1,26.3-2.3c2.1-.2,3.9,1.3,4,3.4l2.9,32.7,159.3-13.9c1.1,0,2-.6,2.6-1.4.6-.8,1-1.8.9-2.8l-5.1-58.5-6.4,11.8c-.4.7-.9,1.2-1.5,1.5l-31.3,20c-.6.5-1.4.8-2.2.8-2.1,0-3.7-1.6-3.8-3.7v-8c0,0-102.4,9-102.4,9h0Z"/>
  <path class="st4" d="M3427.2,303.2l9.6-14.5-13.4-8.8-9.6,14.5,13.4,8.8ZM3382.1,318.6l14.8-22.4,6.4,4.2h0s28.9,19.1,28.9,19.1l-2.8,4.2h0s0,0,0,0l-51.1,77.2-35.3-23.3,12.8-19.4c.1-.2.3-.4.4-.6l25.5-38.5c.1-.2.3-.4.4-.6h0ZM3371.9,410.6v-.8l-34.9-23.1-43.2,65.3,35.3,23.3,17.6-26.6c.1-.2.3-.4.4-.6l24.8-37.4h0ZM3053.8,516.8l-.2-.2h0c0,0,.3.2.3.2ZM3277,174.3v15h63.4c4.6,0,8.7,1.9,11.7,4.8,3,3,4.8,7.1,4.8,11.7v131.2l15-22.7v-108.5c0-8.7-3.5-16.5-9.3-22.3-5.7-5.7-13.6-9.3-22.3-9.3h-63.4ZM3237.5,150h34c3,0,5.4,2.4,5.4,5.4v7.9h63.4c11.7,0,22.3,4.8,29.9,12.5,7.7,7.7,12.5,18.3,12.5,29.9v92.1l8-12.1c1.7-2.5,5-3.2,7.5-1.5l6.4,4.2,12.6-19c1.7-2.5,5-3.2,7.5-1.5l22.4,14.8c2.5,1.7,3.2,5,1.5,7.5l-12.6,19,6.4,4.2c2.5,1.7,3.2,5,1.5,7.5l-2.8,4.2,4.7,3.1c3.8,2.5,6.2,6.4,7.1,10.5.8,4.2.1,8.7-2.4,12.5l-23.6,35.6c-1.7,2.5-5,3.2-7.5,1.5-2.5-1.7-3.2-5-1.5-7.5l23.3-35.3c.1-.2.2-.4.3-.5.8-1.3,1-2.7.7-4.1-.3-1.4-1.1-2.6-2.2-3.5-.2-.1-.4-.2-.5-.4l-4.4-2.9-52.7,79.6v141.3c0,11.7-4.8,22.3-12.5,29.9-7.7,7.7-18.3,12.5-29.9,12.5h-271.5c-11.7,0-22.3-4.7-29.9-12.4-7.7-7.7-12.5-18.3-12.5-29.9V205.8c0-11.7,4.8-22.3,12.5-29.9,7.7-7.7,18.3-12.5,29.9-12.5h63.4v-7.9c0-3,2.4-5.4,5.4-5.4h34c1.2-7,4.6-13.2,9.4-18,6-6,14.3-9.6,23.5-9.6s17.4,3.7,23.5,9.6c4.8,4.8,8.2,11,9.4,18h0ZM3266.1,160.9h-33.5c-3,0-5.4-2.4-5.4-5.4s0-.2,0-.4c-.2-6-2.7-11.4-6.7-15.3-4.1-4-9.7-6.5-15.9-6.5s-11.8,2.5-15.9,6.5c-4.1,4-6.6,9.6-6.7,15.8,0,3-2.5,5.4-5.4,5.4h0s-33.5,0-33.5,0v41.7h122.9v-41.7ZM3096.3,551.2v-32.8h-27l27,32.8ZM3053.6,516.5c0,0-.1-.1-.2-.2h0c0-.1,0-.1,0-.1-.1-.2-.3-.4-.4-.6h0c0-.2,0-.2-.1-.3h0c0,0,0-.1,0-.1h0c0-.1,0-.2,0-.2h0c0,0,0-.2,0-.2h0c0,0,0-.1,0-.1h0c0,0,0-.1,0-.1h0c0,0,0-.1,0-.1h0c0-.1,0-.2,0-.2h0s0-.1,0-.1h0s0-.1,0-.1h0s0-.1,0-.1h0s0-.1,0-.1h0c0-.2,0-.3,0-.4h0c0-.1,0-307.3,0-307.3,0-4.6,1.9-8.7,4.8-11.7,3-3,7.1-4.8,11.7-4.8h63.4v-15h-63.4c-8.7,0-16.5,3.5-22.3,9.3-5.7,5.7-9.3,13.6-9.3,22.3v349.4c0,8.7,3.5,16.5,9.3,22.3,5.7,5.7,13.6,9.3,22.3,9.3h271.6c8.7,0,16.5-3.5,22.3-9.3,5.7-5.7,9.3-13.6,9.3-22.3v-124.9l-15,22.7v102.2c0,4.6-1.9,8.7-4.8,11.7-3,3-7.1,4.8-11.7,4.8h-238.7c-1.9,0-3.5-.9-4.5-2.4l-43.7-52.9h0ZM3213.7,252.6h-18.2v22.6c0,3-2.4,5.4-5.4,5.4h-22.6v18.2h22.6c3,0,5.4,2.4,5.4,5.4v22.6h18.2v-22.6c0-3,2.4-5.4,5.4-5.4h22.6v-18.2h-22.6c-3,0-5.4-2.4-5.4-5.4v-22.6ZM3190.1,241.7c-3,0-5.4,2.4-5.4,5.4v22.6h-22.6c-3,0-5.4,2.4-5.4,5.4v29.1c0,3,2.4,5.4,5.4,5.4h22.6v22.6c0,3,2.4,5.4,5.4,5.4h29.1c3,0,5.4-2.4,5.4-5.4v-22.6h22.6c3,0,5.4-2.4,5.4-5.4v-29.1c0-3-2.4-5.4-5.4-5.4h-22.6v-22.6c0-3-2.4-5.4-5.4-5.4h-29.1ZM3100.4,379.4h0c3,0,5.4-2.4,5.4-5.4s-2.4-5.4-5.4-5.4h0c-3,0-5.4,2.4-5.4,5.4s2.4,5.4,5.4,5.4ZM3127.6,379.4h168.8c3,0,5.4-2.4,5.4-5.4s-2.4-5.4-5.4-5.4h-168.8c-3,0-5.4,2.4-5.4,5.4s2.4,5.4,5.4,5.4ZM3100.4,418.4h0c3,0,5.4-2.4,5.4-5.4s-2.4-5.4-5.4-5.4h0c-3,0-5.4,2.4-5.4,5.4s2.4,5.4,5.4,5.4ZM3127.6,418.4c-3,0-5.4-2.4-5.4-5.4s2.4-5.4,5.4-5.4h168.8c3,0,5.4,2.4,5.4,5.4s-2.4,5.4-5.4,5.4h-168.8ZM3100.4,457.3h0c3,0,5.4-2.4,5.4-5.4s-2.4-5.4-5.4-5.4h0c-3,0-5.4,2.4-5.4,5.4s2.4,5.4,5.4,5.4ZM3100.4,496.3h0c3,0,5.4-2.4,5.4-5.4s-2.4-5.4-5.4-5.4h0c-3,0-5.4,2.4-5.4,5.4s2.4,5.4,5.4,5.4ZM3288.8,491l2.2-27.9,29,19.2-31.8,16.6.6-7.5c0-.1,0-.3,0-.5h0ZM3127.6,496.3c-3,0-5.4-2.4-5.4-5.4s2.4-5.4,5.4-5.4h150.7l2.2-28.1h-153c-3,0-5.4-2.4-5.4-5.4s2.4-5.4,5.4-5.4h156.9l46.4-70.2h0s0,0,0,0l15.1-22.8v-147.6c0-1.5-.6-3-1.7-4-1-1-2.4-1.7-4-1.7h-63.4v7.9c0,3-2.4,5.4-5.4,5.4h-133.8c-3,0-5.4-2.4-5.4-5.4v-7.9h-63.4c-1.5,0-3,.6-4,1.7-1,1-1.7,2.4-1.7,4v301.8h38.5c3,0,5.4,2.4,5.4,5.4v47.9h233.2c1.5,0,3-.6,4-1.7,1-1,1.7-2.4,1.7-4v-85.7l-10.8,16.4c-.6.9-1.4,1.6-2.3,2l-48,25.1c-.9.6-2.1.9-3.3.8-3-.2-5.2-2.8-5-5.8l.9-11.6h-149.9,0Z"/>
  <g>
    <path class="st11" d="M500.5,446.4h0c-3,0-5.4,2.4-5.4,5.4s2.4,5.4,5.4,5.4h0c3,0,5.4-2.4,5.4-5.4s-2.4-5.4-5.4-5.4Z"/>
    <path class="st11" d="M500.5,485.4h0c-3,0-5.4,2.4-5.4,5.4s2.4,5.4,5.4,5.4h0c3,0,5.4-2.4,5.4-5.4s-2.4-5.4-5.4-5.4Z"/>
    <path class="st11" d="M562,309.7h22.6v22.6c0,3,2.4,5.4,5.4,5.4h29.1c3,0,5.4-2.4,5.4-5.4v-22.6h22.6c3,0,5.4-2.4,5.4-5.4v-29.1c0-3-2.4-5.4-5.4-5.4h-22.6v-22.6c0-3-2.4-5.4-5.4-5.4h-29.1c-3,0-5.4,2.4-5.4,5.4v22.6h-22.6c-3,0-5.4,2.4-5.4,5.4v29.1c0,3,2.4,5.4,5.4,5.4ZM567.5,280.6h22.6c3,0,5.4-2.4,5.4-5.4v-22.6h18.2v22.6c0,3,2.4,5.4,5.4,5.4h22.6v18.2h-22.6c-3,0-5.4,2.4-5.4,5.4v22.6h-18.2v-22.6c0-3-2.4-5.4-5.4-5.4h-22.6v-18.2Z"/>
    <path class="st11" d="M522.2,374c0,3,2.4,5.4,5.4,5.4h168.8c3,0,5.4-2.4,5.4-5.4s-2.4-5.4-5.4-5.4h-168.8c-3,0-5.4,2.4-5.4,5.4Z"/>
    <path class="st11" d="M696.4,407.5h-168.8c-3,0-5.4,2.4-5.4,5.4s2.4,5.4,5.4,5.4h168.8c3,0,5.4-2.4,5.4-5.4s-2.4-5.4-5.4-5.4Z"/>
    <path class="st11" d="M500.5,407.5h0c-3,0-5.4,2.4-5.4,5.4s2.4,5.4,5.4,5.4h0c3,0,5.4-2.4,5.4-5.4s-2.4-5.4-5.4-5.4Z"/>
    <path class="st11" d="M500.5,368.5h0c-3,0-5.4,2.4-5.4,5.4s2.4,5.4,5.4,5.4h0c3,0,5.4-2.4,5.4-5.4s-2.4-5.4-5.4-5.4Z"/>
    <g>
      <path class="st11" d="M783,407.5c0-38.9.8-77.8-.9-116.6,0-1.9.1-3.8.6-5.6v-79.6c0-11.7-4.8-22.3-12.5-29.9-7.7-7.7-18.3-12.5-29.9-12.5h-63.4v-7.9c0-3-2.4-5.4-5.4-5.4h-34c-1.2-6.9-4.6-13.2-9.4-18-6-6-14.3-9.6-23.5-9.6s-17.4,3.7-23.5,9.6c-4.8,4.8-8.2,11-9.4,18h-34c-3,0-5.4,2.4-5.4,5.4v7.9h-63.4c-11.7,0-22.3,4.8-29.9,12.5-7.7,7.7-12.5,18.3-12.5,29.9v349.4c0,11.7,4.8,22.3,12.5,29.9,7.7,7.7,18.3,12.5,29.9,12.5h271.5c11.7,0,22.3-4.8,29.9-12.5,7.7-7.7,12.5-18.3,12.5-29.9v-141.3l.9-1.4c-.4-1.6-.6-3.3-.6-4.9ZM677,174.3h63.4c8.7,0,16.5,3.5,22.3,9.3s9.3,13.6,9.3,22.3v108.5l-15,22.7v-131.2c0-4.5-1.9-8.7-4.8-11.7s-7.1-4.8-11.7-4.8h-63.4v-15ZM543.1,160.9h33.5c3,0,5.4-2.4,5.4-5.4,0-6.2,2.6-11.7,6.7-15.8,4.1-4,9.7-6.5,15.9-6.5s11.8,2.5,15.9,6.5c4,3.9,6.5,9.3,6.7,15.3,0,.1,0,.2,0,.4,0,3,2.4,5.4,5.4,5.4h33.5v41.7s-122.9,0-122.9,0v-41.7ZM537.7,213.4h133.8c3,0,5.4-2.4,5.4-5.4v-7.9h63.4c1.5,0,2.9.6,4,1.7,1,1,1.7,2.4,1.7,4v147.6l-15.1,22.8h0s-46.4,70.3-46.4,70.3h-156.9c-3,0-5.4,2.4-5.4,5.4s2.4,5.4,5.4,5.4h153l-2.2,28.1h-150.7c-3,0-5.4,2.4-5.4,5.4s2.4,5.4,5.4,5.4h0s149.9,0,149.9,0l-.9,11.6c-.2,3,2,5.6,5,5.8,1.2.1,2.4-.2,3.3-.8l48-25.1c.9-.4,1.7-1.1,2.3-2l10.8-16.4v85.7c0,1.5-.6,2.9-1.7,4-1,1-2.4,1.7-4,1.7h-233.2v-47.9c0-3-2.4-5.4-5.4-5.4h-38.5V205.8c0-1.5.6-2.9,1.7-4,1-1,2.4-1.7,4-1.7h63.4v7.9c0,3,2.4,5.4,5.4,5.4ZM496.3,518.4v32.8l-27-32.8h27ZM771.9,555.2c0,8.7-3.5,16.5-9.3,22.3-5.7,5.7-13.6,9.3-22.3,9.3h-271.6c-8.7,0-16.5-3.5-22.3-9.3s-9.3-13.6-9.3-22.3V205.8c0-8.7,3.5-16.5,9.3-22.3s13.6-9.3,22.3-9.3h63.4v15h-63.4c-4.5,0-8.7,1.9-11.7,4.8-3,3-4.8,7.1-4.8,11.7v307.2s0,.1,0,.1c0,.1,0,.3,0,.4h0s0,.1,0,.1h0s0,.1,0,.1h0s0,.1,0,.1h0s0,.1,0,.1h0s0,.1,0,.1h0s0,.1,0,.1h0s0,.1,0,.1h0c0,0,0,.1,0,.1h0s0,.1,0,.1v.2c0,0,.1,0,.1,0h0c0,0,0,.2,0,.2h0c0,.2,0,.3.1.4h0c.1.3.2.5.4.7h0s0,.1,0,.1c0,0,.1.1.2.2h0s43.7,52.9,43.7,52.9c1,1.4,2.6,2.4,4.5,2.4h238.7c4.5,0,8.7-1.8,11.7-4.8,3-3,4.8-7.1,4.8-11.7v-102.2l15-22.7v124.9Z"/>
      <g>
        <rect class="st11" x="669.8" y="290.6" width="207.9" height="236.6" rx="20" ry="20"/>
        <g>
          <path class="st0" d="M837.3,395.6c-2.5,1.3-3.4,4.4-2.1,6.9,1.8,3.3,1,4.8.7,5.3-2.3,4.2-12.8,9.7-49.9,12.7-2.8.2-4.9,2.7-4.7,5.5.2,2.7,2.5,4.7,5.1,4.7s.3,0,.4,0c35.3-2.8,52.7-8.2,58-18,1.7-3.1,3-8.3-.7-15.1-1.3-2.5-4.4-3.4-6.9-2.1h0Z"/>
          <path class="st0" d="M829.6,378.9c.7,3.1.4,5.6-1.3,8-3.3,4.9-13.4,11.7-42.7,16-2.8.4-4.7,3-4.3,5.8.4,2.5,2.6,4.4,5,4.4s.5,0,.7,0c26.8-3.9,43.1-10.6,49.7-20.4,3.2-4.8,4.2-10.3,2.7-16.2-.7-2.7-3.4-4.4-6.2-3.7-2.7.7-4.4,3.4-3.7,6.2h0Z"/>
          <path class="st0" d="M820.6,363.8c0,4-12,13.6-34.9,17.5-2.8.5-4.6,3.1-4.2,5.9.4,2.5,2.6,4.2,5,4.2s.6,0,.9,0c25.1-4.3,43.4-15.9,43.4-27.6,0-4.3-2.4-11.9-18.6-14.8-2.8-.5-5.4,1.4-5.9,4.1-.5,2.8,1.4,5.4,4.1,5.9,7.4,1.3,10.2,3.6,10.2,4.7h0Z"/>
          <path class="st0" d="M761.7,345.4c0,2.8,2.3,5.1,5.1,5.1h12.6c2.8,0,5.1-2.3,5.1-5.1s-2.3-5.1-5.1-5.1h-12.6c-2.8,0-5.1,2.3-5.1,5.1Z"/>
          <path class="st0" d="M761.7,358.2c0,2.8,2.3,5.1,5.1,5.1h12.6c2.8,0,5.1-2.3,5.1-5.1s-2.3-5.1-5.1-5.1h-12.6c-2.8,0-5.1,2.3-5.1,5.1Z"/>
          <path class="st0" d="M761.7,371.1c0,2.8,2.3,5.1,5.1,5.1h12.6c2.8,0,5.1-2.3,5.1-5.1s-2.3-5.1-5.1-5.1h-12.6c-2.8,0-5.1,2.3-5.1,5.1Z"/>
          <path class="st0" d="M773.1,381.3c-2.8,0-5.1,2.3-5.1,5.1v62.3c0,2.8,2.3,5.1,5.1,5.1s5.1-2.3,5.1-5.1v-62.2c0-2.8-2.3-5.1-5.1-5.1h0Z"/>
          <path class="st0" d="M715.4,363.8c0,11.6,18.2,23.2,43.4,27.6.3,0,.6,0,.9,0,2.4,0,4.6-1.7,5-4.2.5-2.8-1.4-5.4-4.2-5.9-22.9-4-34.9-13.5-34.9-17.5s2.8-3.4,10.2-4.7c2.8-.5,4.6-3.1,4.1-5.9-.5-2.8-3.1-4.6-5.9-4.1-16.2,2.8-18.6,10.5-18.6,14.8h0Z"/>
          <path class="st0" d="M709.3,392.6c6.6,9.8,22.8,16.5,49.6,20.4.3,0,.5,0,.7,0,2.5,0,4.7-1.8,5-4.4.4-2.8-1.5-5.4-4.3-5.8-29.2-4.3-39.3-11.1-42.7-16-1.6-2.4-2-5-1.3-8,.7-2.7-1-5.5-3.7-6.2-2.7-.7-5.5,1-6.2,3.7-1.4,5.9-.5,11.3,2.7,16.2h0Z"/>
          <path class="st0" d="M701.3,412.7c5.3,9.8,22.7,15.2,58,18,.1,0,.3,0,.4,0,2.6,0,4.9-2,5.1-4.7.2-2.8-1.9-5.3-4.7-5.5-37.1-2.9-47.6-8.5-49.9-12.7-.3-.5-1.1-2,.7-5.3,1.3-2.5.4-5.6-2.1-6.9-2.5-1.3-5.6-.4-6.9,2.1-3.6,6.8-2.4,12-.7,15.1h0Z"/>
          <path class="st0" d="M761.2,444c2.7-.8,4.2-3.7,3.4-6.4-.8-2.7-3.7-4.2-6.4-3.4-32.8,10.1-46.5,6.2-49.2,2.8-1.6-2.1.2-5.8,1.5-7.9,1.5-2.4.7-5.5-1.6-7-2.4-1.5-5.5-.7-7,1.6-6.2,9.9-3.2,16.4-.9,19.5,3.9,5.1,11.6,7.7,22.4,7.7s23-2.3,37.9-6.9h0Z"/>
          <path class="st0" d="M784.5,474.4c0-2.8-2.3-5.1-5.1-5.1h-12.6c-2.8,0-5.1,2.3-5.1,5.1s2.3,5.1,5.1,5.1h12.6c2.8,0,5.1-2.3,5.1-5.1Z"/>
          <path class="st0" d="M784.5,461.3c0-2.8-2.3-5.1-5.1-5.1h-12.6c-2.8,0-5.1,2.3-5.1,5.1s2.3,5.1,5.1,5.1h12.6c2.8,0,5.1-2.3,5.1-5.1Z"/>
          <path class="st0" d="M844.4,423.8c-1.5-2.4-4.6-3.1-7-1.6-2.4,1.5-3.1,4.6-1.6,7,1.3,2,3.1,5.7,1.5,7.8-2.7,3.5-16.4,7.4-49.2-2.7-2.7-.8-5.6.7-6.4,3.4-.8,2.7.7,5.5,3.4,6.4,14.9,4.6,27.8,6.9,37.9,6.9s18.4-2.6,22.4-7.7c2.3-3,5.3-9.5-.9-19.5h0Z"/>
        </g>
      </g>
    </g>
  </g>
</svg>