<?xml version="1.0" encoding="UTF-8"?>
<svg id="Camada_1" xmlns="http://www.w3.org/2000/svg" xmlns:xlink="http://www.w3.org/1999/xlink" version="1.1" viewBox="0 0 1280 720">
  <!-- Generator: Adobe Illustrator 29.8.1, SVG Export Plug-In . SVG Version: 2.1.1 Build 2)  -->
  <defs>
    <style>
      .st0 {
        fill: url(#linear-gradient1);
      }

      .st1 {
        font-family: Jost-SemiBold, Jost;
        font-weight: 600;
      }

      .st2 {
        fill: url(#linear-gradient);
      }

      .st3 {
        isolation: isolate;
      }

      .st4 {
        fill: #b43617;
        font-size: 40px;
      }

      .st5 {
        font-family: Jost-Light, Jost;
      }

      .st5, .st6 {
        font-weight: 300;
      }

      .st6 {
        font-family: Jost-LightItalic, Jost;
        font-style: italic;
      }

      .st7 {
        letter-spacing: .6em;
      }

      .st7, .st8 {
        font-family: Jost-Bold, Jost;
        font-weight: 700;
      }

      .st9 {
        fill: #ededed;
      }
    </style>
    <linearGradient id="linear-gradient" x1="640" y1="524.5" x2="640" y2="726.3" gradientTransform="translate(0 720) scale(1 -1)" gradientUnits="userSpaceOnUse">
      <stop offset="0" stop-color="#ff6350" stop-opacity="0"/>
      <stop offset=".4" stop-color="#f38200" stop-opacity=".7"/>
      <stop offset=".9" stop-color="#be4200"/>
    </linearGradient>
    <linearGradient id="linear-gradient1" x1="640" y1="-186.9" x2="640" y2="112.3" gradientTransform="translate(0 720) scale(1 -1)" gradientUnits="userSpaceOnUse">
      <stop offset="0" stop-color="#be4200"/>
      <stop offset=".5" stop-color="#f38200" stop-opacity=".8"/>
      <stop offset="1" stop-color="#ff6350" stop-opacity="0"/>
    </linearGradient>
  </defs>
  <rect class="st2" x="-3.8" y="-6.3" width="1287.7" height="201.8"/>
  <rect class="st0" x="-3.9" y="607.7" width="1287.7" height="299.2"/>
  <g id="zwDaKI.tif">
    <image id="Layer_0" class="st3" width="1172" height="753" transform="translate(-993.1 106.8) scale(.7)" xlink:href="aula1-img2-1.png"/>
  </g>
  <text class="st4" transform="translate(171.8 186.1)"><tspan class="st8" x="0" y="0">Domínio:</tspan><tspan class="st5" x="167.2" y="0"> </tspan><tspan class="st6" x="179.2" y="0">Varidnaviria.</tspan><tspan class="st7" x="0" y="60">	</tspan><tspan class="st8" x="36" y="60">Reino:</tspan><tspan class="st1" x="155.3" y="60"> </tspan><tspan class="st6" x="167.3" y="60">Bamfordvirae.</tspan><tspan class="st7" x="0" y="120" xml:space="preserve">		</tspan><tspan class="st8" x="72" y="120">Filo: </tspan><tspan class="st6" x="164.4" y="120">Nucleocytoviricota.</tspan><tspan class="st7" x="0" y="180" xml:space="preserve">			</tspan><tspan class="st8" x="108" y="180">Classe: </tspan><tspan class="st6" x="252.7" y="180">Pokkesviricetes.</tspan><tspan class="st7" x="0" y="240" xml:space="preserve">				</tspan><tspan class="st8" x="144" y="240">Ordem:</tspan><tspan class="st6" x="286.6" y="240" xml:space="preserve"> Chitivirales.</tspan><tspan class="st7" x="0" y="300" xml:space="preserve">					</tspan><tspan class="st8" x="180" y="300">Família:</tspan><tspan class="st6" x="323.8" y="300" xml:space="preserve"> Poxviridae.</tspan><tspan class="st7" x="0" y="360" xml:space="preserve">						</tspan><tspan class="st8" x="216" y="360">Subfamília:</tspan><tspan class="st6" x="424.1" y="360" xml:space="preserve"> Chordopoxvirinae.</tspan><tspan class="st7" x="0" y="420" xml:space="preserve">							</tspan><tspan class="st8" x="252" y="420">Gênero:</tspan><tspan class="st6" x="406.3" y="420" xml:space="preserve"> Orthopoxvírus.</tspan><tspan class="st8" x="0" y="480" xml:space="preserve">                         Espécies:</tspan><tspan class="st6" x="474.8" y="480" xml:space="preserve"> Orthopoxvirus monkeypox.</tspan></text>
  <g>
    <path class="st9" d="M102.3,58.2c.7-1.8,1.8-3.3,3.1-4.6,1.3-1.3,2.9-2.3,4.7-3,1.8-.7,3.8-1.1,5.9-1.1s4.1.4,5.9,1.1c1.8.7,3.4,1.7,4.7,3,1.3,1.3,2.4,2.8,3.1,4.6s1.1,3.7,1.1,5.9-.4,4.1-1.1,5.9c-.7,1.8-1.8,3.4-3.1,4.7s-2.9,2.4-4.7,3.1c-1.8.7-3.8,1.1-5.9,1.1s-4.1-.4-5.9-1.1-3.4-1.8-4.7-3.1-2.4-2.9-3.1-4.7c-.7-1.8-1.1-3.8-1.1-5.9s.4-4.1,1.1-5.9ZM108.4,68.8c.7,1.4,1.8,2.5,3.1,3.3,1.3.8,2.8,1.2,4.6,1.2s3.3-.4,4.6-1.2,2.3-1.9,3.1-3.3c.7-1.4,1.1-3,1.1-4.8s-.4-3.4-1.1-4.8c-.7-1.4-1.7-2.5-3-3.3s-2.8-1.2-4.6-1.2-3.3.4-4.6,1.2c-1.3.8-2.3,1.9-3.1,3.3-.7,1.4-1.1,3-1.1,4.8s.4,3.4,1.1,4.8h0Z"/>
    <path class="st9" d="M139.5,61.3h4.5c.8,0,1.5,0,2.2-.4.6-.3,1.1-.7,1.4-1.2.3-.5.5-1.1.5-1.8,0-1.1-.4-1.9-1.1-2.4s-1.7-.8-3-.8h-3.1v18.9h3.7c1,0,1.8,0,2.6-.4s1.4-.7,1.8-1.3c.4-.6.7-1.4.7-2.4s-.1-1.3-.4-1.8c-.3-.5-.6-.9-1.1-1.2-.5-.3-1-.6-1.6-.7s-1.3-.2-2-.2h-5.1v-3.1h5.6c1.4,0,2.7,0,3.9.4s2.4.8,3.3,1.4c1,.6,1.8,1.4,2.3,2.4.6,1,.9,2.2.9,3.6s-.4,3.3-1.3,4.5c-.9,1.2-2.1,2-3.7,2.6-1.6.6-3.4.8-5.5.8h-9.9v-28h9.3c1.9,0,3.5.3,4.9.8s2.5,1.3,3.3,2.3,1.2,2.4,1.2,4-.4,2.6-1.2,3.6-1.9,1.8-3.3,2.3c-1.4.5-3.1.8-4.9.8h-5v-2.6h.1Z"/>
    <path class="st9" d="M164.9,71.4c.7.8,1.5,1.4,2.3,1.8.9.4,1.8.6,2.8.6s2.1-.3,2.8-.9,1.1-1.4,1.1-2.4-.2-1.6-.7-2.1c-.4-.5-1.1-1-2-1.4s-1.9-.9-3.2-1.3c-.7-.2-1.4-.6-2.3-1-.9-.4-1.7-.9-2.5-1.6-.8-.7-1.4-1.5-1.9-2.4s-.8-2.1-.8-3.4.4-3,1.2-4.1,1.9-2.1,3.3-2.7c1.4-.6,3-.9,4.7-.9s3.3.3,4.6.9c1.3.6,2.4,1.4,3.2,2.3.9.9,1.5,1.9,2,2.9l-4.5,2.5c-.4-.7-.8-1.3-1.3-1.8s-1.1-1-1.8-1.3-1.4-.5-2.3-.5-2,.3-2.5.8c-.6.5-.8,1.1-.8,1.8s.2,1.3.7,1.8,1.1,1,2.1,1.5c.9.5,2.1.9,3.5,1.4.9.3,1.8.7,2.6,1.2s1.6,1.1,2.3,1.7c.7.7,1.2,1.5,1.6,2.4.4.9.6,2,.6,3.2s-.3,2.6-.8,3.6c-.5,1.1-1.3,2-2.2,2.7s-2,1.3-3.1,1.7c-1.2.4-2.4.6-3.7.6s-3.3-.3-4.8-1-2.8-1.5-3.9-2.7-1.9-2.3-2.6-3.6l4.1-2.9c.6,1,1.2,1.9,1.9,2.7h.3Z"/>
    <path class="st9" d="M190.1,50.1v28h-5.5v-28h5.5ZM188.2,50.1h14.1v4.8h-14.1v-4.8ZM188.2,60.8h13.3v4.8h-13.3v-4.8ZM188.2,73.2h14.1v4.8h-14.1v-4.8Z"/>
    <path class="st9" d="M213.7,50.1v28h-5.7v-28h5.7ZM211.5,50.1h5.9c2.2,0,4.1.4,5.6,1.1s2.7,1.8,3.6,3.1c.8,1.3,1.2,2.9,1.2,4.7s-.4,3.3-1.2,4.7c-.8,1.3-2,2.4-3.6,3.1s-3.4,1.1-5.6,1.1h-5.9v-4.6h5.6c1,0,1.9-.2,2.6-.5.7-.3,1.3-.8,1.7-1.4.4-.6.6-1.4.6-2.3s-.2-1.6-.6-2.3c-.4-.6-1-1.1-1.7-1.4-.7-.3-1.6-.5-2.6-.5h-5.6v-4.9h0ZM220.4,65l9.1,13h-6.8l-8.4-13h6.1Z"/>
    <path class="st9" d="M251.5,50.1h6.6l-14.2,29.6-14.2-29.6h6.6l7.6,18.2,7.6-18.2h0Z"/>
    <path class="st9" d="M266.7,50.1v28h-5.5v-28h5.5ZM264.9,50.1h14.1v4.8h-14.1v-4.8ZM264.9,60.8h13.3v4.8h-13.3v-4.8ZM264.9,73.2h14.1v4.8h-14.1v-4.8Z"/>
    <path class="st9" d="M296.2,58.2c.7-1.8,1.8-3.3,3.1-4.6,1.3-1.3,2.9-2.3,4.7-3,1.8-.7,3.8-1.1,5.9-1.1s4.1.4,5.9,1.1c1.8.7,3.4,1.7,4.7,3,1.3,1.3,2.4,2.8,3.1,4.6s1.1,3.7,1.1,5.9-.4,4.1-1.1,5.9-1.8,3.4-3.1,4.7c-1.3,1.3-2.9,2.4-4.7,3.1-1.8.7-3.8,1.1-5.9,1.1s-4.1-.4-5.9-1.1-3.4-1.8-4.7-3.1c-1.3-1.3-2.4-2.9-3.1-4.7-.7-1.8-1.1-3.8-1.1-5.9s.4-4.1,1.1-5.9ZM302.2,68.8c.7,1.4,1.8,2.5,3.1,3.3s2.8,1.2,4.6,1.2,3.3-.4,4.6-1.2,2.3-1.9,3.1-3.3c.7-1.4,1.1-3,1.1-4.8s-.4-3.4-1.1-4.8-1.7-2.5-3-3.3-2.8-1.2-4.6-1.2-3.3.4-4.6,1.2-2.3,1.9-3.1,3.3c-.7,1.4-1.1,3-1.1,4.8s.4,3.4,1.1,4.8h-.1Z"/>
    <path class="st9" d="M338.3,50.1h20.8v5.2h-7.6v22.8h-5.7v-22.8h-7.5v-5.2h0Z"/>
    <path class="st9" d="M365.3,68.8v1.3c.1,0-3.6,8-3.6,8h-6.4l14.2-29.6,14.2,29.6h-6.5l-3.6-7.8v-1.4l-4.1-9.7-4.2,9.6ZM362.9,67.2h13.4l.7,4.5h-14.8l.7-4.5h0ZM368.3,46l-2.9-1.6,6-6.4,4.1,2-7.2,6Z"/>
    <path class="st9" d="M408.7,50.1l-8.6,13.6,9.2,14.4h-7l-5.6-10-5.8,10h-7l9.4-14.4-8.4-13.6h7l4.8,8.8,4.9-8.8h7.1Z"/>
    <path class="st9" d="M410.1,58.2c.7-1.8,1.8-3.3,3.1-4.6,1.3-1.3,2.9-2.3,4.7-3,1.8-.7,3.8-1.1,5.9-1.1s4.1.4,5.9,1.1c1.8.7,3.4,1.7,4.7,3,1.3,1.3,2.4,2.8,3.1,4.6s1.1,3.7,1.1,5.9-.4,4.1-1.1,5.9-1.8,3.4-3.1,4.7c-1.3,1.3-2.9,2.4-4.7,3.1-1.8.7-3.8,1.1-5.9,1.1s-4.1-.4-5.9-1.1-3.4-1.8-4.7-3.1c-1.3-1.3-2.4-2.9-3.1-4.7-.7-1.8-1.1-3.8-1.1-5.9s.4-4.1,1.1-5.9ZM416.1,68.8c.7,1.4,1.8,2.5,3.1,3.3,1.3.8,2.8,1.2,4.6,1.2s3.3-.4,4.6-1.2,2.3-1.9,3.1-3.3c.7-1.4,1.1-3,1.1-4.8s-.4-3.4-1.1-4.8c-.7-1.4-1.7-2.5-3-3.3s-2.8-1.2-4.6-1.2-3.3.4-4.6,1.2c-1.3.8-2.3,1.9-3.1,3.3-.7,1.4-1.1,3-1.1,4.8s.4,3.4,1.1,4.8h-.1Z"/>
    <path class="st9" d="M468.5,50.1v29.4l-19.9-18.8v17.4h-5.5v-29.4l19.9,18.8v-17.4h5.5Z"/>
    <path class="st9" d="M492.4,50.1v28h-5.8v-28h5.8ZM490.2,78.1v-5.2h5.6c1.2,0,2.4-.2,3.5-.5s2.1-.9,2.9-1.6,1.5-1.6,1.9-2.7c.5-1.1.7-2.4.7-4s-.2-2.9-.7-4-1.1-2-1.9-2.7-1.8-1.2-2.9-1.6c-1.1-.3-2.3-.5-3.5-.5h-5.6v-5.2h5.8c2.9,0,5.5.6,7.7,1.7s3.9,2.8,5.1,4.9c1.2,2.1,1.8,4.6,1.8,7.4s-.6,5.3-1.8,7.4c-1.2,2.1-2.9,3.7-5.1,4.9-2.2,1.1-4.8,1.7-7.7,1.7,0,0-5.8,0-5.8,0Z"/>
    <path class="st9" d="M514.7,58.2c.7-1.8,1.8-3.3,3.1-4.6s2.9-2.3,4.7-3,3.8-1.1,5.9-1.1,4.1.4,5.9,1.1c1.8.7,3.4,1.7,4.7,3s2.4,2.8,3.1,4.6,1.1,3.7,1.1,5.9-.4,4.1-1.1,5.9c-.7,1.8-1.8,3.4-3.1,4.7-1.3,1.3-2.9,2.4-4.7,3.1s-3.8,1.1-5.9,1.1-4.1-.4-5.9-1.1c-1.8-.7-3.4-1.8-4.7-3.1-1.3-1.3-2.4-2.9-3.1-4.7-.7-1.8-1.1-3.8-1.1-5.9s.4-4.1,1.1-5.9ZM520.7,68.8c.7,1.4,1.8,2.5,3.1,3.3s2.8,1.2,4.6,1.2,3.3-.4,4.6-1.2,2.3-1.9,3.1-3.3c.7-1.4,1.1-3,1.1-4.8s-.4-3.4-1.1-4.8-1.7-2.5-3-3.3-2.8-1.2-4.6-1.2-3.3.4-4.6,1.2-2.3,1.9-3.1,3.3c-.7,1.4-1.1,3-1.1,4.8s.4,3.4,1.1,4.8h0Z"/>
    <path class="st9" d="M566.6,68.8v1.3c0,0-3.6,8-3.6,8h-6.4l14.2-29.6,14.2,29.6h-6.5l-3.6-7.8v-1.4l-4.1-9.7-4.2,9.6h0ZM564.2,67.2h13.4l.7,4.5h-14.8l.7-4.5h0Z"/>
    <path class="st9" d="M600.5,63.1h13.8c0,2.1-.2,4.1-.7,6-.6,1.9-1.5,3.6-2.7,5-1.2,1.5-2.7,2.6-4.5,3.4s-3.8,1.2-6.1,1.2-4.2-.4-6-1.1-3.4-1.7-4.8-3c-1.3-1.3-2.4-2.9-3.1-4.7-.7-1.8-1.1-3.8-1.1-6s.4-4.1,1.1-5.9c.8-1.8,1.8-3.3,3.2-4.6s3-2.3,4.8-3,3.8-1,6-1,3.6.3,5.2.8c1.5.5,2.9,1.3,4.1,2.2,1.2.9,2.2,2.1,3.1,3.4l-4.9,2.8c-.7-1.2-1.7-2.2-2.9-3s-2.8-1.1-4.5-1.1-3.2.4-4.6,1.1c-1.4.8-2.5,1.8-3.3,3.3-.8,1.4-1.2,3.1-1.2,5s.4,3.6,1.2,5.1,1.9,2.6,3.3,3.4c1.4.8,2.9,1.2,4.7,1.2s2.2-.2,3.1-.5c.9-.3,1.7-.7,2.3-1.3.7-.6,1.2-1.2,1.7-1.9.5-.7.8-1.5,1-2.4h-8v-4.6l-.2.2Z"/>
    <path class="st9" d="M624.5,50.1v28h-5.5v-28h5.5ZM622.6,50.1h14.1v4.8h-14.1v-4.8ZM622.6,60.8h13.3v4.8h-13.3v-4.8ZM622.6,73.2h14.1v4.8h-14.1v-4.8Z"/>
    <path class="st9" d="M667.8,50.1v29.4l-19.9-18.8v17.4h-5.5v-29.4l19.9,18.8v-17.4h5.5Z"/>
    <path class="st9" d="M671.1,50.1h20.8v5.2h-7.6v22.8h-5.7v-22.8h-7.5v-5.2Z"/>
    <path class="st9" d="M700.7,50.1v28h-5.5v-28h5.5ZM698.8,50.1h14.1v4.8h-14.1v-4.8ZM698.8,60.8h13.3v4.8h-13.3v-4.8ZM698.8,73.2h14.1v4.8h-14.1v-4.8Z"/>
    <path class="st9" d="M736.1,50.1v28h-5.5v-28h5.5ZM734.3,50.1h14.1v4.8h-14.1v-4.8ZM734.3,60.8h13.3v4.8h-13.3v-4.8ZM734.3,73.2h14.1v4.8h-14.1v-4.8Z"/>
    <path class="st9" d="M751.2,50.1h20.8v5.2h-7.6v22.8h-5.7v-22.8h-7.5v-5.2Z"/>
    <path class="st9" d="M781.1,50.1v28h-5.8v-28h5.8Z"/>
    <path class="st9" d="M786.6,58.2c.7-1.8,1.8-3.3,3.1-4.6s2.9-2.3,4.7-3,3.8-1.1,5.9-1.1,4.1.4,5.9,1.1c1.8.7,3.4,1.7,4.7,3s2.4,2.8,3.1,4.6c.7,1.8,1.1,3.7,1.1,5.9s-.4,4.1-1.1,5.9c-.7,1.8-1.8,3.4-3.1,4.7-1.3,1.3-2.9,2.4-4.7,3.1s-3.8,1.1-5.9,1.1-4.1-.4-5.9-1.1c-1.8-.7-3.4-1.8-4.7-3.1-1.3-1.3-2.4-2.9-3.1-4.7-.7-1.8-1.1-3.8-1.1-5.9s.4-4.1,1.1-5.9ZM792.7,68.8c.7,1.4,1.8,2.5,3.1,3.3s2.8,1.2,4.6,1.2,3.3-.4,4.6-1.2,2.3-1.9,3.1-3.3c.7-1.4,1.1-3,1.1-4.8s-.4-3.4-1.1-4.8-1.7-2.5-3-3.3-2.8-1.2-4.6-1.2-3.3.4-4.6,1.2-2.3,1.9-3.1,3.3c-.7,1.4-1.1,3-1.1,4.8s.4,3.4,1.1,4.8h0Z"/>
    <path class="st9" d="M825.3,50.1v23h11.2v5h-16.9v-28h5.7Z"/>
    <path class="st9" d="M838,58.2c.7-1.8,1.8-3.3,3.1-4.6s2.9-2.3,4.7-3,3.8-1.1,5.9-1.1,4.1.4,5.9,1.1c1.8.7,3.4,1.7,4.7,3s2.4,2.8,3.1,4.6c.7,1.8,1.1,3.7,1.1,5.9s-.4,4.1-1.1,5.9c-.7,1.8-1.8,3.4-3.1,4.7-1.3,1.3-2.9,2.4-4.7,3.1s-3.8,1.1-5.9,1.1-4.1-.4-5.9-1.1c-1.8-.7-3.4-1.8-4.7-3.1-1.3-1.3-2.4-2.9-3.1-4.7-.7-1.8-1.1-3.8-1.1-5.9s.4-4.1,1.1-5.9ZM844.1,68.8c.7,1.4,1.8,2.5,3.1,3.3s2.8,1.2,4.6,1.2,3.3-.4,4.6-1.2,2.3-1.9,3.1-3.3c.7-1.4,1.1-3,1.1-4.8s-.4-3.4-1.1-4.8-1.7-2.5-3-3.3-2.8-1.2-4.6-1.2-3.3.4-4.6,1.2-2.3,1.9-3.1,3.3c-.7,1.4-1.1,3-1.1,4.8s.4,3.4,1.1,4.8h0ZM850.5,46.9l-2.9-1.5,6-6.4,4.1,1.9-7.2,6h0Z"/>
    <path class="st9" d="M884.5,63.1h13.8c0,2.1-.2,4.1-.7,6-.6,1.9-1.5,3.6-2.7,5-1.2,1.5-2.7,2.6-4.5,3.4s-3.8,1.2-6.1,1.2-4.2-.4-6-1.1-3.4-1.7-4.8-3c-1.3-1.3-2.4-2.9-3.1-4.7-.7-1.8-1.1-3.8-1.1-6s.4-4.1,1.1-5.9c.8-1.8,1.8-3.3,3.2-4.6s3-2.3,4.8-3,3.8-1,6-1,3.6.3,5.2.8c1.5.5,2.9,1.3,4.1,2.2,1.2.9,2.2,2.1,3.1,3.4l-4.9,2.8c-.7-1.2-1.7-2.2-2.9-3s-2.8-1.1-4.5-1.1-3.2.4-4.6,1.1c-1.4.8-2.5,1.8-3.3,3.3-.8,1.4-1.2,3.1-1.2,5s.4,3.6,1.2,5.1,1.9,2.6,3.3,3.4c1.4.8,2.9,1.2,4.7,1.2s2.2-.2,3.1-.5,1.7-.7,2.3-1.3c.7-.6,1.2-1.2,1.7-1.9.5-.7.8-1.5,1-2.4h-8v-4.6l-.2.2Z"/>
    <path class="st9" d="M908.8,50.1v28h-5.8v-28h5.8Z"/>
    <path class="st9" d="M920.7,68.9c.8,1.4,1.9,2.4,3.3,3.2,1.4.7,2.8,1.1,4.4,1.1s2.5-.2,3.6-.5c1-.3,2-.8,2.8-1.4s1.6-1.2,2.2-1.9v6.4c-1.1.9-2.4,1.6-3.7,2.1s-3,.8-5.1.8-4.1-.3-5.9-1c-1.8-.7-3.4-1.7-4.8-3-1.3-1.3-2.4-2.8-3.1-4.6-.7-1.8-1.1-3.7-1.1-5.9s.4-4.1,1.1-5.9,1.8-3.3,3.1-4.6,2.9-2.3,4.8-3c1.8-.7,3.8-1,5.9-1s3.8.3,5.1.8,2.6,1.2,3.7,2.1v6.4c-.6-.7-1.3-1.3-2.2-1.9-.8-.6-1.8-1.1-2.8-1.4-1-.3-2.2-.5-3.6-.5s-3.1.4-4.4,1.1c-1.4.7-2.5,1.8-3.3,3.1-.8,1.4-1.3,3-1.3,4.8s.4,3.4,1.3,4.8h0Z"/>
    <path class="st9" d="M942.2,58.2c.7-1.8,1.8-3.3,3.1-4.6s2.9-2.3,4.7-3,3.8-1.1,5.9-1.1,4.1.4,5.9,1.1c1.8.7,3.4,1.7,4.7,3s2.4,2.8,3.1,4.6c.7,1.8,1.1,3.7,1.1,5.9s-.4,4.1-1.1,5.9c-.7,1.8-1.8,3.4-3.1,4.7-1.3,1.3-2.9,2.4-4.7,3.1s-3.8,1.1-5.9,1.1-4.1-.4-5.9-1.1c-1.8-.7-3.4-1.8-4.7-3.1-1.3-1.3-2.4-2.9-3.1-4.7-.7-1.8-1.1-3.8-1.1-5.9s.4-4.1,1.1-5.9ZM948.3,68.8c.7,1.4,1.8,2.5,3.1,3.3s2.8,1.2,4.6,1.2,3.3-.4,4.6-1.2,2.3-1.9,3.1-3.3c.7-1.4,1.1-3,1.1-4.8s-.4-3.4-1.1-4.8-1.7-2.5-3-3.3-2.8-1.2-4.6-1.2-3.3.4-4.6,1.2-2.3,1.9-3.1,3.3c-.7,1.4-1.1,3-1.1,4.8s.4,3.4,1.1,4.8h0Z"/>
    <path class="st9" d="M993,50.1v28h-5.8v-28h5.8ZM990.8,78.1v-5.2h5.6c1.2,0,2.4-.2,3.5-.5s2.1-.9,2.9-1.6c.8-.7,1.5-1.6,1.9-2.7.5-1.1.7-2.4.7-4s-.2-2.9-.7-4-1.1-2-1.9-2.7c-.8-.7-1.8-1.2-2.9-1.6s-2.3-.5-3.5-.5h-5.6v-5.2h5.8c2.9,0,5.5.6,7.7,1.7s3.9,2.8,5.1,4.9c1.2,2.1,1.8,4.6,1.8,7.4s-.6,5.3-1.8,7.4-2.9,3.7-5.1,4.9c-2.2,1.1-4.8,1.7-7.7,1.7,0,0-5.8,0-5.8,0Z"/>
    <path class="st9" d="M1021.6,68.8v1.3c0,0-3.6,8-3.6,8h-6.4l14.2-29.6,14.2,29.6h-6.5l-3.6-7.8v-1.4l-4.1-9.7-4.2,9.6h0ZM1019.1,67.2h13.4l.7,4.5h-14.8l.7-4.5Z"/>
    <path class="st9" d="M1059.4,78.1h-6l4.2-29.4,11.7,18.1,11.7-18.1,4.2,29.4h-6l-1.8-15.7-8.1,13.1-8.1-13.1-1.8,15.7h0Z"/>
    <path class="st9" d="M1095.4,50.1v28h-5.7v-28h5.7ZM1093.1,50.1h5.6c2.2,0,4.1.4,5.7,1.1,1.6.7,2.8,1.7,3.6,3.1.8,1.3,1.2,2.9,1.2,4.8s-.4,3.4-1.2,4.7c-.8,1.3-2,2.4-3.6,3.1s-3.4,1.1-5.7,1.1h-5.6v-4.8h5.6c1.5,0,2.7-.3,3.6-1s1.3-1.7,1.3-3-.4-2.4-1.3-3.1c-.9-.7-2.1-1-3.6-1h-5.6v-5Z"/>
    <path class="st9" d="M1113.1,58.2c.7-1.8,1.8-3.3,3.1-4.6,1.3-1.3,2.9-2.3,4.7-3,1.8-.7,3.8-1.1,5.9-1.1s4.1.4,5.9,1.1c1.8.7,3.4,1.7,4.7,3,1.3,1.3,2.4,2.8,3.1,4.6s1.1,3.7,1.1,5.9-.4,4.1-1.1,5.9-1.8,3.4-3.1,4.7c-1.3,1.3-2.9,2.4-4.7,3.1-1.8.7-3.8,1.1-5.9,1.1s-4.1-.4-5.9-1.1-3.4-1.8-4.7-3.1c-1.3-1.3-2.4-2.9-3.1-4.7-.7-1.8-1.1-3.8-1.1-5.9s.4-4.1,1.1-5.9ZM1119.2,68.8c.7,1.4,1.8,2.5,3.1,3.3s2.8,1.2,4.6,1.2,3.3-.4,4.6-1.2,2.3-1.9,3.1-3.3c.7-1.4,1.1-3,1.1-4.8s-.4-3.4-1.1-4.8-1.7-2.5-3-3.3-2.8-1.2-4.6-1.2-3.3.4-4.6,1.2-2.3,1.9-3.1,3.3c-.7,1.4-1.1,3-1.1,4.8s.4,3.4,1.1,4.8h0Z"/>
    <path class="st9" d="M1166.8,50.1l-8.6,13.6,9.2,14.4h-7l-5.6-10-5.8,10h-7l9.4-14.4-8.4-13.6h7l4.8,8.8,4.9-8.8h7.1Z"/>
    <path class="st9" d="M1171.6,58.4c.6-.6,1.4-1,2.3-1s1.7.3,2.4,1c.6.6.9,1.4.9,2.3s-.3,1.6-.9,2.3c-.6.6-1.4,1-2.4,1s-1.7-.3-2.3-1c-.6-.6-.9-1.4-.9-2.3s.3-1.6.9-2.3ZM1171.6,73.4c.6-.6,1.4-.9,2.3-.9s1.7.3,2.4.9c.6.6.9,1.4.9,2.3s-.3,1.6-.9,2.2-1.4,1-2.4,1-1.7-.3-2.3-1c-.6-.6-.9-1.4-.9-2.2s.3-1.7.9-2.3Z"/>
  </g>
</svg>