<?xml version="1.0" encoding="UTF-8"?>
<svg id="Layer_2" xmlns="http://www.w3.org/2000/svg" version="1.1" viewBox="0 0 61.9 100.1">
  <!-- Generator: Adobe Illustrator 29.4.0, SVG Export Plug-In . SVG Version: 2.1.0 Build 152)  -->
  <defs>
    <style>
      .st0 {
        fill: none;
      }

      .st1 {
        fill: #010101;
      }

      .st2 {
        fill: #f7f7f7;
      }
    </style>
  </defs>
  <g id="Layer_1-2">
    <rect class="st0" x="1.6" y="1.5" width="59.1" height="97"/>
    <g>
      <g>
        <g>
          <path d="M2.7,51.3h-1.2v.6h1.1c0,0,.1,0,.2,0s0,0,0,.1,0,.1,0,.1,0,0-.2,0h-1.1v.7h1.2c0,0,.1,0,.2,0,0,0,0,0,0,.2s0,.1,0,.1-.1,0-.2,0h-1.4c-.1,0-.2,0-.2,0,0,0,0-.1,0-.2v-1.9c0,0,0-.1,0-.2,0,0,0,0,.1-.1,0,0,.1,0,.2,0h1.4c0,0,.1,0,.2,0s0,0,0,.1,0,.1,0,.1-.1,0-.2,0h0Z"/>
          <path d="M5.3,52.7c0,.2,0,.3-.1.4s-.2.2-.3.3c-.2,0-.3.1-.6.1s-.5,0-.6-.1c-.1,0-.2-.2-.3-.3s-.1-.2-.1-.3,0-.1,0-.2,0,0,.2,0,0,0,.1,0,0,0,0,.2c0,0,0,.1.1.2s0,0,.2.1c0,0,.2,0,.3,0s.3,0,.4-.1c0,0,.1-.2.1-.3s0-.2,0-.2-.1,0-.2-.1c0,0-.2,0-.3,0-.2,0-.3,0-.5-.2-.1,0-.2-.1-.3-.2s-.1-.2-.1-.4,0-.3.1-.4.2-.2.3-.3c.1,0,.3,0,.5,0s.3,0,.4,0c.1,0,.2,0,.3.2s.1.1.2.2,0,.1,0,.2,0,.1,0,.2,0,0-.2,0-.1,0-.1,0,0,0,0-.1c0,0-.1-.2-.2-.2,0,0-.2,0-.3,0s-.2,0-.3,0-.1.1-.1.2,0,0,0,.1,0,0,.1,0,0,0,.1,0c0,0,.1,0,.3,0,.1,0,.3,0,.4.1s.2,0,.3.1.1.1.2.2,0,.2,0,.3h0Z"/>
          <path d="M7.9,52.7c0,0,0,.2,0,.3,0,0-.1.2-.2.3,0,0-.2.2-.3.2-.1,0-.3,0-.5,0s-.3,0-.4,0-.2,0-.3-.1c0,0-.2-.1-.3-.2,0,0-.1-.2-.2-.3,0,0,0-.2-.1-.3s0-.2,0-.4c0-.2,0-.4,0-.6s.1-.3.3-.4.2-.2.4-.3.3,0,.5,0,.4,0,.6.1c.2,0,.3.2.4.3,0,.1.1.2.1.3s0,.1,0,.2,0,0-.2,0-.1,0-.1,0,0,0-.1-.2c0-.1-.1-.2-.2-.3,0,0-.2,0-.3,0-.2,0-.4,0-.5.2s-.2.4-.2.7,0,.4,0,.5c0,.1.1.2.2.3s.2,0,.4,0,.3,0,.4-.1c.1,0,.2-.2.2-.3,0,0,0-.1,0-.2s0,0,.2,0,.1,0,.2,0,0,0,0,.2h0Z"/>
          <path d="M9.5,50.9c.3,0,.5,0,.7.2.2.1.3.3.4.5,0,.2.1.4.1.7s0,.4,0,.5c0,.2-.1.3-.2.4-.1.1-.2.2-.4.3-.2,0-.3,0-.5,0s-.4,0-.5,0c-.2,0-.3-.2-.4-.3s-.2-.3-.2-.4,0-.3,0-.5,0-.4,0-.5c0-.2.1-.3.2-.4.1-.1.2-.2.4-.3s.3,0,.5,0h0ZM10.3,52.2c0-.2,0-.3,0-.5s-.1-.2-.3-.3c-.1,0-.2-.1-.4-.1s-.2,0-.3,0-.2,0-.2.2-.1.2-.2.3,0,.2,0,.4,0,.3,0,.4,0,.2.2.3.1.1.2.2.2,0,.3,0,.3,0,.4,0,.2-.2.3-.3c0-.1,0-.3,0-.5h0Z"/>
          <path d="M11.8,51.2v1.9h1.1c0,0,.1,0,.2,0s0,0,0,.2,0,.1,0,.2-.1,0-.2,0h-1.3c-.1,0-.2,0-.2,0,0,0,0-.1,0-.2v-2c0-.1,0-.2,0-.2,0,0,.1,0,.2,0s.1,0,.2,0c0,0,0,.1,0,.2h0Z"/>
          <path d="M15,53.2v-.3h-1.2v.3c-.2.1-.2.2-.3.3s0,0-.2,0-.1,0-.2,0,0-.1,0-.2,0,0,0-.1c0,0,0,0,0-.2l.7-1.7s0-.1,0-.2,0-.1,0-.2,0,0,.1-.1.1,0,.2,0,.1,0,.2,0c0,0,0,0,.1.1,0,0,0,0,0,.1,0,0,0,.1,0,.2l.7,1.7c0,.1,0,.2,0,.3s0,.1,0,.2-.1,0-.2,0,0,0-.1,0,0,0,0,0c0,0,0,0,0-.1,0,0,0,0,0-.1h0ZM14,52.5h.8l-.4-1.1-.4,1.1Z"/>
        </g>
        <g>
          <path d="M17.8,52.5h-.5v.7c0,.1,0,.2,0,.2s-.1,0-.2,0-.1,0-.2,0c0,0,0-.1,0-.2v-2c0-.1,0-.2,0-.2s.1,0,.3,0h.7c.2,0,.3,0,.5,0,.1,0,.2,0,.3.1s.1.2.2.3,0,.2,0,.3c0,.3,0,.5-.2.6s-.4.2-.7.2ZM17.7,51.3h-.3v.8h.3c.1,0,.2,0,.3,0,0,0,.1,0,.2-.1s0-.1,0-.2,0-.2,0-.3c0,0-.2-.1-.5-.1h0Z"/>
          <path d="M20.4,50.9c.3,0,.5,0,.7.2.2.1.3.3.4.5s.1.4.1.7,0,.4,0,.5c0,.2-.1.3-.2.4-.1.1-.2.2-.4.3-.2,0-.3,0-.5,0s-.4,0-.5,0c-.2,0-.3-.2-.4-.3s-.2-.3-.2-.4,0-.3,0-.5,0-.4,0-.5c0-.2.1-.3.2-.4s.2-.2.4-.3.3,0,.5,0h0ZM21.1,52.2c0-.2,0-.3,0-.5s-.1-.2-.3-.3-.2-.1-.4-.1-.2,0-.3,0-.2,0-.2.2-.1.2-.2.3,0,.2,0,.4,0,.3,0,.4,0,.2.2.3.1.1.2.2.2,0,.3,0,.3,0,.4,0c.1,0,.2-.2.3-.3,0-.1,0-.3,0-.5h0Z"/>
          <path d="M22.6,51.2v1.9h1.1c0,0,.1,0,.2,0s0,0,0,.2,0,.1,0,.2-.1,0-.2,0h-1.3c-.1,0-.2,0-.2,0,0,0,0-.1,0-.2v-2c0-.1,0-.2,0-.2,0,0,.1,0,.2,0s.1,0,.2,0c0,0,0,.1,0,.2h0Z"/>
          <path d="M24.3,53.2v-2c0-.1,0-.2,0-.2,0,0,.1,0,.2,0s.1,0,.2,0c0,0,0,.1,0,.2v2c0,.1,0,.2,0,.2s-.1,0-.2,0-.1,0-.2,0c0,0,0-.1,0-.2h0Z"/>
          <path d="M27,51.3h-.6v1.9c0,.1,0,.2,0,.2,0,0-.1,0-.2,0s-.1,0-.2,0c0,0,0-.1,0-.2v-1.9h-.6c0,0-.2,0-.2,0s0,0,0-.2,0-.1,0-.2.1,0,.2,0h1.7c0,0,.2,0,.2,0s0,0,0,.2,0,.1,0,.2-.1,0-.2,0Z"/>
          <path d="M29.3,51.3h-1.2v.6h1.1c0,0,.1,0,.2,0s0,0,0,.1,0,.1,0,.1,0,0-.2,0h-1.1v.7h1.2c0,0,.1,0,.2,0s0,0,0,.2,0,.1,0,.1c0,0-.1,0-.2,0h-1.4c-.1,0-.2,0-.2,0,0,0,0-.1,0-.2v-1.9c0,0,0-.1,0-.2s0,0,.1-.1c0,0,.1,0,.2,0h1.4c0,0,.1,0,.2,0s0,0,0,.1,0,.1,0,.1-.1,0-.2,0h0ZM28.7,50.3h.2c0,0,0,0,0,0,0,0,0,0,0,.1s-.1.1-.2.2c0,0-.1,0-.1.1,0,0-.1,0-.2,0s0,0,0,0,0,0,0-.1h0c0-.2,0-.3.1-.3,0,0,0,0,.2,0h0Z"/>
          <path d="M32.2,52.7c0,0,0,.2,0,.3,0,0-.1.2-.2.3,0,0-.2.2-.3.2s-.3,0-.5,0-.3,0-.4,0-.2,0-.3-.1c0,0-.2-.1-.3-.2,0,0-.1-.2-.2-.3,0,0,0-.2-.1-.3s0-.2,0-.4c0-.2,0-.4,0-.6s.1-.3.3-.4.2-.2.4-.3.3,0,.5,0,.4,0,.6.1c.2,0,.3.2.4.3s.1.2.1.3,0,.1,0,.2,0,0-.2,0-.1,0-.1,0c0,0,0,0-.1-.2,0-.1-.1-.2-.2-.3,0,0-.2,0-.3,0-.2,0-.4,0-.5.2-.1.2-.2.4-.2.7s0,.4,0,.5c0,.1.1.2.2.3s.2,0,.4,0,.3,0,.4-.1c.1,0,.2-.2.2-.3,0,0,0-.1,0-.2s0,0,.2,0,.1,0,.2,0,0,0,0,.2h0Z"/>
          <path d="M33.4,51.2l1,1.5v-1.5c0,0,0-.2,0-.2s0,0,.2,0,.1,0,.2,0c0,0,0,.1,0,.2v2c0,.2,0,.3-.3.3s0,0-.1,0c0,0,0,0-.1,0s0,0,0-.1c0,0,0,0,0-.1l-1-1.5v1.5c0,0,0,.2,0,.2s-.1,0-.2,0-.1,0-.2,0c0,0,0-.1,0-.2v-2c0,0,0-.1,0-.2,0,0,0,0,.1-.1,0,0,.1,0,.2,0s0,0,.1,0,0,0,0,0c0,0,0,0,0,0s0,0,0,.1h0Z"/>
          <path d="M35.4,53.2v-2c0-.1,0-.2,0-.2,0,0,.1,0,.2,0s.1,0,.2,0c0,0,0,.1,0,.2v2c0,.1,0,.2,0,.2s-.1,0-.2,0-.1,0-.2,0c0,0,0-.1,0-.2h0Z"/>
          <path d="M38.7,52.7c0,0,0,.2,0,.3,0,0-.1.2-.2.3,0,0-.2.2-.3.2s-.3,0-.5,0-.3,0-.4,0-.2,0-.3-.1c0,0-.2-.1-.3-.2,0,0-.1-.2-.2-.3s0-.2-.1-.3,0-.2,0-.4c0-.2,0-.4,0-.6s.1-.3.3-.4.2-.2.4-.3.3,0,.5,0,.4,0,.6.1c.2,0,.3.2.4.3s.1.2.1.3,0,.1,0,.2,0,0-.2,0-.1,0-.1,0c0,0,0,0-.1-.2,0-.1-.1-.2-.2-.3,0,0-.2,0-.3,0-.2,0-.4,0-.5.2-.1.2-.2.4-.2.7s0,.4,0,.5c0,.1.1.2.2.3s.2,0,.4,0,.3,0,.4-.1c.1,0,.2-.2.2-.3,0,0,0-.1,0-.2s0,0,.2,0,.1,0,.2,0,0,0,0,.2h0Z"/>
          <path d="M40.8,53.2v-.3h-1.2v.3c-.2.1-.2.2-.3.3s0,0-.2,0-.1,0-.2,0,0-.1,0-.2,0,0,0-.1c0,0,0,0,0-.2l.7-1.7s0-.1,0-.2,0-.1,0-.2,0,0,.1-.1.1,0,.2,0,.1,0,.2,0c0,0,0,0,.1.1,0,0,0,0,0,.1s0,.1,0,.2l.7,1.7c0,.1,0,.2,0,.3s0,.1,0,.2c0,0-.1,0-.2,0s0,0-.1,0,0,0,0,0c0,0,0,0,0-.1,0,0,0,0,0-.1h0ZM39.8,52.5h.8l-.4-1.1-.4,1.1Z"/>
          <path d="M43,50.9h.7c.2,0,.3,0,.5,0s.2,0,.3.2c.3.2.4.6.4,1s0,.3,0,.4c0,.1,0,.2-.1.3s-.1.2-.2.3c0,0-.1.1-.2.1,0,0-.2,0-.3,0,0,0-.2,0-.3,0h-.7c0,0-.2,0-.2,0,0,0,0,0,0-.1,0,0,0-.1,0-.2v-1.9c0-.1,0-.2,0-.2,0,0,.1,0,.2,0h0ZM43.2,51.3v1.7h.6s0,0,.2,0c0,0,0,0,.1,0,.2-.1.3-.4.3-.8s0-.4-.1-.6c0-.1-.2-.2-.3-.2-.1,0-.3,0-.4,0h-.3Z"/>
          <path d="M47,51.3h-1.2v.6h1.1c0,0,.1,0,.2,0s0,0,0,.1,0,.1,0,.1,0,0-.2,0h-1.1v.7h1.2c0,0,.1,0,.2,0,0,0,0,0,0,.2s0,.1,0,.1-.1,0-.2,0h-1.4c-.1,0-.2,0-.2,0,0,0,0-.1,0-.2v-1.9c0,0,0-.1,0-.2s0,0,.1-.1c0,0,.1,0,.2,0h1.4c0,0,.1,0,.2,0s0,0,0,.1,0,.1,0,.1-.1,0-.2,0h0Z"/>
          <path d="M50.6,52.7c0,.2,0,.3-.1.4,0,.1-.2.2-.3.3s-.3.1-.6.1-.5,0-.6-.1c-.1,0-.2-.2-.3-.3s-.1-.2-.1-.3,0-.1,0-.2,0,0,.2,0,0,0,.1,0,0,0,0,.2c0,0,0,.1.1.2s0,0,.2.1c0,0,.2,0,.3,0s.3,0,.4-.1.1-.2.1-.3,0-.2,0-.2c0,0-.1,0-.2-.1,0,0-.2,0-.3,0-.2,0-.3,0-.5-.2s-.2-.1-.3-.2-.1-.2-.1-.4,0-.3.1-.4.2-.2.3-.3c.1,0,.3,0,.5,0s.3,0,.4,0,.2,0,.3.2.1.1.2.2,0,.1,0,.2,0,.1,0,.2,0,0-.2,0-.1,0-.1,0,0,0,0-.1c0,0-.1-.2-.2-.2,0,0-.2,0-.3,0s-.2,0-.3,0-.1.1-.1.2,0,0,0,.1,0,0,.1,0,0,0,.1,0c0,0,.1,0,.3,0,.1,0,.3,0,.4.1s.2,0,.3.1.1.1.2.2,0,.2,0,.3h0Z"/>
          <path d="M52.7,53.2v-.3h-1.2v.3c-.2.1-.2.2-.3.3s0,0-.2,0-.1,0-.2,0,0-.1,0-.2,0,0,0-.1c0,0,0,0,0-.2l.7-1.7s0-.1,0-.2,0-.1,0-.2,0,0,.1-.1.1,0,.2,0,.1,0,.2,0c0,0,0,0,.1.1,0,0,0,0,0,.1s0,.1,0,.2l.7,1.7c0,.1,0,.2,0,.3s0,.1,0,.2c0,0-.1,0-.2,0s0,0-.1,0,0,0,0,0c0,0,0,0,0-.1,0,0,0,0,0-.1h0ZM51.6,52.5h.8l-.4-1.1-.4,1.1Z"/>
          <path d="M53.6,52.4v-1.2c0-.1,0-.2,0-.2,0,0,.1,0,.2,0s.1,0,.2,0c0,0,0,.1,0,.2v1.3c0,.1,0,.3,0,.4s0,.2.2.2.2,0,.3,0,.3,0,.4-.2.1-.3.1-.5v-1.3c0-.1,0-.2,0-.2,0,0,.1,0,.2,0s.1,0,.2,0c0,0,0,.1,0,.2v1.2c0,.2,0,.4,0,.5s-.1.3-.2.4c0,0-.2.1-.3.2-.1,0-.3,0-.4,0s-.4,0-.5,0c-.1,0-.3-.1-.3-.2s-.2-.2-.2-.3,0-.3,0-.5h0ZM54.8,50.3h.2c0,0,0,0,0,0,0,0,0,0,0,.1s-.1.1-.2.2c0,0-.1,0-.1.1,0,0-.1,0-.2,0s0,0,0,0,0,0,0-.1h0c0-.2,0-.3.1-.3,0,0,0,0,.2,0h0Z"/>
          <path d="M56.6,50.9h.7c.2,0,.3,0,.5,0s.2,0,.3.2c.3.2.4.6.4,1s0,.3,0,.4c0,.1,0,.2-.1.3s-.1.2-.2.3c0,0-.1.1-.2.1,0,0-.2,0-.3,0,0,0-.2,0-.3,0h-.7c0,0-.2,0-.2,0,0,0,0,0,0-.1,0,0,0-.1,0-.2v-1.9c0-.1,0-.2,0-.2,0,0,.1,0,.2,0h0ZM56.8,51.3v1.7h.6s0,0,.2,0c0,0,0,0,.1,0,.2-.1.3-.4.3-.8s0-.4-.1-.6c0-.1-.2-.2-.3-.2-.1,0-.3,0-.4,0h-.3Z"/>
          <path d="M60.7,51.3h-1.2v.6h1.1c0,0,.1,0,.2,0s0,0,0,.1,0,.1,0,.1,0,0-.2,0h-1.1v.7h1.2c0,0,.1,0,.2,0,0,0,0,0,0,.2s0,.1,0,.1-.1,0-.2,0h-1.4c-.1,0-.2,0-.2,0,0,0,0-.1,0-.2v-1.9c0,0,0-.1,0-.2s0,0,.1-.1c0,0,.1,0,.2,0h1.4c0,0,.1,0,.2,0s0,0,0,.1,0,.1,0,.1-.1,0-.2,0h0Z"/>
        </g>
        <g>
          <path d="M13.9,55.4v1.3c0,.1,0,.2,0,.3,0,0,0,.2,0,.3,0,.1-.2.3-.3.3s-.3.1-.5.1-.3,0-.4,0-.2-.1-.3-.3c0,0,0-.1,0-.2,0,0,0-.2,0-.2s0-.1,0-.2c0,0,.1,0,.2,0s.1,0,.2,0,0,0,0,.2c0,0,0,.2,0,.2,0,0,0,0,0,.1s.1,0,.2,0c.2,0,.3-.2.3-.5v-1.4c0-.1,0-.2,0-.2,0,0,.1,0,.2,0s.1,0,.2,0c0,0,0,.1,0,.2h0Z"/>
          <path d="M15.6,55.1c.3,0,.5,0,.7.2.2.1.3.3.4.5s.1.4.1.7,0,.4,0,.5c0,.2-.1.3-.2.4-.1.1-.2.2-.4.3-.2,0-.3,0-.5,0s-.4,0-.5,0c-.2,0-.3-.2-.4-.3s-.2-.3-.2-.4,0-.3,0-.5,0-.4,0-.5c0-.2.1-.3.2-.4s.2-.2.4-.3.3,0,.5,0h0ZM16.3,56.4c0-.2,0-.3,0-.5s-.1-.2-.3-.3c-.1,0-.2-.1-.4-.1s-.2,0-.3,0-.2,0-.2.2-.1.2-.2.3,0,.2,0,.4,0,.3,0,.4,0,.2.2.3.1.1.2.2.2,0,.3,0,.3,0,.4,0,.2-.2.3-.3c0-.1,0-.3,0-.5h0Z"/>
          <path d="M18.8,57.4v-.3h-1.2v.3c-.2.1-.2.2-.3.3,0,0,0,0-.2,0s-.1,0-.2,0c0,0,0-.1,0-.2s0,0,0-.1c0,0,0,0,0-.2l.7-1.7s0-.1,0-.2c0,0,0-.1,0-.2s0,0,.1-.1.1,0,.2,0,.1,0,.2,0c0,0,0,0,.1.1,0,0,0,0,0,.1s0,.1,0,.2l.7,1.7c0,.1,0,.2,0,.3s0,.1,0,.2-.1,0-.2,0,0,0-.1,0,0,0,0,0c0,0,0,0,0-.1,0,0,0,0,0-.1h0ZM17.8,56.7h.8l-.4-1.1s-.4,1.1-.4,1.1Z"/>
          <path d="M21.8,57.4c0,0,.2,0,.3.1,0,0,.1,0,.2.1s0,0,0,.1,0,0,0,.1,0,0-.1,0,0,0-.1,0c0,0-.1,0-.2-.1s-.2-.1-.3-.2c-.2,0-.4.1-.6.1s-.4,0-.5,0-.3-.2-.4-.3-.2-.3-.2-.4,0-.3,0-.5,0-.4,0-.5c0-.2.1-.3.2-.4s.2-.2.4-.3.3,0,.5,0,.5,0,.7.2c.2.1.3.3.4.5s.1.4.1.7c0,.4-.1.7-.3,1h0ZM21.4,57.1c0,0,.1-.2.2-.3s0-.2,0-.4,0-.3,0-.5-.1-.2-.3-.3-.2-.1-.4-.1-.2,0-.3,0-.2,0-.2.2-.1.2-.2.3,0,.2,0,.4c0,.3,0,.5.2.7s.3.2.5.2.2,0,.3,0c0,0-.1,0-.2-.1,0,0-.1,0-.2,0,0,0,0,0,0,0s0,0,0,0c0,0,0,0,0,0,.1,0,.3,0,.5.3h0Z"/>
          <path d="M22.6,56.6v-1.2c0-.1,0-.2,0-.2,0,0,.1,0,.2,0s.1,0,.2,0c0,0,0,.1,0,.2v1.3c0,.1,0,.3,0,.4,0,0,0,.2.2.2s.2,0,.3,0,.3,0,.4-.2.1-.3.1-.5v-1.3c0-.1,0-.2,0-.2,0,0,.1,0,.2,0s.1,0,.2,0c0,0,0,.1,0,.2v1.2c0,.2,0,.4,0,.5,0,.1-.1.3-.2.4,0,0-.2.1-.3.2-.1,0-.3,0-.4,0s-.4,0-.5,0c-.1,0-.3-.1-.3-.2s-.2-.2-.2-.3,0-.3,0-.5h0Z"/>
          <path d="M25.3,57.4v-2c0-.1,0-.2,0-.2,0,0,.1,0,.2,0s.1,0,.2,0c0,0,0,.1,0,.2v2c0,.1,0,.2,0,.2s-.1,0-.2,0-.1,0-.2,0c0,0,0-.1,0-.2h0Z"/>
          <path d="M27.3,57.3l-.4-1.6v1.8c0,0,0,.2,0,.2s-.1,0-.2,0-.1,0-.2,0c0,0,0-.1,0-.2v-2c0-.1,0-.2,0-.2s.1,0,.2,0h.2c0,0,.2,0,.2,0,0,0,0,0,0,0s0,.1,0,.2l.4,1.4.4-1.4c0-.1,0-.2,0-.2s0,0,0,0c0,0,.1,0,.2,0h.2c0,0,.2,0,.2,0s0,.1,0,.2v2c0,0,0,.2,0,.2s-.1,0-.2,0-.1,0-.2,0c0,0,0-.1,0-.2v-1.8l-.4,1.6c0,.1,0,.2,0,.2,0,0,0,0,0,.1,0,0-.1,0-.2,0s-.1,0-.2,0,0,0,0,0c0,0,0,0,0-.1,0,0,0,0,0-.2h0Z"/>
        </g>
        <g>
          <path d="M30.7,55.4l.6,1.7.6-1.7c0,0,0-.2,0-.2s0,0,0,0,0,0,.1,0,0,0,.1,0,0,0,0,0,0,0,0,.1,0,0,0,0c0,0,0,0,0,0s0,0,0,0l-.6,1.7c0,0,0,.1,0,.2,0,0,0,.1,0,.2s0,0-.1.1c0,0-.1,0-.2,0s-.1,0-.2,0,0,0-.1-.1c0,0,0,0,0-.2s0-.1,0-.2l-.6-1.7s0,0,0,0,0,0,0,0c0,0,0,0,0,0,0,0,0-.1,0-.2s.1,0,.2,0,.2,0,.2,0c0,0,0,.1.1.3h0Z"/>
          <path d="M34.5,55.5h-1.2v.6h1.1c0,0,.1,0,.2,0s0,0,0,.1,0,.1,0,.1,0,0-.2,0h-1.1v.7h1.2c0,0,.1,0,.2,0,0,0,0,0,0,.2s0,.1,0,.1-.1,0-.2,0h-1.4c-.1,0-.2,0-.2,0,0,0,0-.1,0-.2v-1.9c0,0,0-.1,0-.2s0,0,.1-.1c0,0,.1,0,.2,0h1.4c0,0,.1,0,.2,0s0,0,0,.1,0,.1,0,.1-.1,0-.2,0h0Z"/>
          <path d="M35.9,55.4l1,1.5v-1.5c0,0,0-.2,0-.2s0,0,.2,0,.1,0,.2,0c0,0,0,.1,0,.2v2c0,.2,0,.3-.3.3s0,0-.1,0c0,0,0,0-.1,0s0,0,0-.1c0,0,0,0,0-.1l-1-1.5v1.5c0,0,0,.2,0,.2s-.1,0-.2,0-.1,0-.2,0c0,0,0-.1,0-.2v-2c0,0,0-.1,0-.2,0,0,0,0,.1-.1,0,0,.1,0,.2,0s0,0,.1,0,0,0,0,0c0,0,0,0,0,0s0,0,0,.1h0Z"/>
          <path d="M39.6,57.4v-.3h-1.2v.3c-.2.1-.2.2-.3.3s0,0-.2,0-.1,0-.2,0,0-.1,0-.2,0,0,0-.1c0,0,0,0,0-.2l.7-1.7s0-.1,0-.2,0-.1,0-.2,0,0,.1-.1.1,0,.2,0,.1,0,.2,0c0,0,0,0,.1.1,0,0,0,0,0,.1s0,.1,0,.2l.7,1.7c0,.1,0,.2,0,.3s0,.1,0,.2c0,0-.1,0-.2,0s0,0-.1,0,0,0,0,0c0,0,0,0,0-.1,0,0,0,0,0-.1h0ZM39,54.8l-.2-.2-.2.2c0,0,0,0,0,.1,0,0,0,0,0,0h-.1s0,0,0,0,0,0,0,0l.2-.2s0,0,0,0,0,0,0,0c0,0,0,0,0,0h.2c0,0,.1,0,.2,0,0,0,0,0,.1.1l.2.2s0,0,0,0c0,0,0,0,0,0h-.1s0,0,0,0c0,0,0,0,0,0s0,0,0,0h0ZM38.5,56.7h.8l-.4-1.1-.4,1.1Z"/>
          <path d="M41.2,55.4l1,1.5v-1.5c0,0,0-.2,0-.2s0,0,.2,0,.1,0,.2,0c0,0,0,.1,0,.2v2c0,.2,0,.3-.3.3s0,0-.1,0c0,0,0,0-.1,0s0,0,0-.1c0,0,0,0,0-.1l-1-1.5v1.5c0,0,0,.2,0,.2s-.1,0-.2,0-.1,0-.2,0c0,0,0-.1,0-.2v-2c0,0,0-.1,0-.2,0,0,0,0,.1-.1,0,0,.1,0,.2,0s0,0,.1,0,0,0,0,0c0,0,0,0,0,0s0,0,0,.1h0Z"/>
          <path d="M45.4,56.9c0,0,0,.2,0,.3,0,0-.1.2-.2.3,0,0-.2.2-.3.2s-.3,0-.5,0-.3,0-.4,0-.2,0-.3-.1c0,0-.2-.1-.3-.2,0,0-.1-.2-.2-.3s0-.2-.1-.3,0-.2,0-.4c0-.2,0-.4,0-.6s.1-.3.3-.4.2-.2.4-.3.3,0,.5,0,.4,0,.6.1c.2,0,.3.2.4.3s.1.2.1.3,0,.1,0,.2,0,0-.2,0-.1,0-.1,0c0,0,0,0-.1-.2,0-.1-.1-.2-.2-.3,0,0-.2,0-.3,0-.2,0-.4,0-.5.2-.1.2-.2.4-.2.7s0,.4,0,.5c0,.1.1.2.2.3s.2,0,.4,0,.3,0,.4-.1c.1,0,.2-.2.2-.3,0,0,0-.1,0-.2s0,0,.2,0,.1,0,.2,0,0,0,0,.2h0Z"/>
          <path d="M45.9,57.4v-2c0-.1,0-.2,0-.2,0,0,.1,0,.2,0s.1,0,.2,0c0,0,0,.1,0,.2v2c0,.1,0,.2,0,.2s-.1,0-.2,0-.1,0-.2,0c0,0,0-.1,0-.2h0Z"/>
          <path d="M48.1,55.1c.3,0,.5,0,.7.2.2.1.3.3.4.5,0,.2.1.4.1.7s0,.4,0,.5c0,.2-.1.3-.2.4-.1.1-.2.2-.4.3-.2,0-.3,0-.5,0s-.4,0-.5,0c-.2,0-.3-.2-.4-.3s-.2-.3-.2-.4,0-.3,0-.5,0-.4,0-.5c0-.2.1-.3.2-.4s.2-.2.4-.3.3,0,.5,0h0ZM48.9,56.4c0-.2,0-.3,0-.5s-.1-.2-.3-.3-.2-.1-.4-.1-.2,0-.3,0-.2,0-.2.2c0,0-.1.2-.2.3s0,.2,0,.4,0,.3,0,.4,0,.2.2.3.1.1.2.2.2,0,.3,0,.3,0,.4,0c.1,0,.2-.2.3-.3,0-.1,0-.3,0-.5h0Z"/>
        </g>
      </g>
      <g>
        <path d="M26.5,40.5c1,.7,1.3,1.2,2.1,2,0,0,.2.3.3.1-.8-2-1.6-4-2.4-6.1-1.3-3.8-4.6-13.5,1.3-14.9,2.6-.6,7.2,1.8,8.4,4.2s0,5.1-1.9,6.7c-2.2,1.7-5-.8-5.9-2.8-1.2-2.7.3-4.8,3.2-4.4,2.8.3,1.9,3.8.6,5.2-1.6,1.8-2.9-1.6-1.3-3,.9-.9,1.4,0,1.3,1-.3,0-.2,0-.2-.3,0-.3,0-.8-.5-.7-1.4.4-.8,5.5,1.1,1.7,1.2-2.4.2-4-2.6-3.4-3.6.9,0,6.4,2.2,6.7,2.6.4,4.1-3.1,3.8-5.3-.4-3.2-7.8-6.8-9.8-3.5-1.8,2.9-.6,7.1.3,10.1.8,2.6,1.8,5.6,2.8,8.2.2.5,1,2.7,1.6,2.5.1,0,1.3-2.1,1.6-2.5,4.7-6.1,10.7-2.5,17-2.5,1.1,0,2.7-.3,3.8-.5,1.4-.2,2.7-.6,4.1-.8l.2.4c-2.1.4-4.7,1.5-6.8,1.6-6.1.5-14.6-3.6-18.5,3.3,0,0,.1.1.2.1,3.1-2.7,7.8-3,11.6-2.9,5.1,0,10.2.6,15.2.8v.6l-17.3-.3c-2.3.3-4.9.5-7,1.4s-2,3.1-4.7,2.8c-1,0-1.5-1-2.2-1.6-2.1-1.8-8.8-2.7-11.6-2.8-4.2-.2-8.2.3-12.4.5-.3,0-1.9,0-2,0-.3-.3.5-.5.6-.5,1.6-.3,3.5-.5,5.1-.7,6.6-.7,13.7-.9,19.8,1.9,0-.2-.1-.3-.2-.4-.3-.3-.9-.8-1.3-1.1-.2-.3-.3-1,.2-.8h0Z"/>
        <path class="st1" d="M26.5,40.5l-.2.3c.4.1.2.2,0,.5-2.1-1.5-3.7-2.1-6.3-1.9-3,.2-5.9.9-9,.7-2.2-.2-4.4-1.2-6.6-1.6-.4-.2-.2-.6.3-.5,1.8.1,3.8,1.1,5.6,1.2,3.3.3,6.7-.3,10-.5,2.8,0,4,.2,6.2,1.8h0Z"/>
        <path class="st2" d="M30.9,27c.2.3-.4.4-.4.2,0,0,.4-.2.4-.2Z"/>
      </g>
    </g>
  </g>
</svg>